<svg width="16" height="16" viewBox="0 0 16 16" fill="none" xmlns="http://www.w3.org/2000/svg">
<path d="M2.66725 3.0835C2.51391 3.08284 2.36286 3.12066 2.22792 3.1935L1.89957 3.37074L2.66667 3.3335M2.66725 3.0835C2.66747 3.0835 2.66769 3.0835 2.66792 3.0835L2.66667 3.3335M2.66725 3.0835H2.66667V3.3335M2.66725 3.0835H13.3328M2.66667 3.3335H13.3333M13.3328 3.0835C13.3325 3.0835 13.3323 3.0835 13.3321 3.0835L13.3333 3.3335M13.3328 3.0835C13.4861 3.08284 13.6371 3.12066 13.7721 3.1935L14.1004 3.37074L13.8116 3.607L8.79167 7.71363C8.79165 7.71364 8.79164 7.71365 8.79163 7.71366C8.56829 7.89643 8.28859 7.99628 8 7.99628C7.71141 7.99628 7.43171 7.89643 7.20837 7.71366C7.20836 7.71365 7.20835 7.71364 7.20833 7.71363L7.36667 7.52016L13.3333 3.3335M13.3328 3.0835H13.3333V3.3335M2.34667 3.4135L2.50496 3.22L2.64404 3.33377C2.54016 3.33677 2.4383 3.36403 2.34667 3.4135ZM2.34667 3.4135L2.46542 3.63349C2.49786 3.61598 2.53236 3.60292 2.56798 3.59454L2.34667 3.4135ZM13.6533 3.4135L13.432 3.59454C13.4676 3.60292 13.5021 3.61598 13.5346 3.63349L13.6533 3.4135ZM13.6533 3.4135L13.495 3.22L13.356 3.33377C13.4598 3.33677 13.5617 3.36403 13.6533 3.4135ZM1.75 5.18539L2.15846 5.52013L6.25833 8.88003L1.75 5.18539ZM1.75 5.18539V5.7135M1.75 5.18539V5.7135M1.75 5.7135V12.0002C1.75 12.2433 1.84658 12.4764 2.01849 12.6483C2.19039 12.8203 2.42355 12.9168 2.66667 12.9168H13.3333C13.5764 12.9168 13.8096 12.8203 13.9815 12.6483C14.1534 12.4764 14.25 12.2433 14.25 12.0002V5.7135V5.18539M1.75 5.7135L14.25 5.18539M14.25 5.18539L13.8415 5.52013M14.25 5.18539L13.8415 5.52013M13.8415 5.52013L9.74167 8.88003M13.8415 5.52013L9.74167 8.88003M9.74167 8.88003C9.25031 9.28215 8.63493 9.50186 8 9.50186M9.74167 8.88003L8 9.50186M8 9.50186C7.36512 9.50186 6.7498 9.28219 6.25846 8.88013L8 9.50186ZM0.25 4.00016C0.25 3.35922 0.504612 2.74453 0.957825 2.29132C1.41104 1.83811 2.02573 1.5835 2.66667 1.5835H13.3333C13.9743 1.5835 14.589 1.83811 15.0422 2.29132C15.4954 2.74453 15.75 3.35922 15.75 4.00016V12.0002C15.75 12.6411 15.4954 13.2558 15.0422 13.709C14.589 14.1622 13.9743 14.4168 13.3333 14.4168H2.66667C2.02573 14.4168 1.41104 14.1622 0.957825 13.709C0.504612 13.2558 0.25 12.6411 0.25 12.0002V4.00016Z" fill="#CDCDCD" stroke="white" stroke-width="0.5"/>
</svg>
