<svg width="16" height="16" viewBox="0 0 16 16" fill="none" xmlns="http://www.w3.org/2000/svg">
<path d="M8.00004 8.25C11.544 8.25 14.4167 11.1227 14.4167 14.6667V15.75H1.58337V14.6667C1.58337 11.1227 4.45611 8.25 8.00004 8.25ZM8.00004 7.08333C7.09388 7.08333 6.22484 6.72336 5.58409 6.08261C4.94334 5.44187 4.58337 4.57282 4.58337 3.66667C4.58337 2.76051 4.94334 1.89147 5.58409 1.25072C6.22484 0.609969 7.09388 0.25 8.00004 0.25C8.9062 0.25 9.77524 0.609969 10.416 1.25072C11.0567 1.89147 11.4167 2.76051 11.4167 3.66667C11.4167 4.57282 11.0567 5.44187 10.416 6.08261C9.77524 6.72336 8.9062 7.08333 8.00004 7.08333Z" fill="#CDCDCD" stroke="white" stroke-width="0.5"/>
</svg>
