<svg width="12" height="12" viewBox="0 0 12 12" fill="none" xmlns="http://www.w3.org/2000/svg">
<g id="arrow-left-curved">
<path id="Vector" d="M12 9.99995C12 10.2665 11.8941 10.5221 11.7056 10.7106C11.5172 10.8991 11.2615 11.0049 10.995 11.0049C10.7285 11.0049 10.4728 10.8991 10.2844 10.7106C10.0959 10.5221 9.99 10.2665 9.99 9.99995C9.98735 9.00314 9.58952 8.04807 8.88373 7.34415C8.17794 6.64024 7.22181 6.24494 6.225 6.24495H3.825L5.395 7.80995C5.48791 7.90319 5.56155 8.01381 5.6117 8.13551C5.66186 8.2572 5.68756 8.38759 5.68732 8.51922C5.68709 8.65084 5.66094 8.78114 5.61035 8.90265C5.55976 9.02417 5.48574 9.13454 5.3925 9.22745C5.29926 9.32036 5.18864 9.39399 5.06694 9.44415C4.94524 9.49431 4.81486 9.52 4.68323 9.51977C4.55161 9.51954 4.42131 9.49338 4.29979 9.4428C4.17828 9.39221 4.06791 9.31819 3.975 9.22495L0 5.25995L3.97 1.29495C4.15764 1.10664 4.4124 1.00059 4.67823 1.00012C4.94407 0.999655 5.1992 1.10481 5.3875 1.29245C5.5758 1.48009 5.68186 1.73485 5.68232 2.00068C5.68279 2.26651 5.57764 2.52164 5.39 2.70995L3.86 4.23495H6.225C9.41 4.23495 12 6.81995 12 9.99995Z" fill="#C38F00"/>
</g>
</svg>
