<svg width="16" height="16" viewBox="0 0 16 16" fill="none" xmlns="http://www.w3.org/2000/svg">
<path d="M11.52 16C11.14 16 10.76 15.8534 10.4667 15.56L3 8.00003L10.4667 0.440035C10.6038 0.300751 10.7672 0.190136 10.9475 0.114632C11.1277 0.0391283 11.3212 0.000244141 11.5167 0.000244141C11.7121 0.000244141 11.9056 0.0391283 12.0859 0.114632C12.2661 0.190136 12.4296 0.300751 12.5667 0.440035C13.1467 1.0267 13.1467 1.97337 12.5667 2.56003L7.19333 8.00003L12.5667 13.44C13.1467 14.0267 13.1467 14.9734 12.5667 15.56C12.2733 15.8534 11.9 16 11.52 16Z" fill="#C38F00"/>
</svg>
