<svg width="24" height="24" viewBox="0 0 24 24" fill="none" xmlns="http://www.w3.org/2000/svg">
<path d="M17.28 24.0001C16.71 24.0001 16.14 23.7801 15.7 23.3401L4.5 12.0001L15.7 0.660052C15.9057 0.451126 16.1508 0.285204 16.4212 0.171948C16.6916 0.0586924 16.9818 0.000366211 17.275 0.000366211C17.5682 0.000366211 17.8584 0.0586924 18.1288 0.171948C18.3992 0.285204 18.6443 0.451126 18.85 0.660052C19.72 1.54005 19.72 2.96005 18.85 3.84005L10.79 12.0001L18.85 20.1601C19.72 21.0401 19.72 22.4601 18.85 23.3401C18.41 23.7801 17.85 24.0001 17.28 24.0001Z" fill="#111111"/>
</svg>
