<svg width="24" height="24" viewBox="0 0 24 24" fill="none" xmlns="http://www.w3.org/2000/svg">
<g clip-path="url(#clip0_1785_2139)">
<path d="M12 0C8.8174 0 5.76515 1.26428 3.51472 3.51472C1.26428 5.76515 0 8.8174 0 12C0 15.1826 1.26428 18.2348 3.51472 20.4853C5.76515 22.7357 8.8174 24 12 24C15.1826 24 18.2348 22.7357 20.4853 20.4853C22.7357 18.2348 24 15.1826 24 12C24 8.8174 22.7357 5.76515 20.4853 3.51472C18.2348 1.26428 15.1826 0 12 0ZM3.25 12C3.25781 10.4096 3.69794 8.85129 4.52329 7.49182C5.34864 6.13234 6.52813 5.02289 7.93553 4.28221C9.34293 3.54153 10.9252 3.1975 12.5131 3.28695C14.101 3.37639 15.6347 3.89595 16.95 4.79L4.97 17.19C3.85637 15.6885 3.25352 13.8694 3.25 12ZM12 20.75C10.3535 20.7491 8.74102 20.281 7.35 19.4L19.24 7.09C20.1247 8.40702 20.6355 9.93935 20.718 11.5238C20.8006 13.1082 20.4518 14.6853 19.7088 16.0871C18.9658 17.4889 17.8564 18.663 16.4989 19.4841C15.1414 20.3052 13.5865 20.7427 12 20.75Z" fill="#C38F00"/>
</g>
<defs>
<clipPath id="clip0_1785_2139">
<rect width="24" height="24" fill="white"/>
</clipPath>
</defs>
</svg>
