<svg width="18" height="23" viewBox="0 0 18 23" fill="none" xmlns="http://www.w3.org/2000/svg">
<path d="M0 3C0 2.20435 0.316071 1.44129 0.87868 0.87868C1.44129 0.31607 2.20435 0 3 0H15C15.7956 0 16.5587 0.31607 17.1213 0.87868C17.6839 1.44129 18 2.20435 18 3V20.43C18.0003 20.7852 17.906 21.134 17.7268 21.4406C17.5477 21.7473 17.2901 22.0007 16.9805 22.1748C16.671 22.3489 16.3206 22.4375 15.9655 22.4314C15.6104 22.4253 15.2634 22.3247 14.96 22.14L9 18.5L3.04 22.14C2.73736 22.3242 2.39121 22.4248 2.03695 22.4313C1.6827 22.4379 1.33307 22.3502 1.02383 22.1773C0.714581 22.0043 0.456828 21.7524 0.276937 21.4471C0.097046 21.1419 0.00147429 20.7943 0 20.44V3Z" fill="#C19008"/>
</svg>
