<svg width="18" height="23" viewBox="0 0 18 23" fill="none" xmlns="http://www.w3.org/2000/svg">
<path d="M3 18.65V3H15V18.65L9 14.98L3 18.65ZM9 18.5L14.96 22.14C15.2626 22.3242 15.6088 22.4248 15.963 22.4313C16.3173 22.4379 16.6669 22.3502 16.9762 22.1773C17.2854 22.0043 17.5432 21.7524 17.7231 21.4471C17.903 21.1419 17.9985 20.7943 18 20.44V3C18 2.20435 17.6839 1.44129 17.1213 0.87868C16.5587 0.31607 15.7957 0 15 0H3C2.20435 0 1.44129 0.31607 0.87868 0.87868C0.316071 1.44129 6.95684e-07 2.20435 6.95684e-07 3V20.43C-0.000295489 20.7852 0.0939879 21.134 0.27316 21.4406C0.452332 21.7473 0.70993 22.0007 1.01948 22.1748C1.32902 22.3489 1.67935 22.4375 2.03446 22.4314C2.38957 22.4253 2.73664 22.3247 3.04 22.14L9 18.5Z" fill="#C38F00"/>
</svg>
