<svg width="36" height="30" viewBox="0 0 36 30" fill="none" xmlns="http://www.w3.org/2000/svg">
<path d="M9.54 4.485L12.84 0H23.16L26.46 4.485H31.095C33.795 4.485 36 6.72 36 9.48V25.005C36 27.765 33.795 30 31.095 30H4.905C2.205 30 0 27.765 0 25.005V9.48C0 6.72 2.205 4.485 4.905 4.485H9.54ZM18 7.83C16.8693 7.83 15.7497 8.0527 14.7051 8.4854C13.6605 8.91809 12.7113 9.5523 11.9118 10.3518C11.1123 11.1513 10.4781 12.1005 10.0454 13.1451C9.6127 14.1897 9.39 15.3093 9.39 16.44C9.39 17.5707 9.6127 18.6903 10.0454 19.7349C10.4781 20.7795 11.1123 21.7287 11.9118 22.5282C12.7113 23.3277 13.6605 23.9619 14.7051 24.3946C15.7497 24.8273 16.8693 25.05 18 25.05C20.2835 25.05 22.4735 24.1429 24.0882 22.5282C25.7029 20.9135 26.61 18.7235 26.61 16.44C26.61 14.1565 25.7029 11.9665 24.0882 10.3518C22.4735 8.73712 20.2835 7.83 18 7.83ZM18 11.925C20.49 11.925 22.515 13.95 22.515 16.44C22.515 18.93 20.49 20.955 18 20.955C15.51 20.955 13.485 18.93 13.485 16.44C13.485 13.95 15.51 11.925 18 11.925Z" fill="#C19008"/>
</svg>
