<svg width="16" height="16" viewBox="0 0 16 16" fill="none" xmlns="http://www.w3.org/2000/svg">
<g id="cancel" clip-path="url(#clip0_2964_662)">
<path id="Vector" d="M10.1198 7.99984L14.8932 3.2265C15.4798 2.63984 15.4798 1.69317 14.8932 1.1065C14.3065 0.519837 13.3598 0.519837 12.7732 1.1065L7.99984 5.87984L3.2265 1.1065C2.63984 0.519837 1.69317 0.519837 1.1065 1.1065C0.519837 1.69317 0.519837 2.63984 1.1065 3.2265L5.87984 7.99984L1.1065 12.7732C0.519837 13.3598 0.519837 14.3065 1.1065 14.8932C1.39984 15.1865 1.77984 15.3332 2.1665 15.3332C2.55317 15.3332 2.93317 15.1865 3.2265 14.8932L7.99984 10.1198L12.7732 14.8932C13.0665 15.1865 13.4465 15.3332 13.8332 15.3332C14.2198 15.3332 14.5998 15.1865 14.8932 14.8932C15.4798 14.3065 15.4798 13.3598 14.8932 12.7732L10.1198 7.99984Z" fill="#587052"/>
</g>
<defs>
<clipPath id="clip0_2964_662">
<rect width="16" height="16" fill="white"/>
</clipPath>
</defs>
</svg>
