<svg width="22" height="24" viewBox="0 0 22 24" fill="none" xmlns="http://www.w3.org/2000/svg">
<path d="M17 12.5C16.803 12.4999 16.6078 12.4611 16.4258 12.3856C16.2438 12.3101 16.0784 12.1995 15.9391 12.0602C15.7998 11.9208 15.6894 11.7553 15.614 11.5733C15.5387 11.3912 15.4999 11.196 15.5 10.999C15.5001 10.802 15.5389 10.6068 15.6144 10.4248C15.6899 10.2428 15.8005 10.0774 15.9398 9.93813C16.0792 9.79884 16.2447 9.68837 16.4267 9.61303C16.6088 9.53768 16.804 9.49893 17.001 9.499C17.399 9.49913 17.7806 9.65735 18.0619 9.93884C18.3432 10.2203 18.5011 10.602 18.501 11C18.5009 11.398 18.3427 11.7796 18.0612 12.0609C17.7797 12.3422 17.398 12.5001 17 12.5ZM11 12.5C10.602 12.4999 10.2204 12.3417 9.93913 12.0602C9.65783 11.7787 9.49987 11.397 9.5 10.999C9.50013 10.601 9.65835 10.2194 9.93984 9.93813C10.2213 9.65683 10.603 9.49887 11.001 9.499C11.399 9.49913 11.7806 9.65735 12.0619 9.93884C12.3432 10.2203 12.5011 10.602 12.501 11C12.5009 11.398 12.3427 11.7796 12.0612 12.0609C11.7797 12.3422 11.398 12.5001 11 12.5ZM5 12.5C4.60204 12.4999 4.22044 12.3417 3.93913 12.0602C3.65783 11.7787 3.49987 11.397 3.5 10.999C3.50013 10.601 3.65835 10.2194 3.93984 9.93813C4.22133 9.65683 4.60304 9.49887 5.001 9.499C5.39896 9.49913 5.78056 9.65735 6.06187 9.93884C6.34317 10.2203 6.50113 10.602 6.501 11C6.50087 11.398 6.34265 11.7796 6.06116 12.0609C5.77967 12.3422 5.39796 12.5001 5 12.5ZM11 0C4.925 0 0 4.925 0 11C0 13.653 0.94 16.086 2.504 17.986L1 24L6.336 20.951C7.79422 21.6405 9.38697 21.9988 11 22C17.075 22 22 17.075 22 11C22 4.925 17.075 0 11 0Z" fill="#C19008"/>
</svg>
