<svg width="17" height="16" viewBox="0 0 17 16" fill="none" xmlns="http://www.w3.org/2000/svg">
<g id="check-circle" clip-path="url(#clip0_4025_26)">
<path id="Vector" d="M8.5 0C6.37827 0 4.34344 0.842855 2.84315 2.34315C1.34285 3.84344 0.5 5.87827 0.5 8C0.5 10.1217 1.34285 12.1566 2.84315 13.6569C4.34344 15.1571 6.37827 16 8.5 16C10.6217 16 12.6566 15.1571 14.1569 13.6569C15.6571 12.1566 16.5 10.1217 16.5 8C16.5 5.87827 15.6571 3.84344 14.1569 2.34315C12.6566 0.842855 10.6217 0 8.5 0ZM4.74667 7.74C4.90273 7.5853 5.11359 7.4985 5.33333 7.4985C5.55308 7.4985 5.76394 7.5853 5.92 7.74L7.5 9.31333L11.08 5.74667C11.2398 5.61432 11.4433 5.54637 11.6505 5.55609C11.8578 5.56582 12.054 5.65253 12.2007 5.79925C12.3475 5.94598 12.4342 6.14217 12.4439 6.34945C12.4536 6.55673 12.3857 6.76018 12.2533 6.92L7.5 11.6667L4.74667 8.91333C4.59196 8.75727 4.50517 8.54641 4.50517 8.32667C4.50517 8.10692 4.59196 7.89607 4.74667 7.74Z" fill="#005F3E"/>
</g>
<defs>
<clipPath id="clip0_4025_26">
<rect width="16" height="16" fill="white" transform="translate(0.5)"/>
</clipPath>
</defs>
</svg>
