<svg width="18" height="18" viewBox="0 0 18 18" fill="none" xmlns="http://www.w3.org/2000/svg">
<path d="M6.75 9C6.75 10.245 7.755 11.25 9 11.25C10.245 11.25 11.25 10.245 11.25 9C11.25 7.755 10.245 6.75 9 6.75C7.755 6.75 6.75 7.755 6.75 9ZM6.75 15.75C6.75 14.505 7.755 13.5 9 13.5C10.245 13.5 11.25 14.505 11.25 15.75C11.25 16.995 10.245 18 9 18C7.755 18 6.75 16.995 6.75 15.75ZM6.75 2.25C6.75 1.005 7.755 0 9 0C10.245 0 11.25 1.005 11.25 2.25C11.25 3.495 10.245 4.5 9 4.5C7.755 4.5 6.75 3.495 6.75 2.25Z" fill="#C38F00"/>
</svg>
