<svg width="24" height="24" viewBox="0 0 24 24" fill="none" xmlns="http://www.w3.org/2000/svg">
<path d="M0 6C0 4.93913 0.421427 3.92172 1.17157 3.17157C1.92172 2.42143 2.93913 2 4 2H20C21.0609 2 22.0783 2.42143 22.8284 3.17157C23.5786 3.92172 24 4.93913 24 6V18C24 19.0609 23.5786 20.0783 22.8284 20.8284C22.0783 21.5786 21.0609 22 20 22H4C2.93913 22 1.92172 21.5786 1.17157 20.8284C0.421427 20.0783 0 19.0609 0 18V6ZM3.52 5.12L11.05 11.28C11.318 11.4993 11.6537 11.6192 12 11.6192C12.3463 11.6192 12.682 11.4993 12.95 11.28L20.48 5.12C20.3326 5.04042 20.1675 4.99916 20 5H4C3.83247 4.99916 3.66742 5.04042 3.52 5.12ZM3 8.57V18C3 18.2652 3.10536 18.5196 3.29289 18.7071C3.48043 18.8946 3.73478 19 4 19H20C20.2652 19 20.5196 18.8946 20.7071 18.7071C20.8946 18.5196 21 18.2652 21 18V8.57L14.85 13.61C14.046 14.268 13.039 14.6275 12 14.6275C10.961 14.6275 9.95405 14.268 9.15 13.61L3 8.57Z" fill="#111111"/>
</svg>
