<svg width="12" height="11" viewBox="0 0 12 11" fill="none" xmlns="http://www.w3.org/2000/svg">
<path d="M11.0891 5.79162L6.5236 10.2876C6.38341 10.4239 6.19561 10.5002 6.0001 10.5002C5.80458 10.5002 5.61678 10.4239 5.4766 10.2876L0.911096 5.79162C0.622392 5.50398 0.393316 5.16217 0.237011 4.7858C0.0807047 4.40943 0.000244141 4.00591 0.000244141 3.59837C0.000244141 3.19083 0.0807047 2.78731 0.237011 2.41094C0.393316 2.03456 0.622392 1.69276 0.911096 1.40512C2.1306 0.198619 4.1086 0.198619 5.3281 1.40512L6.0001 2.07712L6.6721 1.40512C7.8916 0.198619 9.8696 0.198619 11.0891 1.40512C11.3778 1.69276 11.6069 2.03456 11.7632 2.41094C11.9195 2.78731 11.9999 3.19083 11.9999 3.59837C11.9999 4.00591 11.9195 4.40943 11.7632 4.7858C11.6069 5.16217 11.3778 5.50398 11.0891 5.79162Z" fill="#C38F00"/>
</svg>
