<svg width="24" height="21" viewBox="0 0 24 21" fill="none" xmlns="http://www.w3.org/2000/svg">
<path d="M5.94012 3.49992C6.86012 3.49992 7.77012 3.86992 8.43012 4.51992L9.91012 5.95992L12.0001 7.99992L14.0901 5.95992L15.5701 4.51992C16.2371 3.87085 17.1295 3.50529 18.0601 3.49992C18.5501 3.49992 19.2601 3.60992 19.9101 4.12992C20.228 4.37588 20.4891 4.68738 20.6759 5.04325C20.8626 5.39912 20.9706 5.79102 20.9924 6.19233C21.0142 6.59363 20.9494 6.99493 20.8024 7.36895C20.6553 7.74297 20.4294 8.08095 20.1401 8.35992L20.0701 8.42992L20.0001 8.50992C19.9401 8.57992 14.4101 14.7299 12.0001 17.2599C9.59012 14.7199 4.06012 8.56992 4.00012 8.50992L3.94012 8.42992L3.86012 8.35992C3.57328 8.08245 3.34837 7.74745 3.20015 7.37691C3.05194 7.00637 2.98377 6.60867 3.00012 6.20992C3.05116 5.46811 3.38424 4.77398 3.93097 4.27002C4.4777 3.76605 5.19661 3.4905 5.94012 3.49992ZM18.0601 0.499921C16.3487 0.505881 14.7066 1.17636 13.4801 2.36992L12.0001 3.80992L10.5201 2.36992C9.29364 1.17636 7.65149 0.505881 5.94012 0.499921C4.61012 0.499921 3.29012 0.919921 2.21012 1.78992C1.56112 2.30225 1.02917 2.94743 0.649935 3.68218C0.270699 4.41693 0.052945 5.22427 0.0112762 6.05007C-0.0303925 6.87587 0.104987 7.70103 0.408336 8.47023C0.711685 9.23942 1.17599 9.93486 1.77012 10.5099C1.77012 10.5099 8.06012 17.5199 10.2501 19.7699C10.7201 20.2599 11.3601 20.4999 12.0001 20.4999C12.6401 20.4999 13.2801 20.2599 13.7501 19.7699C15.9401 17.5199 22.2301 10.5099 22.2301 10.5099C22.8242 9.93486 23.2886 9.23942 23.5919 8.47023C23.8953 7.70103 24.0306 6.87587 23.989 6.05007C23.9473 5.22427 23.7295 4.41693 23.3503 3.68218C22.9711 2.94743 22.4391 2.30225 21.7901 1.78992C20.7313 0.945203 19.4145 0.489795 18.0601 0.499921Z" fill="#C38F00"/>
</svg>
