<svg width="17" height="16" viewBox="0 0 17 16" fill="none" xmlns="http://www.w3.org/2000/svg">
<g id="info-circle" clip-path="url(#clip0_4025_89)">
<path id="Vector" d="M8.5 6C8.36655 6.00349 8.23375 5.98023 8.10944 5.93158C7.98512 5.88293 7.87181 5.80989 7.77617 5.71675C7.68053 5.62361 7.60451 5.51227 7.55259 5.38929C7.50067 5.2663 7.4739 5.13417 7.47385 5.00068C7.47381 4.86718 7.50049 4.73503 7.55233 4.61201C7.60417 4.48899 7.68012 4.3776 7.77569 4.2844C7.87127 4.1912 7.98453 4.11808 8.10882 4.06935C8.2331 4.02062 8.36588 3.99727 8.49933 4.00067C8.75999 4.00731 9.00775 4.1155 9.18979 4.30218C9.37184 4.48886 9.47376 4.73926 9.47385 5.00001C9.47394 5.26075 9.37218 5.51122 9.19026 5.69802C9.00834 5.88482 8.76066 5.99318 8.5 6ZM9.5 11C9.5 11.2652 9.39464 11.5196 9.20711 11.7071C9.01957 11.8946 8.76522 12 8.5 12C8.23478 12 7.98043 11.8946 7.79289 11.7071C7.60536 11.5196 7.5 11.2652 7.5 11V7.66667C7.5 7.40145 7.60536 7.1471 7.79289 6.95956C7.98043 6.77202 8.23478 6.66667 8.5 6.66667C8.76522 6.66667 9.01957 6.77202 9.20711 6.95956C9.39464 7.1471 9.5 7.40145 9.5 7.66667V11ZM8.5 0C4.082 0 0.5 3.582 0.5 8C0.5 12.418 4.082 16 8.5 16C12.918 16 16.5 12.418 16.5 8C16.5 3.582 12.918 0 8.5 0Z" fill="#0074E8"/>
</g>
<defs>
<clipPath id="clip0_4025_89">
<rect width="16" height="16" fill="white" transform="translate(0.5)"/>
</clipPath>
</defs>
</svg>
