<svg width="24" height="24" viewBox="0 0 24 24" fill="none" xmlns="http://www.w3.org/2000/svg">
<g id="insights-audience">
<path id="Vector" d="M2 22.37C2 17.87 6.48 14.22 12 14.22C17.52 14.22 22 17.87 22 22.37V24H2V22.37ZM18.48 5.97H13.04V0.01C14.4856 0.245248 15.8094 0.961843 16.7968 2.04362C17.7842 3.1254 18.3773 4.50895 18.48 5.97ZM11.04 0V6.97C11.04 7.23522 11.1454 7.48957 11.3329 7.67711C11.5204 7.86464 11.7748 7.97 12.04 7.97H18.32C18.0405 9.11456 17.4551 10.1616 16.6265 10.9992C15.7979 11.8368 14.7572 12.4334 13.6158 12.7253C12.4743 13.0171 11.2749 12.9933 10.146 12.6562C9.01705 12.3191 8.00094 11.6815 7.20634 10.8116C6.41174 9.94172 5.86852 8.87219 5.63478 7.71741C5.40104 6.56263 5.48556 5.36604 5.87932 4.25559C6.27307 3.14514 6.96124 2.16259 7.87024 1.41301C8.77924 0.663436 9.87488 0.175022 11.04 0Z" fill="#C19008"/>
</g>
</svg>
