<svg width="16" height="16" viewBox="0 0 16 16" fill="none" xmlns="http://www.w3.org/2000/svg">
<g clip-path="url(#clip0_1_2671)">
<path d="M3.99966 9.91668H3.99996C5.0567 9.91668 5.91663 9.05675 5.91663 8.00001C5.91663 6.94327 5.0567 6.08334 3.99996 6.08334C2.94322 6.08334 2.08329 6.94327 2.08329 8.00001L2.08329 8.00031C2.0839 8.50837 2.286 8.99546 2.64525 9.35471C3.00451 9.71397 3.49159 9.91607 3.99966 9.91668ZM7.58683 6.90626L7.64083 7.08334H7.82596H15.75V8.91668H14.6666H14.4166V9.16668V11.0833H12.25V9.16668V8.91668H12H7.82596H7.64083L7.58683 9.09376C7.32469 9.95344 6.76252 10.6904 6.00269 11.1704C5.24285 11.6504 4.33589 11.8415 3.44696 11.709C2.55803 11.5765 1.74626 11.1291 1.15946 10.4484C0.572665 9.76763 0.249878 8.89876 0.249878 8.00001C0.249878 7.10126 0.572665 6.23239 1.15946 5.55164C1.74626 4.87088 2.55803 4.42351 3.44696 4.291C4.33589 4.15848 5.24285 4.34963 6.00269 4.82964C6.76252 5.30965 7.32469 6.04658 7.58683 6.90626Z" fill="#CDCDCD" stroke="white" stroke-width="0.5"/>
</g>
<defs>
<clipPath id="clip0_1_2671">
<rect width="16" height="16" fill="white"/>
</clipPath>
</defs>
</svg>
