<svg width="22" height="22" viewBox="0 0 22 22" fill="none" xmlns="http://www.w3.org/2000/svg">
<path d="M2 5L12 5C12.5304 5 13.0391 4.78929 13.4142 4.41421C13.7893 4.03914 14 3.53043 14 3C14 2.46957 13.7893 1.96086 13.4142 1.58579C13.0391 1.21071 12.5304 1 12 1L2 1C1.46957 1 0.960859 1.21071 0.585787 1.58579C0.210714 1.96086 0 2.46957 0 3C0 3.53043 0.210714 4.03914 0.585787 4.41421C0.960859 4.78929 1.46957 5 2 5ZM19 6C19.7956 6 20.5587 5.68393 21.1213 5.12132C21.6839 4.55871 22 3.79565 22 3C22 2.20435 21.6839 1.44129 21.1213 0.878679C20.5587 0.316071 19.7956 0 19 0C18.2044 0 17.4413 0.316071 16.8787 0.878679C16.3161 1.44129 16 2.20435 16 3C16 3.79565 16.3161 4.55871 16.8787 5.12132C17.4413 5.68393 18.2044 6 19 6ZM2 13H12C12.5304 13 13.0391 12.7893 13.4142 12.4142C13.7893 12.0391 14 11.5304 14 11C14 10.4696 13.7893 9.96086 13.4142 9.58579C13.0391 9.21071 12.5304 9 12 9H2C1.46957 9 0.960859 9.21071 0.585787 9.58579C0.210714 9.96086 0 10.4696 0 11C0 11.5304 0.210714 12.0391 0.585787 12.4142C0.960859 12.7893 1.46957 13 2 13ZM19 14C19.7956 14 20.5587 13.6839 21.1213 13.1213C21.6839 12.5587 22 11.7956 22 11C22 10.2044 21.6839 9.44129 21.1213 8.87868C20.5587 8.31607 19.7956 8 19 8C18.2044 8 17.4413 8.31607 16.8787 8.87868C16.3161 9.44129 16 10.2044 16 11C16 11.7956 16.3161 12.5587 16.8787 13.1213C17.4413 13.6839 18.2044 14 19 14ZM12 17L2 17C1.46957 17 0.960859 17.2107 0.585787 17.5858C0.210714 17.9609 0 18.4696 0 19C0 19.5304 0.210714 20.0391 0.585787 20.4142C0.960859 20.7893 1.46957 21 2 21L12 21C12.5304 21 13.0391 20.7893 13.4142 20.4142C13.7893 20.0391 14 19.5304 14 19C14 18.4696 13.7893 17.9609 13.4142 17.5858C13.0391 17.2107 12.5304 17 12 17ZM16 19C16 18.606 16.0776 18.2159 16.2284 17.8519C16.3791 17.488 16.6001 17.1573 16.8787 16.8787C17.1573 16.6001 17.488 16.3791 17.8519 16.2284C18.2159 16.0776 18.606 16 19 16C19.394 16 19.7841 16.0776 20.1481 16.2284C20.512 16.3791 20.8427 16.6001 21.1213 16.8787C21.3999 17.1573 21.6209 17.488 21.7716 17.8519C21.9224 18.2159 22 18.606 22 19C22 19.7956 21.6839 20.5587 21.1213 21.1213C20.5587 21.6839 19.7956 22 19 22C18.2044 22 17.4413 21.6839 16.8787 21.1213C16.3161 20.5587 16 19.7956 16 19Z" fill="#C19008"/>
</svg>
