<svg width="68" height="41" viewBox="0 0 68 41" fill="none" xmlns="http://www.w3.org/2000/svg">
<path d="M19.0358 13.7568V13.793C15.4361 9.41124 11.3071 6 7.17811 6C4.43956 6 0 8.83184 0 8.83184C7.05812 9.94719 8.46975 19.4784 8.39917 26.1198L30.5264 36.9329C30.664 37.003 30.822 37.0188 30.9702 36.9774C31.1185 36.936 31.2469 36.8403 31.331 36.7084L31.9945 35.6438C32.2062 34.8036 26.3127 22.2523 19.0358 13.7568Z" fill="#587052"/>
<path d="M45.6969 1.5749C26.6794 -7.3547 9.54702 24.5346 8.39575 26.0413C8.28782 26.1809 8.10793 26.1809 8 26.2323L38.2209 40.9313C38.2817 40.9662 38.3487 40.9883 38.4179 40.9965C38.4872 41.0046 38.5574 40.9986 38.6244 40.9788C38.6914 40.9589 38.7538 40.9257 38.8081 40.8809C38.8623 40.8362 38.9073 40.7808 38.9404 40.7181C39.5736 39.5863 41.3077 36.4922 42.3798 34.89C49.6041 24.0496 56.9578 17.8393 67.643 14.0322C67.7395 13.9989 67.8243 13.9377 67.8873 13.856C67.9503 13.7744 67.9887 13.6758 67.9979 13.5722C68.007 13.4687 67.9865 13.3646 67.9389 13.2728C67.8912 13.1809 67.8184 13.1052 67.7294 13.0548C63.8654 10.9675 50.6042 3.87528 45.6969 1.5749Z" fill="url(#paint0_linear_899_555)"/>
<defs>
<linearGradient id="paint0_linear_899_555" x1="41.4084" y1="0.215248" x2="34.2038" y2="40.1956" gradientUnits="userSpaceOnUse">
<stop offset="0.02" stop-color="#FFDB77"/>
<stop offset="0.38" stop-color="#D0B875"/>
<stop offset="0.7" stop-color="#C7A341"/>
<stop offset="0.89" stop-color="#C38F00"/>
</linearGradient>
</defs>
</svg>
