<svg width="22" height="23" viewBox="0 0 22 23" fill="none" xmlns="http://www.w3.org/2000/svg">
<path d="M12.386 6.01793L16.982 10.6139L6.097 21.4989L0 22.9989L1.501 16.9029L12.386 6.01793ZM21.048 1.95193C21.35 2.25358 21.5896 2.6118 21.753 3.00611C21.9165 3.40042 22.0006 3.82308 22.0006 4.24993C22.0006 4.67677 21.9165 5.09943 21.753 5.49374C21.5896 5.88805 21.35 6.24627 21.048 6.54793L18.75 8.84793L14.154 4.24993L16.452 1.95093C16.7537 1.64893 17.1119 1.40935 17.5062 1.24589C17.9005 1.08243 18.3232 0.998291 18.75 0.998291C19.1768 0.998291 19.5995 1.08243 19.9938 1.24589C20.3881 1.40935 20.7463 1.64893 21.048 1.95093V1.95193Z" fill="#C19008"/>
</svg>
