<svg width="24" height="24" viewBox="0 0 24 24" fill="none" xmlns="http://www.w3.org/2000/svg">
<g id="people">
<path id="Vector" d="M8 11C7.40905 11 6.82389 10.8836 6.27792 10.6575C5.73196 10.4313 5.23588 10.0998 4.81802 9.68198C4.40016 9.26412 4.06869 8.76804 3.84254 8.22208C3.6164 7.67611 3.5 7.09095 3.5 6.5C3.5 5.90905 3.6164 5.32389 3.84254 4.77792C4.06869 4.23196 4.40016 3.73588 4.81802 3.31802C5.23588 2.90016 5.73196 2.56869 6.27792 2.34254C6.82389 2.1164 7.40905 2 8 2C9.19347 2 10.3381 2.47411 11.182 3.31802C12.0259 4.16193 12.5 5.30653 12.5 6.5C12.5 7.69347 12.0259 8.83807 11.182 9.68198C10.3381 10.5259 9.19347 11 8 11ZM18 14C21.314 14 24 16.713 24 20.061V22H0V20.081C0 15.618 3.582 12 8 12C10.614 12 12.927 13.272 14.387 15.23C15.4228 14.4328 16.693 14.0004 18 14ZM18 13C17.138 13 16.3114 12.6576 15.7019 12.0481C15.0924 11.4386 14.75 10.612 14.75 9.75C14.75 8.88805 15.0924 8.0614 15.7019 7.4519C16.3114 6.84241 17.138 6.5 18 6.5C18.862 6.5 19.6886 6.84241 20.2981 7.4519C20.9076 8.0614 21.25 8.88805 21.25 9.75C21.25 10.612 20.9076 11.4386 20.2981 12.0481C19.6886 12.6576 18.862 13 18 13Z" fill="#C19008"/>
</g>
</svg>
