<svg width="25" height="25" viewBox="0 0 25 25" fill="none" xmlns="http://www.w3.org/2000/svg">
<path d="M14.5707 19.9511C16.1301 18.3917 16.6509 16.0896 16.1259 14.1011L20.5624 9.45214L23.6061 9.17402L23.5884 9.15527C23.6376 9.16426 23.6883 9.16129 23.7362 9.1466C23.784 9.13192 23.8277 9.10595 23.8634 9.07089C23.8935 9.04114 23.9174 9.00573 23.9337 8.96671C23.9501 8.92769 23.9585 8.88581 23.9586 8.8435C23.9587 8.8012 23.9505 8.75929 23.9343 8.72019C23.9181 8.68109 23.8944 8.64557 23.8644 8.61568L16.3853 1.13548C16.3246 1.07518 16.2425 1.04143 16.1569 1.04163C16.0714 1.04182 15.9894 1.07595 15.929 1.13652C15.8942 1.1726 15.8683 1.21642 15.8537 1.2644C15.839 1.31238 15.8359 1.36315 15.8447 1.41256L15.8269 1.39381L15.5488 4.4386L10.8988 8.87506C8.91028 8.34902 6.6082 8.87089 5.04882 10.4292L9.01653 14.3969L3.46236 19.9511C2.66861 20.7449 0.740488 23.0292 1.08216 23.9188C1.9707 24.2605 4.25611 22.3313 5.04882 21.5376L10.603 15.9834L14.5707 19.9511Z" fill="#587052"/>
</svg>
