<svg width="23" height="23" viewBox="0 0 23 23" fill="none" xmlns="http://www.w3.org/2000/svg">
<path d="M13.5707 18.9511C15.1301 17.3917 15.6509 15.0896 15.1259 13.1011L19.5624 8.45214L22.6061 8.17402L22.5884 8.15527C22.6376 8.16426 22.6883 8.16129 22.7362 8.1466C22.784 8.13192 22.8277 8.10595 22.8634 8.07089C22.8935 8.04114 22.9174 8.00573 22.9337 7.96671C22.9501 7.92769 22.9585 7.88581 22.9586 7.8435C22.9587 7.8012 22.9505 7.75929 22.9343 7.72019C22.9181 7.68109 22.8944 7.64557 22.8644 7.61568L15.3853 0.135475C15.3246 0.0751838 15.2425 0.0414315 15.1569 0.0416268C15.0714 0.0418221 14.9894 0.0759489 14.929 0.136517C14.8942 0.172598 14.8683 0.216423 14.8537 0.264402C14.839 0.312382 14.8359 0.363153 14.8447 0.412558L14.8269 0.393808L14.5488 3.4386L9.89882 7.87506C7.91028 7.34902 5.6082 7.87089 4.04882 9.42923L8.01653 13.3969L2.46236 18.9511C1.66861 19.7449 -0.259512 22.0292 0.0821552 22.9188C0.970697 23.2605 3.25611 21.3313 4.04882 20.5376L9.60299 14.9834L13.5707 18.9511Z" fill="#C19008"/>
</svg>
