<svg width="16" height="16" viewBox="0 0 16 16" fill="none" xmlns="http://www.w3.org/2000/svg">
<path d="M2.97675 2.6665H1.66675C1.40153 2.6665 1.14718 2.56115 0.959641 2.37361C0.772105 2.18607 0.666748 1.93172 0.666748 1.6665C0.666748 1.40129 0.772105 1.14693 0.959641 0.959397C1.14718 0.771861 1.40153 0.666504 1.66675 0.666504H6.33341V5.6665C6.33341 5.93172 6.22806 6.18607 6.04052 6.37361C5.85298 6.56115 5.59863 6.6665 5.33341 6.6665C5.0682 6.6665 4.81384 6.56115 4.62631 6.37361C4.43877 6.18607 4.33341 5.93172 4.33341 5.6665V4.14384C3.29475 5.1365 2.66675 6.52184 2.66675 7.99984C2.66675 10.9405 5.05941 13.3332 8.00008 13.3332C10.9407 13.3332 13.3334 10.9405 13.3334 7.99984C13.3371 6.68168 12.851 5.40915 11.9695 4.4291C11.088 3.44905 9.87392 2.83135 8.56275 2.69584C8.30343 2.66292 8.0673 2.52978 7.90494 2.32491C7.74258 2.12005 7.66689 1.85975 7.69408 1.59977C7.72127 1.33979 7.84919 1.10079 8.05042 0.933951C8.25166 0.767116 8.51023 0.685712 8.77075 0.707171C10.5741 0.892799 12.2442 1.74178 13.4569 3.08935C14.6695 4.43692 15.3383 6.18696 15.3334 7.99984C15.3334 12.0432 12.0441 15.3332 8.00008 15.3332C3.95675 15.3332 0.666748 12.0432 0.666748 7.99984C0.666748 5.9545 1.53275 4.0325 2.97675 2.6665Z" fill="#C19008"/>
</svg>
