<svg width="16" height="16" viewBox="0 0 16 16" fill="none" xmlns="http://www.w3.org/2000/svg">
<g clip-path="url(#clip0_950_23)">
<path d="M6.66667 10.6667C4.46 10.6667 2.66667 8.87333 2.66667 6.66667C2.66667 4.46 4.46 2.66667 6.66667 2.66667C8.87333 2.66667 10.6667 4.46 10.6667 6.66667C10.6667 8.87333 8.87333 10.6667 6.66667 10.6667ZM15.4133 12.5867L12.5733 9.74667C13.0748 8.79762 13.3357 7.74004 13.3333 6.66667C13.3333 2.98667 10.3467 0 6.66667 0C2.98667 0 0 2.98667 0 6.66667C0 10.3467 2.98667 13.3333 6.66667 13.3333C7.78 13.3333 8.82667 13.06 9.74667 12.5733L12.5867 15.4133C12.9617 15.7879 13.47 15.9982 14 15.9982C14.53 15.9982 15.0383 15.7879 15.4133 15.4133C15.7879 15.0383 15.9982 14.53 15.9982 14C15.9982 13.47 15.7879 12.9617 15.4133 12.5867Z" fill="#5F5F5F"/>
</g>
<defs>
<clipPath id="clip0_950_23">
<rect width="16" height="16" fill="white"/>
</clipPath>
</defs>
</svg>
