<svg width="24" height="24" viewBox="0 0 24 24" fill="none" xmlns="http://www.w3.org/2000/svg">
<g id="send" clip-path="url(#clip0_1785_3097)">
<path id="Vector" d="M23.5382 21.5725L23.5692 21.5395C23.7843 21.3231 23.927 21.0453 23.9775 20.7444C24.028 20.4435 23.9839 20.1343 23.8512 19.8595L20.9992 13.4995L7.99924 11.9995L20.9992 10.4995L23.8522 4.13951C23.9842 3.86594 24.0283 3.5583 23.9788 3.25866C23.9292 2.95902 23.7882 2.68201 23.5752 2.46551L23.5342 2.42351C23.1312 2.03551 22.5212 1.86351 21.9082 2.12351L0.91824 10.6165C0.733241 10.6945 0.57524 10.8005 0.44624 10.9265L0.41224 10.9595C-0.273761 11.6695 -0.10476 12.9535 0.91924 13.3825L21.9092 21.8765C22.097 21.957 22.299 21.9988 22.5032 21.9995C22.9012 21.9995 23.2672 21.8355 23.5382 21.5725Z" fill="#C38F00"/>
</g>
<defs>
<clipPath id="clip0_1785_3097">
<rect width="24" height="24" fill="white" transform="matrix(-1 0 0 -1 23.9993 23.9995)"/>
</clipPath>
</defs>
</svg>
