<svg width="24" height="24" viewBox="0 0 24 24" fill="none" xmlns="http://www.w3.org/2000/svg">
<path d="M23.8398 4.20994C22.9785 4.46132 22.1944 4.92568 21.56 5.56012C20.9255 6.19456 20.4612 6.97864 20.2098 7.83994C20.1498 8.04994 19.8498 8.04994 19.7898 7.83994C19.5384 6.97864 19.0741 6.19456 18.4396 5.56012C17.8052 4.92568 17.0211 4.46132 16.1598 4.20994C15.9498 4.14994 15.9498 3.84994 16.1598 3.78994C17.0211 3.53856 17.8052 3.07421 18.4396 2.43976C19.0741 1.80532 19.5384 1.02124 19.7898 0.159941C19.8498 -0.0500586 20.1498 -0.0500586 20.2098 0.159941C20.4612 1.02124 20.9255 1.80532 21.56 2.43976C22.1944 3.07421 22.9785 3.53856 23.8398 3.78994C24.0498 3.84994 24.0498 4.14994 23.8398 4.20994ZM20.5898 14.0499C18.3256 14.7094 16.2644 15.9294 14.5968 17.5969C12.9293 19.2645 11.7093 21.3258 11.0498 23.5899C10.8898 24.1399 10.1098 24.1399 9.9498 23.5899C9.2894 21.3246 8.06792 19.2626 6.39853 17.5949C4.72914 15.9273 2.66584 14.708 0.399805 14.0499C-0.150195 13.8899 -0.150195 13.1099 0.399805 12.9499C2.667 12.291 4.73106 11.0702 6.40054 9.40068C8.07003 7.7312 9.29086 5.66713 9.9498 3.39994C10.1098 2.84994 10.8898 2.84994 11.0498 3.39994C11.7093 5.66413 12.9293 7.72538 14.5968 9.39293C16.2644 11.0605 18.3256 12.2805 20.5898 12.9399C21.1398 13.0999 21.1398 13.8799 20.5898 14.0399V14.0499Z" fill="#C19008"/>
</svg>
