<svg width="32" height="32" viewBox="0 0 32 32" fill="none" xmlns="http://www.w3.org/2000/svg">
<circle cx="16" cy="16" r="15" stroke="black" stroke-opacity="0.12" stroke-width="2"/>
<path fill-rule="evenodd" clip-rule="evenodd" d="M25.6846 26.1103C28.1194 23.7774 29.7132 20.5736 29.9653 16.9994C30.0042 16.4485 30.4482 16 31.0004 16C31.5527 16 32.0037 16.4482 31.9692 16.9994C31.7424 20.6253 30.2867 24.0775 27.8262 26.7773C27.5812 27.0462 27.3277 27.3059 27.0665 27.5561C24.7048 29.8178 21.7049 31.3025 18.4728 31.8079C17.9277 31.8931 17.4402 31.486 17.3891 30.9366C17.338 30.3868 17.7436 29.9035 18.2885 29.814C21.1344 29.3461 23.6913 28.02 25.6846 26.1103Z" fill="#587052"/>
</svg> 