<svg width="256" height="246" viewBox="0 0 256 246" fill="none" xmlns="http://www.w3.org/2000/svg">
<mask id="path-1-inside-1_1_856" fill="white">
<path d="M256 196.178C256 209.113 242.907 221.535 219.523 230.784C196.14 240.033 164.323 245.374 130.883 245.666C97.4434 245.957 65.037 241.175 40.5998 232.343C16.1627 223.51 1.6364 211.33 0.129894 198.408L128 196.178H256Z"/>
</mask>
<path d="M256 196.178C256 209.113 242.907 221.535 219.523 230.784C196.14 240.033 164.323 245.374 130.883 245.666C97.4434 245.957 65.037 241.175 40.5998 232.343C16.1627 223.51 1.6364 211.33 0.129894 198.408L128 196.178H256Z" fill="#C38F00" stroke="black" stroke-width="2" mask="url(#path-1-inside-1_1_856)"/>
<path d="M115.071 10.8474C114.781 12.1882 114.519 13.2855 114.292 13.794C114.328 13.1317 114.443 12.4918 114.696 11.8903C114.766 11.7263 114.898 11.3556 115.071 10.8474C115.884 7.0965 116.917 1.44006 117.997 1.44006C118.114 1.44006 116.001 8.12204 115.071 10.8474Z" fill="#6A5240"/>
<path d="M97.646 195.045C102.78 187.985 105.928 179.375 111.066 172.769C113.51 169.627 114.324 166.416 115.961 162.814C117.558 159.302 120.417 151.641 120.417 147.964C120.417 143.839 120.417 139.714 120.417 135.588C120.417 129.045 117.946 125.878 115.466 120.298C110.797 109.792 103.865 101.028 102.541 89.1123C101.993 84.1772 98.8318 79.3274 98.636 74.0419C98.4654 69.4358 98.636 64.7914 98.636 60.1815C98.636 55.0257 100.441 50.662 100.616 45.7712C100.823 39.9855 103.687 35.3448 104.576 29.7108C104.855 27.9442 107.675 23.8919 108.591 22.2306C110.225 19.2693 112.769 16.845 114.256 13.8704C115.112 12.1585 116.511 1.44006 117.997 1.44006C118.136 1.44006 115.136 10.8464 114.696 11.8903C113.538 14.6424 115.272 18.1986 114.256 21.0206C113.067 24.325 112.909 26.0215 112.441 29.7658C112.07 32.7397 111.805 35.6313 111.506 38.621C111.329 40.3991 109.526 40.9089 109.526 43.0761C109.526 51.052 108.536 58.7793 108.536 66.8367C108.536 75.7855 109.117 81.6087 114.476 89.1123C119.372 95.9655 124.635 103.123 129.822 109.463C140.586 122.62 145.161 141.22 149.897 157.204C152.188 164.935 153.644 173.033 156.827 180.195C158.002 182.837 158.675 186.737 160.238 188.885C162.142 191.503 163.961 194.006 164.968 197.025" stroke="black" stroke-linecap="round" stroke-linejoin="round"/>
<path d="M127.347 107.923C129.432 98.4213 138.861 99.0125 147.147 99.0125C156.22 99.0125 165.844 99.9601 174.868 98.9575C178.627 98.5398 182.158 96.7032 185.978 96.2624C188.524 95.9686 193.389 97.0423 195.603 95.4924C198.509 93.4581 201.091 90.811 201.544 87.1872C202.226 81.724 201.599 75.8186 201.599 70.3018" stroke="black" stroke-linecap="round" stroke-linejoin="round"/>
<path d="M125.367 100.992C129.673 97.8606 135.328 96.0424 140.712 96.0424C145.706 96.0424 154.077 92.0191 154.077 86.6371C154.077 83.7919 151.268 79.4736 149.127 78.0019C146.242 76.0181 147.147 67.6146 147.147 64.3616" stroke="black" stroke-linecap="round" stroke-linejoin="round"/>
<path d="M152.097 65.3517C152.097 69.9886 151.049 75.6336 153.857 78.442C155.158 79.7426 155.79 81.3689 157.542 82.7321C159.595 84.3289 160.018 84.9812 160.018 87.6272C160.018 91.9696 166.239 93.2086 168.433 89.5523C170.937 85.3782 171.898 85.3358 171.898 80.2021" stroke="black" stroke-linecap="round" stroke-linejoin="round"/>
<path d="M175.858 80.202C173.299 86.7587 172.293 91.6485 178.883 95.4924C183.432 98.1457 189.598 94.1827 192.688 91.0923C193.96 89.8203 193.678 88.2393 193.678 86.5822C193.678 84.1321 195.658 82.9529 195.658 80.697C195.658 77.2635 196.648 73.9397 196.648 70.3018" stroke="black" stroke-linecap="round" stroke-linejoin="round"/>
<path d="M110.516 173.264C107.525 171.065 103.586 169.911 103.586 165.894C103.586 162.869 103.586 159.844 103.586 156.819C103.586 150.374 101.88 143.945 100.616 137.624" stroke="black" stroke-linecap="round" stroke-linejoin="round"/>
<path d="M108.536 173.264C99.077 166.309 87.9078 163.137 75.8653 163.364C69.0347 163.493 60.4575 167.009 56.1748 159.514C54.7099 156.95 53.0947 154.522 53.0947 151.484" stroke="black" stroke-linecap="round" stroke-linejoin="round"/>
<path d="M56.0649 151.484C61.546 155.766 63.754 157.424 70.6953 157.424C74.8938 157.424 79.0922 157.424 83.2906 157.424C88.9298 157.424 89.7319 155.975 94.1259 153.464C97.047 151.795 92.3848 143.224 95.6659 141.584" stroke="black" stroke-linecap="round" stroke-linejoin="round"/>
<path d="M97.6461 68.3218C89.5192 66.5803 74.8755 65.4189 74.8755 54.4614" stroke="black" stroke-linecap="round" stroke-linejoin="round"/>
<path d="M77.8457 52.4814C80.2901 63.6169 90.1845 59.991 98.6362 63.3717" stroke="black" stroke-linecap="round" stroke-linejoin="round"/>
<path d="M106.556 24.7606C102.11 20.3145 98.5294 16.3409 95.1159 11.1203C92.9483 7.80505 92.8512 4.20307 90.7158 1" stroke="black" stroke-linecap="round" stroke-linejoin="round"/>
<path d="M106.556 22.7806C100.805 18.5979 98.6359 20.6078 98.6359 13.1004C98.6359 9.49077 96.5971 5.86207 94.6758 2.9801" stroke="black" stroke-linecap="round" stroke-linejoin="round"/>
<path d="M114.477 22.7806C119.412 18.9028 125.024 15.4548 130.867 13.1003C134.639 11.5805 134.277 10.5207 134.277 6.94019" stroke="black" stroke-linecap="round" stroke-linejoin="round"/>
<path d="M116.457 19.8105C118.013 13.8682 128.177 6.00354 134.277 3.97009" stroke="black" stroke-linecap="round" stroke-linejoin="round"/>
<line x1="14.9978" y1="216.178" x2="242.998" y2="215.169" stroke="black"/>
<line x1="22" y1="222.178" x2="235" y2="222.178" stroke="black"/>
<g filter="url(#filter0_d_1_856)">
<path d="M132.136 165.775C132.136 159.579 130.243 154.449 129.703 148.509C129.504 146.329 129.639 144.557 129.014 142.447C128.403 140.386 128.83 137.778 128.83 135.651C128.83 131.259 126.969 127.087 125.937 122.839C125.168 119.673 124 116.655 123.182 113.517C122.902 112.443 123.437 110.838 122.677 109.936C121.124 108.092 119.79 106.471 118.452 104.242C115.204 98.8287 111.472 96.4361 111.472 89.7307" stroke="#6A5240" stroke-opacity="0.64" stroke-linecap="round" stroke-linejoin="round"/>
</g>
<g filter="url(#filter1_d_1_856)">
<path d="M155.189 194.967C152.44 193.714 150.661 190.795 149.956 187.925C149.531 186.192 148.893 184.339 148.636 182.57C148.423 181.104 148.343 179.596 148.049 178.144C147.581 175.831 146.703 173.613 146.068 171.346C145.347 168.771 145.211 166.045 144.846 163.399C144.624 161.791 144.443 160.051 143.941 158.508C143.246 156.373 142.947 154.168 142.327 152.053C141.555 149.419 140.859 146.916 140.224 144.277C139.462 141.107 137.982 138.131 137.143 134.984C136.822 133.78 136.124 132.535 135.615 131.39C135.19 130.435 135.13 129.347 134.6 128.48C134.057 127.592 133.131 126.427 132.864 125.436C132.718 124.895 132.301 124.382 132.301 123.883" stroke="#6A5240" stroke-opacity="0.44" stroke-linecap="round" stroke-linejoin="round"/>
</g>
<g filter="url(#filter2_d_1_856)">
<path d="M106.553 195.847C107.73 193.581 109.361 191.547 110.636 189.343C111.631 187.624 112.634 185.914 113.595 184.183C115.575 180.62 117.551 177.165 118.437 173.18C118.738 171.824 119.488 170.537 119.745 169.12C119.886 168.343 120.121 167.712 120.369 166.969C120.517 166.523 120.858 165.667 120.858 165.245C120.858 163.572 122.337 162.014 122.606 160.403C122.894 158.674 123.058 157.1 123.058 155.268C123.058 152.204 123.939 149.255 123.939 146.159C123.939 142.391 124.211 139.049 123.498 135.278C123.052 132.915 122.599 130.802 121.738 128.553C121.097 126.879 120.714 125.158 119.879 123.565C118.956 121.803 117.979 120.107 117.067 118.381C116.185 116.711 114.148 114.579 114.035 112.659C114.001 112.08 113.346 110.765 113.02 110.214C112.582 109.472 112.212 108.415 111.614 107.817" stroke="#6A5240" stroke-opacity="0.44" stroke-linecap="round" stroke-linejoin="round"/>
</g>
<g filter="url(#filter3_d_1_856)">
<path d="M145.506 195.847C144.268 194.231 143.545 192.52 142.742 190.663C141.847 188.59 141.418 186.625 140.762 184.501C139.517 180.475 138.993 176.083 138.586 171.896C138.075 166.648 138.068 161.257 137.094 156.063C136.903 155.045 136.776 153.979 136.715 152.945C136.661 152.031 136.275 151.323 136.152 150.439C135.794 147.858 136.167 145.169 135.798 142.589C135.252 138.769 134.923 135.002 133.609 131.28C133.332 130.493 131.656 130.304 131.641 129.727C131.585 127.539 131.772 125.383 131.372 123.223C130.878 120.556 131.065 117.225 129.88 114.738C128.667 112.19 127.854 109.36 126.359 106.986C125.642 105.846 124.618 104.467 123.596 103.563C120.853 101.136 119.023 97.7492 116.016 95.4933" stroke="#6A5240" stroke-opacity="0.44" stroke-linecap="round" stroke-linejoin="round"/>
</g>
<g filter="url(#filter4_d_1_856)">
<path d="M109.693 100.159C108.842 96.4993 105.794 92.6138 105.794 88.7517C105.794 86.284 103.264 83.6633 103.195 81.315C103.017 75.2598 100.595 69.8874 100.595 63.9146C100.595 57.4746 100.334 51.7161 102.04 45.5755C102.525 43.8283 103.704 42.6365 104.494 41.0991C105.408 39.3221 105.437 37.4451 106.227 35.7201C107.809 32.2682 108.802 29.6463 109.693 26.0813" stroke="#6A5240" stroke-opacity="0.44" stroke-linecap="round" stroke-linejoin="round"/>
</g>
<g filter="url(#filter5_d_1_856)">
<path d="M132.409 195.589C131.634 193.187 130.675 190.969 130.166 188.48C129.991 187.627 130.232 186.388 129.868 185.615C129.17 184.13 129.247 181.925 129.247 180.263" stroke="#6A5240" stroke-opacity="0.44" stroke-linecap="round" stroke-linejoin="round"/>
</g>
<g filter="url(#filter6_d_1_856)">
<path d="M94.4639 7.34017C94.4639 11.7657 97.1565 13.462 99.1554 16.9602C101.508 21.0778 105.399 23.5397 109.534 25.4192C111.279 26.2124 106.367 23.254 104.724 22.2678C103.101 21.2945 101.884 19.6922 100.696 18.2397C99.5623 16.8546 98.0017 14.6991 97.2125 13.0743C96.078 10.7386 96.108 7.68934 94.4639 5.63416" stroke="#6A5240" stroke-opacity="0.44" stroke-linecap="round" stroke-linejoin="round"/>
</g>
<g filter="url(#filter7_d_1_856)">
<path d="M146.871 190.866C143.311 188.062 142.273 182.995 142.273 178.606" stroke="#6A5240" stroke-opacity="0.44" stroke-linecap="round" stroke-linejoin="round"/>
</g>
<g filter="url(#filter8_d_1_856)">
<path d="M121 186.678C124.819 181.818 127 172.394 127 165.678" stroke="#6A5240" stroke-opacity="0.57" stroke-linecap="round" stroke-linejoin="round"/>
</g>
<g filter="url(#filter9_d_1_856)">
<path d="M101.4 195.328C101.749 194.139 102.161 193.326 102.686 192.277C103.027 191.594 103.276 190.522 103.738 189.952C104.436 189.089 104.861 188.027 105.607 187.174C106.274 186.411 107.072 185.813 107.581 184.94C108.454 183.444 109.86 182.443 110.515 180.785C110.938 179.717 112.151 178.466 112.151 177.332" stroke="#8D7151" stroke-opacity="0.62" stroke-linecap="round" stroke-linejoin="round"/>
</g>
<g filter="url(#filter10_d_1_856)">
<path d="M130.444 8.06641C128.4 10.5829 124.188 11.0542 122.372 13.6262C121.709 14.5652 119.963 15.4117 119.036 16.3032C118.269 17.0413 117.581 17.7877 116.812 18.5271C115.414 19.8718 114.145 21.3659 112.859 22.7279C111.915 23.7272 111.258 25.4289 110.058 26.2285" stroke="#8D7151" stroke-opacity="0.62" stroke-linecap="round" stroke-linejoin="round"/>
</g>
<g filter="url(#filter11_d_1_856)">
<path d="M78.9233 57.7341C80.1737 60.6762 82.094 61.5546 84.9362 62.3467C87.494 63.0596 89.8052 63.9756 92.4728 64.3236C93.9527 64.5166 94.7321 64.5825 95.6028 65.8885" stroke="#6A5240" stroke-linecap="round" stroke-linejoin="round"/>
</g>
<g filter="url(#filter12_d_1_856)">
<path d="M76.3286 57.7341C77.5165 58.9962 77.625 60.1129 79.0879 60.8641C80.6296 61.6558 81.7038 62.5769 83.3711 63.0057C85.1025 63.4509 86.5177 64.6355 88.3131 65.0649C90.8883 65.6807 93.3666 66.7919 95.9733 67.3712" stroke="#8D7151" stroke-opacity="0.62" stroke-linecap="round" stroke-linejoin="round"/>
</g>
<g filter="url(#filter13_d_1_856)">
<path d="M55.5718 152.251C61.9681 161.749 75.8859 160.841 86.3362 160.406C89.5539 160.272 93.8861 158.78 95.5202 155.958C96.1405 154.886 95.9585 153.358 96.7969 152.334C97.6856 151.247 98.5678 150 98.5678 148.545" stroke="#8D7151" stroke-opacity="0.62" stroke-linecap="round" stroke-linejoin="round"/>
</g>
<g filter="url(#filter14_d_1_856)">
<path d="M55.9424 157.07C56.6994 160.519 59.4248 159.653 62.2435 160.056C63.5486 160.242 64.4691 160.776 65.9295 160.776C67.4258 160.776 68.9222 160.776 70.4185 160.776C75.144 160.776 79.882 160.676 84.6064 160.776C88.0838 160.85 92.2448 161.954 95.4377 163.165C96.9089 163.723 99.0791 164.153 99.7621 165.595C100.271 166.669 101.062 168.09 101.904 168.931" stroke="#8D7151" stroke-opacity="0.62" stroke-linecap="round" stroke-linejoin="round"/>
</g>
<g filter="url(#filter15_d_1_856)">
<path d="M101.163 153.363C100.356 153.974 95.0145 160.035 97.6208 160.035C99.184 160.035 100.159 159.604 101.533 158.841C102.426 158.345 101.904 155.021 101.904 154.105" stroke="#8D7151" stroke-opacity="0.62" stroke-linecap="round" stroke-linejoin="round"/>
</g>
<g filter="url(#filter16_d_1_856)">
<path d="M147.865 66.2593C148.101 67.6766 146.988 72.3704 148.236 73.3841C149.085 74.0742 149.465 75.774 150.459 76.6582C151.21 77.3253 152.481 78.719 152.972 79.6029C154.605 82.542 157.918 86.8787 155.072 90.5372C153.597 92.4337 151.152 94.6386 148.977 95.7264C143.741 98.3441 137.008 97.0237 131.185 97.0237C128.033 97.0237 125.953 97.6455 123.628 99.4535C122.626 100.233 122.196 102.677 121.178 103.695" stroke="#684011" stroke-opacity="0.62" stroke-linecap="round" stroke-linejoin="round"/>
</g>
<g filter="url(#filter17_d_1_856)">
<path d="M156.761 88.1279C156.864 92.3848 159.851 94.7997 163.968 94.7997C164.997 94.7997 166.027 94.7997 167.057 94.7997C168.266 94.7997 168.602 94.1586 169.651 93.7701C170.965 93.2836 170.573 93.0697 170.928 91.9168C171.024 91.6052 171.571 89.7753 171.875 89.7753C172.181 89.7753 170.805 93.6639 170.66 93.8731C169.422 95.6617 166.366 96.2974 164.359 96.8177C161.786 97.4849 159.263 97.3943 156.596 97.3943C154.854 97.3943 154.138 97.3294 152.848 96.0764C152.276 95.521 151.639 94.7997 150.83 94.7997" stroke="#EBD2B0" stroke-linecap="round" stroke-linejoin="round"/>
</g>
<g filter="url(#filter18_d_1_856)">
<path d="M198.274 73.6724C198.274 77.5732 197.533 80.9004 197.533 84.8126C197.533 86.7558 196.396 88.2843 195.474 89.8988C194.692 91.267 194.666 93.0758 193.456 94.4291C190.038 98.2491 184.851 97.7649 180.153 97.7649C178.566 97.7649 175.652 98.3442 174.182 97.6826C172.842 97.0796 172.356 96.7033 171.422 95.541C170.221 94.0454 168.801 93.6111 167.139 92.9464" stroke="#8D7151" stroke-opacity="0.62" stroke-linecap="round" stroke-linejoin="round"/>
</g>
<g filter="url(#filter19_f_1_856)">
<path d="M141.564 187.834C139.948 183.146 137.741 178.241 137.466 173.296C137.177 168.082 136.009 162.245 134.728 157.193C133.713 153.194 133.042 148.924 131.742 145.024C130.652 141.755 130.313 138.315 129.147 135.078C128.646 133.684 128.308 131.421 127.562 130.3C127.342 129.971 127.488 129.357 127.397 128.982C127.191 128.139 126.553 127.436 126.161 126.676C125.388 125.174 125.108 123.684 124.514 122.146C123.894 120.542 122.915 118.755 122.105 117.224C121.108 115.342 120.729 112.489 119.325 110.944C118.79 110.356 118.903 109.513 118.501 108.802C117.343 106.754 115.769 104.99 114.671 102.913C112.864 99.4942 110.627 96.1758 109.235 92.5553C107.956 89.2301 106.954 85.8366 105.569 82.4858C104.682 80.3389 103.816 77.2787 103.757 74.9491C103.715 73.2517 103.162 71.6925 102.851 70.0482C102.445 67.9025 102.645 65.5927 102.645 63.4176C102.645 60.3509 102.509 57.2546 102.666 54.1924C102.994 47.7859 104.57 41.2057 106.187 35.0419C107.401 30.4137 108.685 25.6651 108.946 20.8335C109.019 19.4854 109.07 16.9219 109.688 15.8091C110.443 14.45 110.058 13.5961 110.058 16.0562C110.058 18.255 108.99 19.6596 108.596 21.7601C107.249 28.945 103.93 35.4379 102.645 42.6198C102.213 45.0366 102.069 47.2068 101.883 49.621C101.618 53.0686 100.421 56.2437 100.421 59.7317C100.421 66.6986 100.421 73.6656 100.421 80.6325C100.421 85.2395 100.377 89.461 101.513 93.9349C102.275 96.9365 103.34 99.647 104.334 102.563C105.009 104.544 106.594 105.906 107.587 107.711C109.661 111.482 112.023 115.019 114.795 118.357C116.787 120.757 119.063 122.813 120.89 125.358C122.94 128.215 125.417 130.91 126.553 134.316C128.998 141.651 127.85 149.935 127.85 157.585C127.85 163.076 128.372 169.001 127.685 174.449C127.401 176.707 127.453 180.458 126.553 182.439C124.793 186.31 123.659 191.404 120.519 194.424C119.334 195.563 118.109 195.247 116.483 195.247C113.557 195.247 111.541 194.69 111.541 191.479C111.541 189.806 111.17 187.542 111.912 185.981C113.436 182.771 115.713 180.511 117.554 177.579C121.354 171.527 124.885 165.279 124.885 158.017C124.885 156.451 123.071 160.07 122.743 160.529C122.052 161.496 121.399 162.271 120.807 163.289C118.408 167.421 116.955 172.137 114.424 176.262C112.733 179.017 111.512 182.04 109.873 184.89C108.705 186.92 107.464 188.765 106.002 190.594C105.528 191.185 104.683 193.243 104.746 192.488C104.834 191.427 105.836 189.883 106.27 189.07C107.883 186.04 109.573 183.044 111.253 180.05C113.279 176.44 114.905 172.759 116.648 169.013C118.904 164.164 121.163 159.693 122.496 154.434C123.298 151.271 123.639 147.977 123.937 144.735C124.666 136.823 124.994 128.695 124.885 120.746C124.796 114.297 123.281 107.365 120.107 101.698C119.856 101.25 119.365 99.4886 119.407 99.5565C120.572 101.45 122.276 103.092 123.649 104.849C126.933 109.053 130.823 112.937 133.039 117.863C136.375 125.276 139.41 133.457 140.823 141.461C142.926 153.38 144.352 165.19 144.879 177.312C145.113 182.676 148.603 188.922 152.272 192.9C153.185 193.89 156.711 197.2 154.661 193.826C152.712 190.621 151.007 187.225 149.183 183.942C145.652 177.586 143.847 170.196 142.12 163.186C139.677 153.271 135.473 143.65 131.35 134.336C127.409 125.432 123.861 116.418 120.437 107.32C115.074 93.0722 105.611 79.4872 105.611 63.8295C105.611 53.8904 105.611 43.9514 105.611 34.0123C105.611 27.9793 110.194 21.4879 114.918 17.8271C119.115 14.5749 123.996 10.8464 129.23 9.59028C129.854 9.44038 133.347 7.97455 131.309 9.0343C129.746 9.84705 128.489 11.0931 127.088 12.1437C124.163 14.3373 120.328 15.9588 117.76 18.5272C115.363 20.9244 112.996 22.9377 110.141 24.746C109.067 25.4262 107.782 26.229 106.558 26.5786C105.225 26.9593 105.447 26.9312 105.013 25.6314C104.115 22.9353 102.534 20.7154 101.986 17.8682C101.641 16.0701 99.9655 14.4811 98.7123 13.2556C97.0275 11.6083 92.8846 8.16339 95.6029 12.8232C97.1318 15.4442 98.9015 17.2873 100.792 19.598C102.141 21.2468 102.282 22.7252 104.128 23.9223C106.05 25.1692 110.627 24.4016 111.706 22.3573C112.942 20.0153 112.431 16.9382 113.6 14.3882C114.238 12.9973 114.585 11.693 115.083 10.2698C115.18 9.99284 115.717 8.62502 115.495 9.96094C115.058 12.5821 114.211 15.1676 113.435 17.7035C110.761 26.4484 108.032 35.1353 104.869 43.7317C103.641 47.0689 102.77 50.3106 102.11 53.8012C101.817 55.3477 101.203 56.8102 101.163 58.3932C101.12 60.0619 101.488 62.0348 101.08 63.6647C100.959 64.1508 100.273 65.1112 99.9684 65.518C99.631 65.9678 98.623 65.255 98.321 65.1474C96.3732 64.4533 94.269 64.4382 92.2258 64.4061C90.3557 64.3766 90.8197 64.2368 89.6106 63.0882C86.6903 60.3139 82.9982 58.2295 79.6029 56.1075C77.5214 54.8065 83.0983 59.6376 85.2245 60.8642C87.8149 62.3587 90.3492 63.5926 93.3789 63.6647C96.1576 63.7309 95.3465 64.6652 96.4677 66.9595C97.5997 69.2756 99.0335 71.4224 100.051 73.796C103.097 80.9047 106.957 87.6227 109.152 95.0881C110.614 100.058 111.203 105.124 113.374 109.791C114.134 111.425 114.858 112.995 115.742 114.568C116.956 116.73 118.652 115.79 120.601 114.568C121.82 113.804 124.143 112.704 124.143 111.026C124.143 108.81 124.399 107.409 125.626 105.466C127.855 101.937 130.641 100.115 134.769 99.4741C136.434 99.2158 137.763 99.2286 139.32 98.6505C143.514 97.0925 147.941 96.4077 152.375 95.9529C153.931 95.7933 154.537 95.881 155.402 94.9439C156.474 93.7824 159.417 93.1357 159.726 91.3815C160.111 89.203 159.133 86.8587 158.408 84.8745C157.048 81.1503 155.47 77.999 153.137 74.702C151.102 71.8265 148.785 69.1956 146.712 66.3829C146.345 65.8848 145.069 62.8913 145.353 64.9414C145.598 66.7092 146.49 68.5323 147.33 70.0894C148.422 72.113 148.984 74.3218 149.76 76.4729C150.533 78.6172 151.757 80.5698 152.478 82.7329C153.487 85.7615 155.102 88.2972 156.349 91.2374C156.775 92.2409 156.788 93.1376 158.079 93.2348C160.108 93.3875 169.375 93.7939 170.022 91.2991C170.592 89.1009 172.047 82.4447 171.587 84.6685C170.805 88.4471 170.184 93.3988 168.087 96.6942C167.249 98.01 165.759 99.2274 164.627 100.257C163.938 100.883 164.1 100.785 165.286 100.627C168.534 100.194 171.77 99.5918 174.985 98.9594C177.401 98.484 179.605 97.1925 181.986 96.5501C186.509 95.3297 190.697 92.8139 195.227 91.8345C196.556 91.5471 198.25 88.9478 198.933 87.8397C199.84 86.3706 199.757 84.7675 199.757 83.1035C199.757 80.4178 200.579 76.3384 199.201 73.8578C198.911 73.3362 198.939 75.9381 198.81 76.4729C198.391 78.2085 198.061 79.9539 197.698 81.7033C197.027 84.933 196.065 89.8023 193.621 92.2464C190.032 95.8345 183.485 94.4835 179 94.8821C174.662 95.2678 170.324 95.1704 165.966 95.1704C163.995 95.1704 161.975 95.1942 160.035 95.5823C157.879 96.0134 155.515 95.9255 153.425 96.4883C148.751 97.7466 143.876 98.4744 139.134 99.4124C135.656 100.1 133.375 101.973 131 104.499C127.794 107.91 126.117 110.253 125.708 114.98C125.246 120.324 125.264 126.379 126.367 131.618C128.474 141.626 128.221 151.887 128.221 162.053C128.221 164.518 127.45 164.586 125.791 166.089C123.761 167.927 122.194 170.784 119.242 170.784C116.586 170.784 113.93 170.784 111.273 170.784C109.526 170.784 108.38 170.025 106.764 169.322C106.139 169.05 104.019 168.518 103.696 167.839C102.764 165.884 101.229 164.02 100.442 162.053C99.1718 158.878 98.178 155.592 97.2914 152.292C96.9932 151.183 95.9735 150.016 95.9735 148.874C95.9735 147.66 96.4443 151.258 96.6325 152.457C96.9853 154.707 97.3171 158.276 94.9027 159.397C93.0041 160.278 89.9963 159.664 88.0044 159.664C85.1422 159.664 82.2799 159.664 79.4176 159.664C76.4311 159.664 73.786 159.864 71.0984 158.388C67.2857 156.293 63.8792 153.796 59.8141 152.128C58.6582 151.654 57.7304 151.026 56.6841 150.398" stroke="#8D7151" stroke-opacity="0.79" stroke-linecap="round" stroke-linejoin="round"/>
</g>
<g filter="url(#filter20_f_1_856)">
<path d="M107.298 44.3088C104.14 52.4021 105.128 61.2168 105.128 69.8073" stroke="#BF6E12" stroke-opacity="0.62" stroke-linecap="round" stroke-linejoin="round"/>
</g>
<g filter="url(#filter21_f_1_856)">
<path d="M106.766 44.4164C105.714 51.5857 104.781 58.5276 104.781 65.7623C104.781 68.0691 104.781 63.5641 104.781 63.1423C104.781 60.5867 104.781 58.0311 104.781 55.4754C104.781 53.3703 104.781 51.2651 104.781 49.1599C104.781 47.4721 104.526 45.7332 105.222 44.1682C105.921 42.5958 106.716 41.0379 107.484 39.4798C107.915 38.6038 108.103 38.0212 108.27 37.108C108.348 36.676 108.752 36.543 108.752 36.0462C108.752 34.9904 108.747 38.1766 108.504 39.204C108.087 40.9661 107.401 42.658 106.877 44.3888C106.226 46.5399 106.096 48.8585 105.512 51.0491C104.147 56.1666 103.951 61.0591 104.036 66.3139C104.109 70.8154 106.366 75.4484 108.008 79.5517C108.725 81.3453 109.582 83.7334 109.731 85.6741C109.843 87.1325 109.871 88.4944 110.131 89.9488C110.308 90.9381 110.738 92.0644 110.738 93.0652C110.738 94.3796 109.947 90.5464 109.759 89.2456C109.244 85.6925 108.305 82.3216 107.428 78.8484C106.304 74.3953 105.774 69.3131 105.774 64.7143C105.774 58.4196 106.04 52.0294 105.539 45.7677C105.405 44.0913 105.525 42.3613 105.525 40.6795C105.525 38.6232 105.277 44.787 105.277 46.8433C105.277 52.0281 105.277 57.2129 105.277 62.3977C105.277 65.7615 105.467 68.6741 106.077 71.9675C106.34 73.3899 106.27 70.8463 106.27 70.5334C106.27 68.3107 105.841 66.1111 105.787 63.8869C105.672 59.1162 105.352 54.3202 105.539 49.546C105.655 46.5923 106.051 42.983 107.318 40.3071C107.822 39.2429 108.666 38.3698 109.442 37.5079C109.791 37.1202 110.223 36.4522 109.745 37.439C108.479 40.0496 107.528 42.8776 106.766 45.6712C106.166 47.8736 105.33 49.9978 105.277 52.3039C105.23 54.365 104.911 56.1458 104.56 58.1781C104.108 60.7954 104.305 63.4809 104.036 66.1208C104.006 66.4126 103.803 68.3272 103.788 66.7827C103.773 65.2386 103.788 63.6936 103.788 62.1495C103.788 58.4355 103.788 54.7216 103.788 51.0077C103.788 48.5991 103.788 46.1906 103.788 43.7821C103.788 42.6034 103.68 41.3656 104.036 40.2244C104.736 37.9864 106.045 36.2025 107.759 34.488" stroke="#BF6E12" stroke-opacity="0.62" stroke-linecap="round" stroke-linejoin="round"/>
</g>
<g filter="url(#filter22_f_1_856)">
<path d="M149.955 64.2731C149.66 66.0818 148.989 67.6726 148.521 69.4304C148.339 70.1122 148.217 70.998 148.217 71.7056C148.217 72.5832 148.217 70.0918 148.217 69.7199C148.217 67.4754 150.093 61.0082 150.093 63.2527C150.093 64.725 149.184 66.2592 148.99 67.7205C148.771 69.3571 148.962 71.132 148.962 72.7812C148.962 73.1916 149.01 73.397 148.797 72.8915C148.41 71.9775 147.873 71.1119 147.418 70.2301C146.677 68.7967 145.861 67.3771 144.715 66.2312C143.879 65.3957 142.984 64.6807 142.122 63.9146C141.298 63.1817 143.398 65.718 144.108 66.5622C145.206 67.8674 146.771 68.7768 147.569 70.3129C148.041 71.2208 147.549 70.8004 147.031 70.2026C146.142 69.1755 145.398 67.785 144.246 67.0172C143.09 66.2464 141.212 66.0887 139.889 65.7624C138.461 65.4103 138.968 65.5177 138.427 64.5213C137.913 63.5749 137.149 63.6255 136.8 62.5081C136.611 61.905 135.437 58.733 136.331 60.7706C137.011 62.3211 138.111 63.5375 139.199 64.7971C140.894 66.7601 143.221 66.9954 145.335 68.1342C145.969 68.4751 147.027 69.6571 147.418 70.2301C148.183 71.3523 148.098 71.9457 149.183 70.7541C150.918 68.8479 152.837 67.0713 155.195 65.983C156.502 65.3798 159.164 64.119 159.635 62.646C159.727 62.3598 160.147 61.6577 160.049 61.3636C159.927 60.9988 157.657 62.4017 157.484 62.4805C154.327 63.9177 150.831 64.9472 147.555 66.1071C147.428 66.1522 145.379 66.9056 145.487 67.2516C145.815 68.3004 151.604 67.2594 152.492 67.0034C154.061 66.551 154.989 66.1091 156.284 65.1281C156.649 64.8515 157.272 63.979 157.732 63.887C158.266 63.7802 156.76 64.3957 156.339 64.742C155.207 65.6748 153.894 66.3821 152.658 67.1689C152.072 67.5415 148.649 70.2672 149.458 68.2445" stroke="#BF6E12" stroke-opacity="0.62" stroke-linecap="round" stroke-linejoin="round"/>
</g>
<g filter="url(#filter23_f_1_856)">
<path d="M78.9674 62.0393C77.6426 63.6094 75.0941 63.1093 73.2034 63.0321C72.2547 62.9934 70.293 62.9299 69.4803 62.4254C66.5586 60.612 63.0326 59.8439 59.7588 58.6747C58.4376 58.2028 57.085 57.8256 55.7599 57.3647C54.9895 57.0968 54.8388 57.1629 55.4427 57.8473C56.4465 58.985 57.4202 59.243 58.7522 59.8054C60.5689 60.5725 62.5996 60.4821 64.5161 60.7983C66.6993 61.1584 68.8995 61.4187 71.1074 61.5567C73.9454 61.7341 76.7409 62.0393 79.5879 62.0393C81.358 62.0393 76.0172 62.2495 74.279 61.9152C71.3496 61.3519 68.49 60.7056 65.5641 60.1088C64.1563 59.8216 62.7198 59.767 61.317 59.5021C59.9772 59.249 58.6516 58.3381 57.456 57.737C57.0047 57.5101 55.165 56.182 54.5602 56.3029C54.1235 56.3903 57.4306 59.5884 57.5939 59.7089C59.7728 61.3172 62.2072 61.8807 64.7092 62.7564C65.5735 63.0589 66.2057 63.123 67.0534 62.7839" stroke="#BF6E12" stroke-opacity="0.62" stroke-linecap="round" stroke-linejoin="round"/>
</g>
<g filter="url(#filter24_f_1_856)">
<path d="M97.583 149.16C98.0811 151.387 98.5758 152.981 98.5758 155.228C98.5758 155.485 98.4227 158.561 98.6034 158.606C98.9209 158.685 99.2827 155.954 99.3205 155.614" stroke="#BF6E12" stroke-opacity="0.62" stroke-linecap="round" stroke-linejoin="round"/>
</g>
<g filter="url(#filter25_f_1_856)">
<path d="M212.822 72.1572C211.154 74.2286 209.204 76.329 207.277 78.1648C206.457 78.9451 205.017 78.658 204.016 79.3457C203.113 79.9665 202.126 80.3258 201.269 80.9375C201.239 80.9591 200.176 81.6061 200.756 81.2969C202.893 80.1571 204.977 78.847 207.02 77.5486C208.457 76.6353 210.613 75.5651 211.436 74.0057C211.591 73.7125 212.505 71.1111 211.872 71.8491C210.735 73.1763 210.703 74.3145 209.228 75.3921C208.264 76.0964 207.604 77.1761 206.584 77.8824C205.75 78.4595 204.35 79.1456 203.4 79.5255C202.35 79.9453 205.566 78.7918 206.507 78.1648C208.748 76.6706 212.716 69.523 211.795 72.0545C211.127 73.8926 208.389 75.5446 206.815 76.419C204.627 77.6342 203.997 78.02 201.269 77.2405" stroke="#BF6E12" stroke-opacity="0.62" stroke-linecap="round" stroke-linejoin="round"/>
</g>
<g filter="url(#filter26_f_1_856)">
<path d="M201.409 218.541C194.287 218.541 187.165 218.541 180.044 218.541C174.695 218.541 190.741 218.541 196.09 218.541C197.619 218.541 199.148 218.541 200.677 218.541C202.705 218.541 198.241 218.04 198.062 218.033C190.234 217.732 182.354 218.003 174.516 218.003C169.56 218.003 164.469 217.676 159.515 218.018C158.259 218.105 157.068 218.541 155.81 218.541C153.842 218.541 151.875 218.541 149.908 218.541C146.128 218.541 142.362 218.766 138.598 218.81C129.843 218.912 121.075 218.956 112.332 219.079C101.25 219.235 90.0598 219.339 78.9989 218.825C75.137 218.645 71.3596 218.272 67.4795 218.272C64.0232 218.272 60.5669 218.272 57.1106 218.272C45.1606 218.272 33.2548 217.734 21.3422 217.734C20.8043 217.734 20.2665 217.734 19.7286 217.734C18.9931 217.734 17.6525 217.386 18.9069 217.869C20.7802 218.589 21.1196 219.643 21.2227 221.499C21.2548 222.078 29.384 221.768 30.2768 221.768C33.7455 221.768 37.1651 220.952 40.6159 220.648C42.4422 220.486 44.202 219.898 46.0245 219.676C46.8695 219.574 47.587 219.13 48.415 219.079C50.0689 218.975 51.6816 218.635 53.3455 218.571C54.7813 218.515 56.3808 218.75 57.7978 218.421C59.1433 218.109 60.0406 218.003 61.4733 218.003C64.581 218.003 67.6887 218.003 70.7964 218.003C72.9256 218.003 74.9773 218.41 77.1014 218.511C79.9595 218.647 82.8471 218.541 85.7073 218.541C87.54 218.541 89.3728 218.541 91.2055 218.541C93.1706 218.541 96.0523 217.97 97.899 218.81C98.9585 219.291 100.332 219.079 101.455 219.079C103.367 219.079 105.28 219.079 107.192 219.079C108.397 219.079 109.603 219.079 110.808 219.079C116.326 219.079 121.844 219.079 127.362 219.079C139.873 219.079 152.383 219.079 164.894 219.079C180.902 219.079 197.03 218.81 212.973 218.81" stroke="#BF6E12" stroke-opacity="0.62" stroke-linecap="round" stroke-linejoin="round"/>
<path d="M201.409 218.541C194.287 218.541 187.165 218.541 180.044 218.541C174.695 218.541 190.741 218.541 196.09 218.541C197.619 218.541 199.148 218.541 200.677 218.541C202.705 218.541 198.241 218.04 198.062 218.033C190.234 217.732 182.354 218.003 174.516 218.003C169.56 218.003 164.469 217.676 159.515 218.018C158.259 218.105 157.068 218.541 155.81 218.541C153.842 218.541 151.875 218.541 149.908 218.541C146.128 218.541 142.362 218.766 138.598 218.81C129.843 218.912 121.075 218.956 112.332 219.079C101.25 219.235 90.0598 219.339 78.9989 218.825C75.137 218.645 71.3596 218.272 67.4795 218.272C64.0232 218.272 60.5669 218.272 57.1106 218.272C45.1606 218.272 33.2548 217.734 21.3422 217.734C20.8043 217.734 20.2665 217.734 19.7286 217.734C18.9931 217.734 17.6525 217.386 18.9069 217.869C20.7802 218.589 21.1196 219.643 21.2227 221.499C21.2548 222.078 29.384 221.768 30.2768 221.768C33.7455 221.768 37.1651 220.952 40.6159 220.648C42.4422 220.486 44.202 219.898 46.0245 219.676C46.8695 219.574 47.587 219.13 48.415 219.079C50.0689 218.975 51.6816 218.635 53.3455 218.571C54.7813 218.515 56.3808 218.75 57.7978 218.421C59.1433 218.109 60.0406 218.003 61.4733 218.003C64.581 218.003 67.6887 218.003 70.7964 218.003C72.9256 218.003 74.9773 218.41 77.1014 218.511C79.9595 218.647 82.8471 218.541 85.7073 218.541C87.54 218.541 89.3728 218.541 91.2055 218.541C93.1706 218.541 96.0523 217.97 97.899 218.81C98.9585 219.291 100.332 219.079 101.455 219.079C103.367 219.079 105.28 219.079 107.192 219.079C108.397 219.079 109.603 219.079 110.808 219.079C116.326 219.079 121.844 219.079 127.362 219.079C139.873 219.079 152.383 219.079 164.894 219.079C180.902 219.079 197.03 218.81 212.973 218.81" stroke="url(#paint0_linear_1_856)" stroke-linecap="round" stroke-linejoin="round"/>
<path d="M201.409 218.541C194.287 218.541 187.165 218.541 180.044 218.541C174.695 218.541 190.741 218.541 196.09 218.541C197.619 218.541 199.148 218.541 200.677 218.541C202.705 218.541 198.241 218.04 198.062 218.033C190.234 217.732 182.354 218.003 174.516 218.003C169.56 218.003 164.469 217.676 159.515 218.018C158.259 218.105 157.068 218.541 155.81 218.541C153.842 218.541 151.875 218.541 149.908 218.541C146.128 218.541 142.362 218.766 138.598 218.81C129.843 218.912 121.075 218.956 112.332 219.079C101.25 219.235 90.0598 219.339 78.9989 218.825C75.137 218.645 71.3596 218.272 67.4795 218.272C64.0232 218.272 60.5669 218.272 57.1106 218.272C45.1606 218.272 33.2548 217.734 21.3422 217.734C20.8043 217.734 20.2665 217.734 19.7286 217.734C18.9931 217.734 17.6525 217.386 18.9069 217.869C20.7802 218.589 21.1196 219.643 21.2227 221.499C21.2548 222.078 29.384 221.768 30.2768 221.768C33.7455 221.768 37.1651 220.952 40.6159 220.648C42.4422 220.486 44.202 219.898 46.0245 219.676C46.8695 219.574 47.587 219.13 48.415 219.079C50.0689 218.975 51.6816 218.635 53.3455 218.571C54.7813 218.515 56.3808 218.75 57.7978 218.421C59.1433 218.109 60.0406 218.003 61.4733 218.003C64.581 218.003 67.6887 218.003 70.7964 218.003C72.9256 218.003 74.9773 218.41 77.1014 218.511C79.9595 218.647 82.8471 218.541 85.7073 218.541C87.54 218.541 89.3728 218.541 91.2055 218.541C93.1706 218.541 96.0523 217.97 97.899 218.81C98.9585 219.291 100.332 219.079 101.455 219.079C103.367 219.079 105.28 219.079 107.192 219.079C108.397 219.079 109.603 219.079 110.808 219.079C116.326 219.079 121.844 219.079 127.362 219.079C139.873 219.079 152.383 219.079 164.894 219.079C180.902 219.079 197.03 218.81 212.973 218.81" stroke="url(#paint1_linear_1_856)" stroke-linecap="round" stroke-linejoin="round"/>
<path d="M201.409 218.541C194.287 218.541 187.165 218.541 180.044 218.541C174.695 218.541 190.741 218.541 196.09 218.541C197.619 218.541 199.148 218.541 200.677 218.541C202.705 218.541 198.241 218.04 198.062 218.033C190.234 217.732 182.354 218.003 174.516 218.003C169.56 218.003 164.469 217.676 159.515 218.018C158.259 218.105 157.068 218.541 155.81 218.541C153.842 218.541 151.875 218.541 149.908 218.541C146.128 218.541 142.362 218.766 138.598 218.81C129.843 218.912 121.075 218.956 112.332 219.079C101.25 219.235 90.0598 219.339 78.9989 218.825C75.137 218.645 71.3596 218.272 67.4795 218.272C64.0232 218.272 60.5669 218.272 57.1106 218.272C45.1606 218.272 33.2548 217.734 21.3422 217.734C20.8043 217.734 20.2665 217.734 19.7286 217.734C18.9931 217.734 17.6525 217.386 18.9069 217.869C20.7802 218.589 21.1196 219.643 21.2227 221.499C21.2548 222.078 29.384 221.768 30.2768 221.768C33.7455 221.768 37.1651 220.952 40.6159 220.648C42.4422 220.486 44.202 219.898 46.0245 219.676C46.8695 219.574 47.587 219.13 48.415 219.079C50.0689 218.975 51.6816 218.635 53.3455 218.571C54.7813 218.515 56.3808 218.75 57.7978 218.421C59.1433 218.109 60.0406 218.003 61.4733 218.003C64.581 218.003 67.6887 218.003 70.7964 218.003C72.9256 218.003 74.9773 218.41 77.1014 218.511C79.9595 218.647 82.8471 218.541 85.7073 218.541C87.54 218.541 89.3728 218.541 91.2055 218.541C93.1706 218.541 96.0523 217.97 97.899 218.81C98.9585 219.291 100.332 219.079 101.455 219.079C103.367 219.079 105.28 219.079 107.192 219.079C108.397 219.079 109.603 219.079 110.808 219.079C116.326 219.079 121.844 219.079 127.362 219.079C139.873 219.079 152.383 219.079 164.894 219.079C180.902 219.079 197.03 218.81 212.973 218.81" stroke="url(#paint2_linear_1_856)" stroke-linecap="round" stroke-linejoin="round"/>
<path d="M201.409 218.541C194.287 218.541 187.165 218.541 180.044 218.541C174.695 218.541 190.741 218.541 196.09 218.541C197.619 218.541 199.148 218.541 200.677 218.541C202.705 218.541 198.241 218.04 198.062 218.033C190.234 217.732 182.354 218.003 174.516 218.003C169.56 218.003 164.469 217.676 159.515 218.018C158.259 218.105 157.068 218.541 155.81 218.541C153.842 218.541 151.875 218.541 149.908 218.541C146.128 218.541 142.362 218.766 138.598 218.81C129.843 218.912 121.075 218.956 112.332 219.079C101.25 219.235 90.0598 219.339 78.9989 218.825C75.137 218.645 71.3596 218.272 67.4795 218.272C64.0232 218.272 60.5669 218.272 57.1106 218.272C45.1606 218.272 33.2548 217.734 21.3422 217.734C20.8043 217.734 20.2665 217.734 19.7286 217.734C18.9931 217.734 17.6525 217.386 18.9069 217.869C20.7802 218.589 21.1196 219.643 21.2227 221.499C21.2548 222.078 29.384 221.768 30.2768 221.768C33.7455 221.768 37.1651 220.952 40.6159 220.648C42.4422 220.486 44.202 219.898 46.0245 219.676C46.8695 219.574 47.587 219.13 48.415 219.079C50.0689 218.975 51.6816 218.635 53.3455 218.571C54.7813 218.515 56.3808 218.75 57.7978 218.421C59.1433 218.109 60.0406 218.003 61.4733 218.003C64.581 218.003 67.6887 218.003 70.7964 218.003C72.9256 218.003 74.9773 218.41 77.1014 218.511C79.9595 218.647 82.8471 218.541 85.7073 218.541C87.54 218.541 89.3728 218.541 91.2055 218.541C93.1706 218.541 96.0523 217.97 97.899 218.81C98.9585 219.291 100.332 219.079 101.455 219.079C103.367 219.079 105.28 219.079 107.192 219.079C108.397 219.079 109.603 219.079 110.808 219.079C116.326 219.079 121.844 219.079 127.362 219.079C139.873 219.079 152.383 219.079 164.894 219.079C180.902 219.079 197.03 218.81 212.973 218.81" stroke="url(#paint3_linear_1_856)" stroke-linecap="round" stroke-linejoin="round"/>
</g>
<g filter="url(#filter27_f_1_856)">
<path d="M238.791 217.465C233.614 217.609 228.455 218.706 223.252 218.81C219.874 218.877 216.508 218.721 213.152 219.019C210.416 219.262 207.606 219.079 204.86 219.079C202.633 219.079 209.332 218.96 211.539 219.258C214.706 219.685 217.604 220.154 220.802 220.154C223.087 220.154 225.302 219.617 227.6 219.617C229.382 219.617 231.116 219.424 232.844 218.944C234.004 218.622 233.987 218.479 232.546 218.601C229.984 218.816 227.521 219.079 224.941 219.079C221.4 219.079 217.859 219.079 214.318 219.079C209.885 219.079 205.453 219.079 201.02 219.079C199.905 219.079 198.789 219.079 197.674 219.079C197.387 219.079 195.646 219.079 197.196 219.079C203.072 219.079 208.949 219.079 214.826 219.079C221.237 219.079 227.627 218.81 234.025 218.81C244.183 218.81 213.719 219.617 203.56 219.617C198.26 219.617 193.018 219.902 187.723 220.154C184.508 220.308 181.406 221.169 178.191 221.23C175.169 221.288 172.163 221.499 169.137 221.499" stroke="#BF6E12" stroke-opacity="0.62" stroke-linecap="round" stroke-linejoin="round"/>
<path d="M238.791 217.465C233.614 217.609 228.455 218.706 223.252 218.81C219.874 218.877 216.508 218.721 213.152 219.019C210.416 219.262 207.606 219.079 204.86 219.079C202.633 219.079 209.332 218.96 211.539 219.258C214.706 219.685 217.604 220.154 220.802 220.154C223.087 220.154 225.302 219.617 227.6 219.617C229.382 219.617 231.116 219.424 232.844 218.944C234.004 218.622 233.987 218.479 232.546 218.601C229.984 218.816 227.521 219.079 224.941 219.079C221.4 219.079 217.859 219.079 214.318 219.079C209.885 219.079 205.453 219.079 201.02 219.079C199.905 219.079 198.789 219.079 197.674 219.079C197.387 219.079 195.646 219.079 197.196 219.079C203.072 219.079 208.949 219.079 214.826 219.079C221.237 219.079 227.627 218.81 234.025 218.81C244.183 218.81 213.719 219.617 203.56 219.617C198.26 219.617 193.018 219.902 187.723 220.154C184.508 220.308 181.406 221.169 178.191 221.23C175.169 221.288 172.163 221.499 169.137 221.499" stroke="url(#paint4_linear_1_856)" stroke-linecap="round" stroke-linejoin="round"/>
<path d="M238.791 217.465C233.614 217.609 228.455 218.706 223.252 218.81C219.874 218.877 216.508 218.721 213.152 219.019C210.416 219.262 207.606 219.079 204.86 219.079C202.633 219.079 209.332 218.96 211.539 219.258C214.706 219.685 217.604 220.154 220.802 220.154C223.087 220.154 225.302 219.617 227.6 219.617C229.382 219.617 231.116 219.424 232.844 218.944C234.004 218.622 233.987 218.479 232.546 218.601C229.984 218.816 227.521 219.079 224.941 219.079C221.4 219.079 217.859 219.079 214.318 219.079C209.885 219.079 205.453 219.079 201.02 219.079C199.905 219.079 198.789 219.079 197.674 219.079C197.387 219.079 195.646 219.079 197.196 219.079C203.072 219.079 208.949 219.079 214.826 219.079C221.237 219.079 227.627 218.81 234.025 218.81C244.183 218.81 213.719 219.617 203.56 219.617C198.26 219.617 193.018 219.902 187.723 220.154C184.508 220.308 181.406 221.169 178.191 221.23C175.169 221.288 172.163 221.499 169.137 221.499" stroke="url(#paint5_linear_1_856)" stroke-linecap="round" stroke-linejoin="round"/>
<path d="M238.791 217.465C233.614 217.609 228.455 218.706 223.252 218.81C219.874 218.877 216.508 218.721 213.152 219.019C210.416 219.262 207.606 219.079 204.86 219.079C202.633 219.079 209.332 218.96 211.539 219.258C214.706 219.685 217.604 220.154 220.802 220.154C223.087 220.154 225.302 219.617 227.6 219.617C229.382 219.617 231.116 219.424 232.844 218.944C234.004 218.622 233.987 218.479 232.546 218.601C229.984 218.816 227.521 219.079 224.941 219.079C221.4 219.079 217.859 219.079 214.318 219.079C209.885 219.079 205.453 219.079 201.02 219.079C199.905 219.079 198.789 219.079 197.674 219.079C197.387 219.079 195.646 219.079 197.196 219.079C203.072 219.079 208.949 219.079 214.826 219.079C221.237 219.079 227.627 218.81 234.025 218.81C244.183 218.81 213.719 219.617 203.56 219.617C198.26 219.617 193.018 219.902 187.723 220.154C184.508 220.308 181.406 221.169 178.191 221.23C175.169 221.288 172.163 221.499 169.137 221.499" stroke="url(#paint6_linear_1_856)" stroke-linecap="round" stroke-linejoin="round"/>
<path d="M238.791 217.465C233.614 217.609 228.455 218.706 223.252 218.81C219.874 218.877 216.508 218.721 213.152 219.019C210.416 219.262 207.606 219.079 204.86 219.079C202.633 219.079 209.332 218.96 211.539 219.258C214.706 219.685 217.604 220.154 220.802 220.154C223.087 220.154 225.302 219.617 227.6 219.617C229.382 219.617 231.116 219.424 232.844 218.944C234.004 218.622 233.987 218.479 232.546 218.601C229.984 218.816 227.521 219.079 224.941 219.079C221.4 219.079 217.859 219.079 214.318 219.079C209.885 219.079 205.453 219.079 201.02 219.079C199.905 219.079 198.789 219.079 197.674 219.079C197.387 219.079 195.646 219.079 197.196 219.079C203.072 219.079 208.949 219.079 214.826 219.079C221.237 219.079 227.627 218.81 234.025 218.81C244.183 218.81 213.719 219.617 203.56 219.617C198.26 219.617 193.018 219.902 187.723 220.154C184.508 220.308 181.406 221.169 178.191 221.23C175.169 221.288 172.163 221.499 169.137 221.499" stroke="url(#paint7_linear_1_856)" stroke-linecap="round" stroke-linejoin="round"/>
</g>
<g filter="url(#filter28_f_1_856)">
<path d="M133.68 193.696C138.517 193.696 143.354 193.696 148.192 193.696C150.556 193.696 152.935 193.545 155.246 194.139C157.394 194.692 162.75 197.719 161.413 193.857C160.45 191.076 156.711 189.997 154.722 187.891C152.378 185.41 150.385 181.8 149.643 178.459C148.095 171.495 143.838 164.255 143.838 157.095C143.838 150.689 139.485 144.998 139.485 138.553" stroke="#C15E16" stroke-linecap="round" stroke-linejoin="round"/>
</g>
<g filter="url(#filter29_f_1_856)">
<path d="M127.876 101.549C134.429 98.8318 140.387 94.2933 147.829 94.2933C152.843 94.2933 159.218 93.5315 163.751 91.391C166.262 90.2055 168.788 89.5419 169.919 86.7151C170.39 85.5366 170.359 83.9352 171.41 83.4098" stroke="#C15E16" stroke-linecap="round" stroke-linejoin="round"/>
</g>
<g filter="url(#filter30_f_1_856)">
<path d="M95.9511 164.673C87.8817 164.673 75.6251 168.371 69.4276 162.174C65.2205 157.967 60.407 153.559 56.7705 148.711" stroke="#C15E16" stroke-linecap="round" stroke-linejoin="round"/>
</g>
<defs>
<filter id="filter0_d_1_856" x="106.972" y="89.2307" width="29.6641" height="85.0439" filterUnits="userSpaceOnUse" color-interpolation-filters="sRGB">
<feFlood flood-opacity="0" result="BackgroundImageFix"/>
<feColorMatrix in="SourceAlpha" type="matrix" values="0 0 0 0 0 0 0 0 0 0 0 0 0 0 0 0 0 0 127 0" result="hardAlpha"/>
<feOffset dy="4"/>
<feGaussianBlur stdDeviation="2"/>
<feColorMatrix type="matrix" values="0 0 0 0 0.968627 0 0 0 0 0.603922 0 0 0 0 0.243137 0 0 0 1 0"/>
<feBlend mode="normal" in2="BackgroundImageFix" result="effect1_dropShadow_1_856"/>
<feBlend mode="normal" in="SourceGraphic" in2="effect1_dropShadow_1_856" result="shape"/>
</filter>
<filter id="filter1_d_1_856" x="131.801" y="123.383" width="33.8877" height="82.0844" filterUnits="userSpaceOnUse" color-interpolation-filters="sRGB">
<feFlood flood-opacity="0" result="BackgroundImageFix"/>
<feColorMatrix in="SourceAlpha" type="matrix" values="0 0 0 0 0 0 0 0 0 0 0 0 0 0 0 0 0 0 127 0" result="hardAlpha"/>
<feOffset dx="6" dy="6"/>
<feGaussianBlur stdDeviation="2"/>
<feColorMatrix type="matrix" values="0 0 0 0 0.683333 0 0 0 0 0.583111 0 0 0 0 0.3075 0 0 0 1 0"/>
<feBlend mode="normal" in2="BackgroundImageFix" result="effect1_dropShadow_1_856"/>
<feBlend mode="normal" in="SourceGraphic" in2="effect1_dropShadow_1_856" result="shape"/>
</filter>
<filter id="filter2_d_1_856" x="106.053" y="107.317" width="28.437" height="99.03" filterUnits="userSpaceOnUse" color-interpolation-filters="sRGB">
<feFlood flood-opacity="0" result="BackgroundImageFix"/>
<feColorMatrix in="SourceAlpha" type="matrix" values="0 0 0 0 0 0 0 0 0 0 0 0 0 0 0 0 0 0 127 0" result="hardAlpha"/>
<feOffset dx="6" dy="6"/>
<feGaussianBlur stdDeviation="2"/>
<feColorMatrix type="matrix" values="0 0 0 0 0.683333 0 0 0 0 0.583111 0 0 0 0 0.3075 0 0 0 1 0"/>
<feBlend mode="normal" in2="BackgroundImageFix" result="effect1_dropShadow_1_856"/>
<feBlend mode="normal" in="SourceGraphic" in2="effect1_dropShadow_1_856" result="shape"/>
</filter>
<filter id="filter3_d_1_856" x="115.516" y="94.9933" width="40.4902" height="111.354" filterUnits="userSpaceOnUse" color-interpolation-filters="sRGB">
<feFlood flood-opacity="0" result="BackgroundImageFix"/>
<feColorMatrix in="SourceAlpha" type="matrix" values="0 0 0 0 0 0 0 0 0 0 0 0 0 0 0 0 0 0 127 0" result="hardAlpha"/>
<feOffset dx="6" dy="6"/>
<feGaussianBlur stdDeviation="2"/>
<feColorMatrix type="matrix" values="0 0 0 0 0.683333 0 0 0 0 0.583111 0 0 0 0 0.3075 0 0 0 1 0"/>
<feBlend mode="normal" in2="BackgroundImageFix" result="effect1_dropShadow_1_856"/>
<feBlend mode="normal" in="SourceGraphic" in2="effect1_dropShadow_1_856" result="shape"/>
</filter>
<filter id="filter4_d_1_856" x="100.081" y="25.5812" width="20.1123" height="85.0784" filterUnits="userSpaceOnUse" color-interpolation-filters="sRGB">
<feFlood flood-opacity="0" result="BackgroundImageFix"/>
<feColorMatrix in="SourceAlpha" type="matrix" values="0 0 0 0 0 0 0 0 0 0 0 0 0 0 0 0 0 0 127 0" result="hardAlpha"/>
<feOffset dx="6" dy="6"/>
<feGaussianBlur stdDeviation="2"/>
<feColorMatrix type="matrix" values="0 0 0 0 0.683333 0 0 0 0 0.583111 0 0 0 0 0.3075 0 0 0 1 0"/>
<feBlend mode="normal" in2="BackgroundImageFix" result="effect1_dropShadow_1_856"/>
<feBlend mode="normal" in="SourceGraphic" in2="effect1_dropShadow_1_856" result="shape"/>
</filter>
<filter id="filter5_d_1_856" x="128.744" y="179.763" width="14.1655" height="26.3269" filterUnits="userSpaceOnUse" color-interpolation-filters="sRGB">
<feFlood flood-opacity="0" result="BackgroundImageFix"/>
<feColorMatrix in="SourceAlpha" type="matrix" values="0 0 0 0 0 0 0 0 0 0 0 0 0 0 0 0 0 0 127 0" result="hardAlpha"/>
<feOffset dx="6" dy="6"/>
<feGaussianBlur stdDeviation="2"/>
<feColorMatrix type="matrix" values="0 0 0 0 0.683333 0 0 0 0 0.583111 0 0 0 0 0.3075 0 0 0 1 0"/>
<feBlend mode="normal" in2="BackgroundImageFix" result="effect1_dropShadow_1_856"/>
<feBlend mode="normal" in="SourceGraphic" in2="effect1_dropShadow_1_856" result="shape"/>
</filter>
<filter id="filter6_d_1_856" x="93.9639" y="5.13416" width="26.4395" height="30.9186" filterUnits="userSpaceOnUse" color-interpolation-filters="sRGB">
<feFlood flood-opacity="0" result="BackgroundImageFix"/>
<feColorMatrix in="SourceAlpha" type="matrix" values="0 0 0 0 0 0 0 0 0 0 0 0 0 0 0 0 0 0 127 0" result="hardAlpha"/>
<feOffset dx="6" dy="6"/>
<feGaussianBlur stdDeviation="2"/>
<feColorMatrix type="matrix" values="0 0 0 0 0.683333 0 0 0 0 0.583111 0 0 0 0 0.3075 0 0 0 1 0"/>
<feBlend mode="normal" in2="BackgroundImageFix" result="effect1_dropShadow_1_856"/>
<feBlend mode="normal" in="SourceGraphic" in2="effect1_dropShadow_1_856" result="shape"/>
</filter>
<filter id="filter7_d_1_856" x="141.773" y="178.106" width="15.5977" height="23.2604" filterUnits="userSpaceOnUse" color-interpolation-filters="sRGB">
<feFlood flood-opacity="0" result="BackgroundImageFix"/>
<feColorMatrix in="SourceAlpha" type="matrix" values="0 0 0 0 0 0 0 0 0 0 0 0 0 0 0 0 0 0 127 0" result="hardAlpha"/>
<feOffset dx="6" dy="6"/>
<feGaussianBlur stdDeviation="2"/>
<feColorMatrix type="matrix" values="0 0 0 0 0.683333 0 0 0 0 0.583111 0 0 0 0 0.3075 0 0 0 1 0"/>
<feBlend mode="normal" in2="BackgroundImageFix" result="effect1_dropShadow_1_856"/>
<feBlend mode="normal" in="SourceGraphic" in2="effect1_dropShadow_1_856" result="shape"/>
</filter>
<filter id="filter8_d_1_856" x="120.5" y="165.178" width="17" height="32" filterUnits="userSpaceOnUse" color-interpolation-filters="sRGB">
<feFlood flood-opacity="0" result="BackgroundImageFix"/>
<feColorMatrix in="SourceAlpha" type="matrix" values="0 0 0 0 0 0 0 0 0 0 0 0 0 0 0 0 0 0 127 0" result="hardAlpha"/>
<feOffset dx="6" dy="6"/>
<feGaussianBlur stdDeviation="2"/>
<feColorMatrix type="matrix" values="0 0 0 0 0.764706 0 0 0 0 0.560784 0 0 0 0 0 0 0 0 1 0"/>
<feBlend mode="normal" in2="BackgroundImageFix" result="effect1_dropShadow_1_856"/>
<feBlend mode="normal" in="SourceGraphic" in2="effect1_dropShadow_1_856" result="shape"/>
</filter>
<filter id="filter9_d_1_856" x="100.9" y="176.832" width="21.751" height="28.9965" filterUnits="userSpaceOnUse" color-interpolation-filters="sRGB">
<feFlood flood-opacity="0" result="BackgroundImageFix"/>
<feColorMatrix in="SourceAlpha" type="matrix" values="0 0 0 0 0 0 0 0 0 0 0 0 0 0 0 0 0 0 127 0" result="hardAlpha"/>
<feOffset dx="6" dy="6"/>
<feGaussianBlur stdDeviation="2"/>
<feColorMatrix type="matrix" values="0 0 0 0 0.921569 0 0 0 0 0.823529 0 0 0 0 0.690196 0 0 0 1 0"/>
<feBlend mode="normal" in2="BackgroundImageFix" result="effect1_dropShadow_1_856"/>
<feBlend mode="normal" in="SourceGraphic" in2="effect1_dropShadow_1_856" result="shape"/>
</filter>
<filter id="filter10_d_1_856" x="109.558" y="7.56641" width="31.3862" height="29.1621" filterUnits="userSpaceOnUse" color-interpolation-filters="sRGB">
<feFlood flood-opacity="0" result="BackgroundImageFix"/>
<feColorMatrix in="SourceAlpha" type="matrix" values="0 0 0 0 0 0 0 0 0 0 0 0 0 0 0 0 0 0 127 0" result="hardAlpha"/>
<feOffset dx="6" dy="6"/>
<feGaussianBlur stdDeviation="2"/>
<feColorMatrix type="matrix" values="0 0 0 0 0.921569 0 0 0 0 0.823529 0 0 0 0 0.690196 0 0 0 1 0"/>
<feBlend mode="normal" in2="BackgroundImageFix" result="effect1_dropShadow_1_856"/>
<feBlend mode="normal" in="SourceGraphic" in2="effect1_dropShadow_1_856" result="shape"/>
</filter>
<filter id="filter11_d_1_856" x="78.4233" y="57.234" width="27.6797" height="19.1545" filterUnits="userSpaceOnUse" color-interpolation-filters="sRGB">
<feFlood flood-opacity="0" result="BackgroundImageFix"/>
<feColorMatrix in="SourceAlpha" type="matrix" values="0 0 0 0 0 0 0 0 0 0 0 0 0 0 0 0 0 0 127 0" result="hardAlpha"/>
<feOffset dx="6" dy="6"/>
<feGaussianBlur stdDeviation="2"/>
<feColorMatrix type="matrix" values="0 0 0 0 0.921569 0 0 0 0 0.823529 0 0 0 0 0.690196 0 0 0 1 0"/>
<feBlend mode="normal" in2="BackgroundImageFix" result="effect1_dropShadow_1_856"/>
<feBlend mode="normal" in="SourceGraphic" in2="effect1_dropShadow_1_856" result="shape"/>
</filter>
<filter id="filter12_d_1_856" x="75.8286" y="57.2341" width="30.645" height="20.6371" filterUnits="userSpaceOnUse" color-interpolation-filters="sRGB">
<feFlood flood-opacity="0" result="BackgroundImageFix"/>
<feColorMatrix in="SourceAlpha" type="matrix" values="0 0 0 0 0 0 0 0 0 0 0 0 0 0 0 0 0 0 127 0" result="hardAlpha"/>
<feOffset dx="6" dy="6"/>
<feGaussianBlur stdDeviation="2"/>
<feColorMatrix type="matrix" values="0 0 0 0 0.921569 0 0 0 0 0.823529 0 0 0 0 0.690196 0 0 0 1 0"/>
<feBlend mode="normal" in2="BackgroundImageFix" result="effect1_dropShadow_1_856"/>
<feBlend mode="normal" in="SourceGraphic" in2="effect1_dropShadow_1_856" result="shape"/>
</filter>
<filter id="filter13_d_1_856" x="55.0718" y="148.045" width="53.9961" height="23.1062" filterUnits="userSpaceOnUse" color-interpolation-filters="sRGB">
<feFlood flood-opacity="0" result="BackgroundImageFix"/>
<feColorMatrix in="SourceAlpha" type="matrix" values="0 0 0 0 0 0 0 0 0 0 0 0 0 0 0 0 0 0 127 0" result="hardAlpha"/>
<feOffset dx="6" dy="6"/>
<feGaussianBlur stdDeviation="2"/>
<feColorMatrix type="matrix" values="0 0 0 0 0.683333 0 0 0 0 0.583111 0 0 0 0 0.3075 0 0 0 1 0"/>
<feBlend mode="normal" in2="BackgroundImageFix" result="effect1_dropShadow_1_856"/>
<feBlend mode="normal" in="SourceGraphic" in2="effect1_dropShadow_1_856" result="shape"/>
</filter>
<filter id="filter14_d_1_856" x="55.4424" y="156.57" width="56.9614" height="22.8611" filterUnits="userSpaceOnUse" color-interpolation-filters="sRGB">
<feFlood flood-opacity="0" result="BackgroundImageFix"/>
<feColorMatrix in="SourceAlpha" type="matrix" values="0 0 0 0 0 0 0 0 0 0 0 0 0 0 0 0 0 0 127 0" result="hardAlpha"/>
<feOffset dx="6" dy="6"/>
<feGaussianBlur stdDeviation="2"/>
<feColorMatrix type="matrix" values="0 0 0 0 0.921569 0 0 0 0 0.823529 0 0 0 0 0.690196 0 0 0 1 0"/>
<feBlend mode="normal" in2="BackgroundImageFix" result="effect1_dropShadow_1_856"/>
<feBlend mode="normal" in="SourceGraphic" in2="effect1_dropShadow_1_856" result="shape"/>
</filter>
<filter id="filter15_d_1_856" x="96.4102" y="152.863" width="16.1455" height="17.6718" filterUnits="userSpaceOnUse" color-interpolation-filters="sRGB">
<feFlood flood-opacity="0" result="BackgroundImageFix"/>
<feColorMatrix in="SourceAlpha" type="matrix" values="0 0 0 0 0 0 0 0 0 0 0 0 0 0 0 0 0 0 127 0" result="hardAlpha"/>
<feOffset dx="6" dy="6"/>
<feGaussianBlur stdDeviation="2"/>
<feColorMatrix type="matrix" values="0 0 0 0 0.921569 0 0 0 0 0.823529 0 0 0 0 0.690196 0 0 0 1 0"/>
<feBlend mode="normal" in2="BackgroundImageFix" result="effect1_dropShadow_1_856"/>
<feBlend mode="normal" in="SourceGraphic" in2="effect1_dropShadow_1_856" result="shape"/>
</filter>
<filter id="filter16_d_1_856" x="120.678" y="65.7592" width="46.0078" height="48.4363" filterUnits="userSpaceOnUse" color-interpolation-filters="sRGB">
<feFlood flood-opacity="0" result="BackgroundImageFix"/>
<feColorMatrix in="SourceAlpha" type="matrix" values="0 0 0 0 0 0 0 0 0 0 0 0 0 0 0 0 0 0 127 0" result="hardAlpha"/>
<feOffset dx="6" dy="6"/>
<feGaussianBlur stdDeviation="2"/>
<feColorMatrix type="matrix" values="0 0 0 0 0.552941 0 0 0 0 0.443137 0 0 0 0 0.317647 0 0 0 0.62 0"/>
<feBlend mode="normal" in2="BackgroundImageFix" result="effect1_dropShadow_1_856"/>
<feBlend mode="normal" in="SourceGraphic" in2="effect1_dropShadow_1_856" result="shape"/>
</filter>
<filter id="filter17_d_1_856" x="150.33" y="87.6279" width="32.0894" height="20.2708" filterUnits="userSpaceOnUse" color-interpolation-filters="sRGB">
<feFlood flood-opacity="0" result="BackgroundImageFix"/>
<feColorMatrix in="SourceAlpha" type="matrix" values="0 0 0 0 0 0 0 0 0 0 0 0 0 0 0 0 0 0 127 0" result="hardAlpha"/>
<feOffset dx="6" dy="6"/>
<feGaussianBlur stdDeviation="2"/>
<feColorMatrix type="matrix" values="0 0 0 0 0.921569 0 0 0 0 0.823529 0 0 0 0 0.690196 0 0 0 1 0"/>
<feBlend mode="normal" in2="BackgroundImageFix" result="effect1_dropShadow_1_856"/>
<feBlend mode="normal" in="SourceGraphic" in2="effect1_dropShadow_1_856" result="shape"/>
</filter>
<filter id="filter18_d_1_856" x="166.639" y="73.1724" width="40.1353" height="33.3275" filterUnits="userSpaceOnUse" color-interpolation-filters="sRGB">
<feFlood flood-opacity="0" result="BackgroundImageFix"/>
<feColorMatrix in="SourceAlpha" type="matrix" values="0 0 0 0 0 0 0 0 0 0 0 0 0 0 0 0 0 0 127 0" result="hardAlpha"/>
<feOffset dx="4" dy="4"/>
<feGaussianBlur stdDeviation="2"/>
<feColorMatrix type="matrix" values="0 0 0 0 0.552941 0 0 0 0 0.443137 0 0 0 0 0.317647 0 0 0 0.79 0"/>
<feBlend mode="normal" in2="BackgroundImageFix" result="effect1_dropShadow_1_856"/>
<feBlend mode="normal" in="SourceGraphic" in2="effect1_dropShadow_1_856" result="shape"/>
</filter>
<filter id="filter19_f_1_856" x="52.1841" y="4.15234" width="152.316" height="195.655" filterUnits="userSpaceOnUse" color-interpolation-filters="sRGB">
<feFlood flood-opacity="0" result="BackgroundImageFix"/>
<feBlend mode="normal" in="SourceGraphic" in2="BackgroundImageFix" result="shape"/>
<feGaussianBlur stdDeviation="2" result="effect1_foregroundBlur_1_856"/>
</filter>
<filter id="filter20_f_1_856" x="100.482" y="39.8087" width="11.3164" height="34.4985" filterUnits="userSpaceOnUse" color-interpolation-filters="sRGB">
<feFlood flood-opacity="0" result="BackgroundImageFix"/>
<feBlend mode="normal" in="SourceGraphic" in2="BackgroundImageFix" result="shape"/>
<feGaussianBlur stdDeviation="2" result="effect1_foregroundBlur_1_856"/>
</filter>
<filter id="filter21_f_1_856" x="99.272" y="29.988" width="15.9658" height="67.8478" filterUnits="userSpaceOnUse" color-interpolation-filters="sRGB">
<feFlood flood-opacity="0" result="BackgroundImageFix"/>
<feBlend mode="normal" in="SourceGraphic" in2="BackgroundImageFix" result="shape"/>
<feGaussianBlur stdDeviation="2" result="effect1_foregroundBlur_1_856"/>
</filter>
<filter id="filter22_f_1_856" x="131.499" y="55.5962" width="33.0645" height="22.0944" filterUnits="userSpaceOnUse" color-interpolation-filters="sRGB">
<feFlood flood-opacity="0" result="BackgroundImageFix"/>
<feBlend mode="normal" in="SourceGraphic" in2="BackgroundImageFix" result="shape"/>
<feGaussianBlur stdDeviation="2" result="effect1_foregroundBlur_1_856"/>
</filter>
<filter id="filter23_f_1_856" x="50.0205" y="51.7952" width="34.4224" height="15.8729" filterUnits="userSpaceOnUse" color-interpolation-filters="sRGB">
<feFlood flood-opacity="0" result="BackgroundImageFix"/>
<feBlend mode="normal" in="SourceGraphic" in2="BackgroundImageFix" result="shape"/>
<feGaussianBlur stdDeviation="2" result="effect1_foregroundBlur_1_856"/>
</filter>
<filter id="filter24_f_1_856" x="93.083" y="144.66" width="10.7373" height="18.4479" filterUnits="userSpaceOnUse" color-interpolation-filters="sRGB">
<feFlood flood-opacity="0" result="BackgroundImageFix"/>
<feBlend mode="normal" in="SourceGraphic" in2="BackgroundImageFix" result="shape"/>
<feGaussianBlur stdDeviation="2" result="effect1_foregroundBlur_1_856"/>
</filter>
<filter id="filter25_f_1_856" x="196.083" y="67.0168" width="21.2393" height="18.8636" filterUnits="userSpaceOnUse" color-interpolation-filters="sRGB">
<feFlood flood-opacity="0" result="BackgroundImageFix"/>
<feBlend mode="normal" in="SourceGraphic" in2="BackgroundImageFix" result="shape"/>
<feGaussianBlur stdDeviation="2" result="effect1_foregroundBlur_1_856"/>
</filter>
<filter id="filter26_f_1_856" x="13.8921" y="213.113" width="203.581" height="13.238" filterUnits="userSpaceOnUse" color-interpolation-filters="sRGB">
<feFlood flood-opacity="0" result="BackgroundImageFix"/>
<feBlend mode="normal" in="SourceGraphic" in2="BackgroundImageFix" result="shape"/>
<feGaussianBlur stdDeviation="2" result="effect1_foregroundBlur_1_856"/>
</filter>
<filter id="filter27_f_1_856" x="164.637" y="212.965" width="78.6543" height="13.0341" filterUnits="userSpaceOnUse" color-interpolation-filters="sRGB">
<feFlood flood-opacity="0" result="BackgroundImageFix"/>
<feBlend mode="normal" in="SourceGraphic" in2="BackgroundImageFix" result="shape"/>
<feGaussianBlur stdDeviation="2" result="effect1_foregroundBlur_1_856"/>
</filter>
<filter id="filter28_f_1_856" x="129.18" y="134.053" width="36.9443" height="66.2363" filterUnits="userSpaceOnUse" color-interpolation-filters="sRGB">
<feFlood flood-opacity="0" result="BackgroundImageFix"/>
<feBlend mode="normal" in="SourceGraphic" in2="BackgroundImageFix" result="shape"/>
<feGaussianBlur stdDeviation="2" result="effect1_foregroundBlur_1_856"/>
</filter>
<filter id="filter29_f_1_856" x="123.376" y="78.9097" width="52.5342" height="27.1394" filterUnits="userSpaceOnUse" color-interpolation-filters="sRGB">
<feFlood flood-opacity="0" result="BackgroundImageFix"/>
<feBlend mode="normal" in="SourceGraphic" in2="BackgroundImageFix" result="shape"/>
<feGaussianBlur stdDeviation="2" result="effect1_foregroundBlur_1_856"/>
</filter>
<filter id="filter30_f_1_856" x="52.2705" y="144.211" width="48.1807" height="26.0574" filterUnits="userSpaceOnUse" color-interpolation-filters="sRGB">
<feFlood flood-opacity="0" result="BackgroundImageFix"/>
<feBlend mode="normal" in="SourceGraphic" in2="BackgroundImageFix" result="shape"/>
<feGaussianBlur stdDeviation="2" result="effect1_foregroundBlur_1_856"/>
</filter>
<linearGradient id="paint0_linear_1_856" x1="115.683" y1="217.613" x2="115.683" y2="221.851" gradientUnits="userSpaceOnUse">
<stop stop-color="white"/>
<stop offset="1" stop-color="white" stop-opacity="0"/>
</linearGradient>
<linearGradient id="paint1_linear_1_856" x1="115.683" y1="217.613" x2="115.683" y2="221.851" gradientUnits="userSpaceOnUse">
<stop stop-color="white"/>
<stop offset="1" stop-color="white" stop-opacity="0"/>
</linearGradient>
<linearGradient id="paint2_linear_1_856" x1="115.683" y1="217.613" x2="115.683" y2="221.851" gradientUnits="userSpaceOnUse">
<stop stop-color="white"/>
<stop offset="1" stop-color="white" stop-opacity="0"/>
</linearGradient>
<linearGradient id="paint3_linear_1_856" x1="115.683" y1="217.613" x2="115.683" y2="221.851" gradientUnits="userSpaceOnUse">
<stop stop-color="white"/>
<stop offset="1" stop-color="white" stop-opacity="0"/>
</linearGradient>
<linearGradient id="paint4_linear_1_856" x1="203.964" y1="217.465" x2="203.964" y2="221.499" gradientUnits="userSpaceOnUse">
<stop stop-color="white"/>
<stop offset="1" stop-color="white" stop-opacity="0"/>
</linearGradient>
<linearGradient id="paint5_linear_1_856" x1="203.964" y1="217.465" x2="203.964" y2="221.499" gradientUnits="userSpaceOnUse">
<stop stop-color="white"/>
<stop offset="1" stop-color="white" stop-opacity="0"/>
</linearGradient>
<linearGradient id="paint6_linear_1_856" x1="203.964" y1="217.465" x2="203.964" y2="221.499" gradientUnits="userSpaceOnUse">
<stop stop-color="white"/>
<stop offset="1" stop-color="white" stop-opacity="0"/>
</linearGradient>
<linearGradient id="paint7_linear_1_856" x1="203.964" y1="217.465" x2="203.964" y2="221.499" gradientUnits="userSpaceOnUse">
<stop stop-color="white"/>
<stop offset="1" stop-color="white" stop-opacity="0"/>
</linearGradient>
</defs>
</svg>
