<svg width="256" height="288" viewBox="0 0 256 288" fill="none" xmlns="http://www.w3.org/2000/svg">
<mask id="path-1-inside-1_302_8309" fill="white">
<path d="M256 238.5C256 251.435 242.907 263.856 219.523 273.105C196.14 282.354 164.323 287.696 130.883 287.987C97.4434 288.279 65.037 283.497 40.5998 274.664C16.1627 265.832 1.6364 253.651 0.129894 240.729L128 238.5H256Z"/>
</mask>
<path d="M256 238.5C256 251.435 242.907 263.856 219.523 273.105C196.14 282.354 164.323 287.696 130.883 287.987C97.4434 288.279 65.037 283.497 40.5998 274.664C16.1627 265.832 1.6364 253.651 0.129894 240.729L128 238.5H256Z" fill="#C38F00" stroke="black" stroke-width="2" mask="url(#path-1-inside-1_302_8309)"/>
<path d="M115.071 53.1691C114.781 54.5098 114.519 55.6072 114.292 56.1156C114.328 55.4534 114.443 54.8135 114.696 54.212C114.766 54.0479 114.898 53.6773 115.071 53.1691C115.884 49.4182 116.917 43.7617 117.997 43.7617C118.114 43.7617 116.001 50.4437 115.071 53.1691Z" fill="#6A5240"/>
<path d="M97.646 237.367C102.78 230.307 105.928 221.697 111.066 215.091C113.51 211.949 114.324 208.738 115.961 205.136C117.558 201.623 120.417 193.963 120.417 190.285C120.417 186.16 120.417 182.035 120.417 177.91C120.417 171.366 117.946 168.2 115.466 162.62C110.797 152.113 103.865 143.35 102.541 131.434C101.993 126.499 98.8318 121.649 98.636 116.364C98.4654 111.757 98.636 107.113 98.636 102.503C98.636 97.3474 100.441 92.9837 100.616 88.0928C100.823 82.3072 103.687 77.6665 104.576 72.0324C104.855 70.2659 107.675 66.2136 108.591 64.5522C110.225 61.591 112.769 59.1666 114.256 56.192C115.112 54.4802 116.511 43.7617 117.997 43.7617C118.136 43.7617 115.136 53.168 114.696 54.212C113.538 56.9641 115.272 60.5203 114.256 63.3422C113.067 66.6467 112.909 68.3431 112.441 72.0874C112.07 75.0614 111.805 77.953 111.506 80.9427C111.329 82.7208 109.526 83.2305 109.526 85.3978C109.526 93.3737 108.536 101.101 108.536 109.158C108.536 118.107 109.117 123.93 114.476 131.434C119.372 138.287 124.635 145.444 129.822 151.784C140.586 164.941 145.161 183.542 149.897 199.526C152.188 207.256 153.644 215.354 156.827 222.516C158.002 225.159 158.675 229.058 160.238 231.206C162.142 233.825 163.961 236.327 164.968 239.347" stroke="black" stroke-linecap="round" stroke-linejoin="round"/>
<path d="M127.347 150.244C129.432 140.743 138.861 141.334 147.147 141.334C156.22 141.334 165.844 142.282 174.868 141.279C178.627 140.862 182.158 139.025 185.978 138.584C188.524 138.29 193.389 139.364 195.603 137.814C198.51 135.78 201.091 133.133 201.544 129.509C202.227 124.046 201.599 118.14 201.599 112.624" stroke="black" stroke-linecap="round" stroke-linejoin="round"/>
<path d="M125.367 143.315C129.673 140.183 135.328 138.364 140.712 138.364C145.706 138.364 154.077 134.341 154.077 128.959C154.077 126.114 151.268 121.796 149.127 120.324C146.242 118.34 147.147 109.937 147.147 106.684" stroke="black" stroke-linecap="round" stroke-linejoin="round"/>
<path d="M152.097 107.673C152.097 112.31 151.049 117.955 153.857 120.764C155.158 122.064 155.79 123.691 157.542 125.054C159.595 126.651 160.018 127.303 160.018 129.949C160.018 134.291 166.239 135.53 168.433 131.874C170.937 127.7 171.898 127.657 171.898 122.524" stroke="black" stroke-linecap="round" stroke-linejoin="round"/>
<path d="M175.858 122.524C173.299 129.08 172.294 133.97 178.883 137.814C183.432 140.468 189.598 136.504 192.688 133.414C193.96 132.142 193.678 130.561 193.678 128.904C193.678 126.454 195.658 125.275 195.658 123.019C195.658 119.585 196.648 116.261 196.648 112.624" stroke="black" stroke-linecap="round" stroke-linejoin="round"/>
<path d="M110.516 215.586C107.525 213.386 103.586 212.232 103.586 208.216C103.586 205.191 103.586 202.166 103.586 199.141C103.586 192.696 101.88 186.266 100.616 179.945" stroke="black" stroke-linecap="round" stroke-linejoin="round"/>
<path d="M108.536 215.586C99.0771 208.631 87.9079 205.459 75.8654 205.686C69.0349 205.815 60.4576 209.331 56.1749 201.836C54.71 199.272 53.0948 196.843 53.0948 193.806" stroke="black" stroke-linecap="round" stroke-linejoin="round"/>
<path d="M56.0649 193.806C61.546 198.088 63.754 199.746 70.6953 199.746C74.8938 199.746 79.0922 199.746 83.2906 199.746C88.9298 199.746 89.7319 198.296 94.1259 195.786C97.047 194.116 92.3848 185.546 95.6659 183.905" stroke="black" stroke-linecap="round" stroke-linejoin="round"/>
<path d="M97.6459 110.644C89.5191 108.902 74.8754 107.741 74.8754 96.7832" stroke="black" stroke-linecap="round" stroke-linejoin="round"/>
<path d="M77.8455 94.8032C80.2898 105.939 90.1842 102.313 98.636 105.693" stroke="black" stroke-linecap="round" stroke-linejoin="round"/>
<path d="M106.556 67.0824C102.11 62.6363 98.5294 58.6627 95.1159 53.442C92.9483 50.1268 92.8512 46.5249 90.7158 43.3218" stroke="black" stroke-linecap="round" stroke-linejoin="round"/>
<path d="M106.556 65.1023C100.805 60.9196 98.636 62.9295 98.636 55.422C98.636 51.8124 96.5972 48.1837 94.6759 45.3018" stroke="black" stroke-linecap="round" stroke-linejoin="round"/>
<path d="M114.476 65.1021C119.412 61.2244 125.024 57.7763 130.867 55.4219C134.638 53.902 134.277 52.8422 134.277 49.2617" stroke="black" stroke-linecap="round" stroke-linejoin="round"/>
<path d="M116.456 62.1324C118.013 56.1901 128.177 48.3254 134.277 46.292" stroke="black" stroke-linecap="round" stroke-linejoin="round"/>
<path d="M171.5 92C171.5 95.6303 169.134 98.9936 165.146 101.475C161.165 103.952 155.635 105.5 149.5 105.5C143.365 105.5 137.835 103.952 133.854 101.475C129.866 98.9936 127.5 95.6303 127.5 92C127.5 88.3697 129.866 85.0064 133.854 82.525C137.835 80.0483 143.365 78.5 149.5 78.5C155.635 78.5 161.165 80.0483 165.146 82.525C169.134 85.0064 171.5 88.3697 171.5 92Z" fill="#587052" stroke="black"/>
<path d="M222.5 104C222.5 106.249 221.03 108.362 218.489 109.939C215.956 111.511 212.426 112.5 208.5 112.5C204.574 112.5 201.044 111.511 198.511 109.939C195.97 108.362 194.5 106.249 194.5 104C194.5 101.751 195.97 99.6377 198.511 98.0609C201.044 96.4887 204.574 95.5 208.5 95.5C212.426 95.5 215.956 96.4887 218.489 98.0609C221.03 99.6377 222.5 101.751 222.5 104Z" fill="#587052" stroke="black"/>
<path d="M193.5 114C193.5 119.724 187.985 124.5 181 124.5C174.015 124.5 168.5 119.724 168.5 114C168.5 108.276 174.015 103.5 181 103.5C187.985 103.5 193.5 108.276 193.5 114Z" fill="#587052" stroke="black"/>
<path d="M74.5 177.5C74.5 181.277 72.1239 184.765 68.1391 187.333C64.1595 189.897 58.6316 191.5 52.5 191.5C46.3684 191.5 40.8405 189.897 36.8609 187.333C32.8761 184.765 30.5 181.277 30.5 177.5C30.5 173.723 32.8761 170.235 36.8609 167.667C40.8405 165.103 46.3684 163.5 52.5 163.5C58.6316 163.5 64.1595 165.103 68.1391 167.667C72.1239 170.235 74.5 173.723 74.5 177.5Z" fill="#587052" stroke="black"/>
<path d="M108.5 169.5C108.5 174.811 107.229 179.595 105.201 183.035C103.166 186.485 100.427 188.5 97.5 188.5C94.5733 188.5 91.834 186.485 89.799 183.035C87.7706 179.595 86.5 174.811 86.5 169.5C86.5 164.189 87.7706 159.405 89.799 155.965C91.834 152.515 94.5733 150.5 97.5 150.5C100.427 150.5 103.166 152.515 105.201 155.965C107.229 159.405 108.5 164.189 108.5 169.5Z" fill="#587052" stroke="black"/>
<path d="M98.5 88C98.5 89.4846 97.7875 90.9429 96.4076 92.3166C95.0257 93.6922 93.0008 94.954 90.4585 96.0245C85.3761 98.1644 78.32 99.5 70.5 99.5C62.68 99.5 55.6239 98.1644 50.5415 96.0245C47.9992 94.954 45.9743 93.6922 44.5924 92.3166C43.2125 90.9429 42.5 89.4846 42.5 88C42.5 86.5154 43.2125 85.0571 44.5924 83.6834C45.9743 82.3078 47.9992 81.046 50.5415 79.9755C55.6239 77.8356 62.68 76.5 70.5 76.5C78.32 76.5 85.3761 77.8356 90.4585 79.9755C93.0008 81.046 95.0257 82.3078 96.4076 83.6834C97.7875 85.0571 98.5 86.5154 98.5 88Z" fill="#587052" stroke="black"/>
<g filter="url(#filter0_d_302_8309)">
<ellipse cx="110.5" cy="24.5" rx="63.5" ry="24.5" fill="#587052"/>
<path d="M173.5 24.5C173.5 27.694 171.824 30.7925 168.673 33.6671C165.521 36.5419 160.933 39.1538 155.221 41.3576C143.801 45.764 127.99 48.5 110.5 48.5C93.0104 48.5 77.1992 45.764 65.7787 41.3576C60.0668 39.1538 55.4786 36.5419 52.3271 33.6671C49.1758 30.7925 47.5 27.694 47.5 24.5C47.5 21.306 49.1758 18.2075 52.3271 15.3329C55.4786 12.4581 60.0668 9.84618 65.7787 7.64237C77.1992 3.23602 93.0104 0.5 110.5 0.5C127.99 0.5 143.801 3.23602 155.221 7.64237C160.933 9.84618 165.521 12.4581 168.673 15.3329C171.824 18.2075 173.5 21.306 173.5 24.5Z" stroke="black"/>
</g>
<line x1="14.9978" y1="258.5" x2="242.998" y2="257.491" stroke="black"/>
<line x1="22" y1="264.5" x2="235" y2="264.5" stroke="black"/>
<g filter="url(#filter1_d_302_8309)">
<path d="M132.136 208.097C132.136 201.901 130.242 196.771 129.702 190.831C129.504 188.651 129.639 186.879 129.014 184.769C128.403 182.708 128.83 180.1 128.83 177.973C128.83 173.581 126.968 169.409 125.937 165.161C125.168 161.995 124 158.977 123.182 155.839C122.901 154.765 123.437 153.16 122.677 152.258C121.124 150.414 119.79 148.793 118.452 146.564C115.204 141.151 111.472 138.758 111.472 132.053" stroke="#6A5240" stroke-opacity="0.64" stroke-linecap="round" stroke-linejoin="round"/>
</g>
<g filter="url(#filter2_d_302_8309)">
<path d="M155.189 237.289C152.44 236.035 150.661 233.117 149.956 230.246C149.531 228.513 148.893 226.661 148.636 224.891C148.423 223.426 148.343 221.917 148.049 220.465C147.581 218.153 146.703 215.935 146.068 213.667C145.347 211.092 145.211 208.367 144.846 205.72C144.624 204.113 144.443 202.372 143.941 200.83C143.246 198.695 142.947 196.49 142.327 194.374C141.555 191.741 140.859 189.238 140.224 186.598C139.462 183.429 137.982 180.452 137.143 177.306C136.822 176.102 136.124 174.857 135.615 173.712C135.19 172.756 135.13 171.669 134.6 170.802C134.057 169.914 133.131 168.749 132.864 167.757C132.718 167.217 132.301 166.704 132.301 166.205" stroke="#6A5240" stroke-opacity="0.44" stroke-linecap="round" stroke-linejoin="round"/>
</g>
<g filter="url(#filter3_d_302_8309)">
<path d="M106.552 238.169C107.729 235.903 109.36 233.868 110.636 231.665C111.631 229.946 112.633 228.236 113.595 226.505C115.574 222.942 117.551 219.487 118.437 215.501C118.738 214.146 119.487 212.858 119.745 211.442C119.886 210.665 120.12 210.034 120.368 209.29C120.517 208.845 120.857 207.989 120.857 207.566C120.857 205.894 122.337 204.336 122.606 202.725C122.894 200.996 123.058 199.422 123.058 197.59C123.058 194.526 123.938 191.577 123.938 188.481C123.938 184.713 124.211 181.37 123.498 177.6C123.052 175.237 122.599 173.123 121.738 170.875C121.096 169.201 120.714 167.48 119.879 165.887C118.956 164.125 117.979 162.428 117.067 160.703C116.185 159.033 114.148 156.901 114.035 154.981C114.001 154.402 113.346 153.087 113.02 152.536C112.582 151.794 112.212 150.737 111.614 150.139" stroke="#6A5240" stroke-opacity="0.44" stroke-linecap="round" stroke-linejoin="round"/>
</g>
<g filter="url(#filter4_d_302_8309)">
<path d="M145.506 238.169C144.268 236.553 143.545 234.842 142.743 232.985C141.847 230.912 141.418 228.947 140.762 226.823C139.517 222.797 138.993 218.404 138.586 214.218C138.075 208.969 138.068 203.578 137.094 198.384C136.903 197.367 136.776 196.301 136.715 195.267C136.661 194.352 136.275 193.645 136.153 192.76C135.794 190.18 136.167 187.491 135.798 184.911C135.252 181.09 134.923 177.324 133.61 173.602C133.332 172.815 131.656 172.626 131.641 172.049C131.585 169.861 131.772 167.705 131.372 165.544C130.878 162.878 131.065 159.547 129.88 157.059C128.667 154.512 127.854 151.682 126.359 149.308C125.642 148.168 124.618 146.789 123.596 145.884C120.853 143.457 119.024 140.071 116.016 137.815" stroke="#6A5240" stroke-opacity="0.44" stroke-linecap="round" stroke-linejoin="round"/>
</g>
<g filter="url(#filter5_d_302_8309)">
<path d="M109.693 142.481C108.841 138.821 105.794 134.936 105.794 131.074C105.794 128.606 103.264 125.985 103.194 123.637C103.016 117.582 100.595 112.209 100.595 106.237C100.595 99.7966 100.334 94.0382 102.039 87.8976C102.525 86.1504 103.703 84.9585 104.494 83.4211C105.408 81.6441 105.436 79.7671 106.227 78.0421C107.809 74.5902 108.801 71.9683 109.693 68.4033" stroke="#6A5240" stroke-opacity="0.44" stroke-linecap="round" stroke-linejoin="round"/>
</g>
<g filter="url(#filter6_d_302_8309)">
<path d="M132.41 237.911C131.635 235.509 130.675 233.29 130.166 230.802C129.991 229.949 130.233 228.71 129.869 227.937C129.17 226.452 129.247 224.247 129.247 222.584" stroke="#6A5240" stroke-opacity="0.44" stroke-linecap="round" stroke-linejoin="round"/>
</g>
<g filter="url(#filter7_d_302_8309)">
<path d="M94.4641 49.6621C94.4641 54.0876 97.1567 55.7839 99.1557 59.2821C101.509 63.3997 105.399 65.8616 109.534 67.7411C111.279 68.5343 106.368 65.5759 104.724 64.5897C103.102 63.6164 101.884 62.0141 100.696 60.5616C99.5626 59.1765 98.0019 57.021 97.2127 55.3962C96.0782 53.0605 96.1083 50.0112 94.4641 47.9561" stroke="#6A5240" stroke-opacity="0.44" stroke-linecap="round" stroke-linejoin="round"/>
</g>
<g filter="url(#filter8_d_302_8309)">
<path d="M146.87 233.188C143.311 230.384 142.273 225.317 142.273 220.928" stroke="#6A5240" stroke-opacity="0.44" stroke-linecap="round" stroke-linejoin="round"/>
</g>
<g filter="url(#filter9_d_302_8309)">
<path d="M121 229C124.819 224.14 127 214.716 127 208" stroke="#6A5240" stroke-opacity="0.57" stroke-linecap="round" stroke-linejoin="round"/>
</g>
<g filter="url(#filter10_d_302_8309)">
<path d="M101.401 237.65C101.749 236.461 102.161 235.648 102.686 234.598C103.027 233.916 103.277 232.844 103.738 232.274C104.436 231.411 104.861 230.348 105.607 229.495C106.274 228.733 107.072 228.135 107.581 227.262C108.454 225.765 109.86 224.765 110.516 223.107C110.938 222.039 112.152 220.788 112.152 219.653" stroke="#8D7151" stroke-opacity="0.62" stroke-linecap="round" stroke-linejoin="round"/>
</g>
<g filter="url(#filter11_d_302_8309)">
<path d="M130.444 50.3882C128.4 52.9046 124.188 53.376 122.372 55.948C121.709 56.887 119.963 57.7335 119.036 58.625C118.269 59.3631 117.581 60.1095 116.812 60.8489C115.414 62.1936 114.145 63.6877 112.859 65.0497C111.915 66.0489 111.258 67.7507 110.058 68.5503" stroke="#8D7151" stroke-opacity="0.62" stroke-linecap="round" stroke-linejoin="round"/>
</g>
<g filter="url(#filter12_d_302_8309)">
<path d="M78.9232 100.056C80.1736 102.998 82.0939 103.876 84.9361 104.668C87.4938 105.381 89.8051 106.297 92.4727 106.645C93.9526 106.838 94.732 106.904 95.6027 108.21" stroke="#6A5240" stroke-linecap="round" stroke-linejoin="round"/>
</g>
<g filter="url(#filter13_d_302_8309)">
<path d="M76.3286 100.056C77.5165 101.318 77.625 102.434 79.0879 103.186C80.6296 103.977 81.7038 104.898 83.3711 105.327C85.1025 105.772 86.5177 106.957 88.3131 107.386C90.8883 108.002 93.3666 109.113 95.9733 109.693" stroke="#8D7151" stroke-opacity="0.62" stroke-linecap="round" stroke-linejoin="round"/>
</g>
<g filter="url(#filter14_d_302_8309)">
<path d="M55.572 194.573C61.9683 204.07 75.886 203.163 86.3363 202.727C89.554 202.593 93.8863 201.102 95.5203 198.279C96.1407 197.208 95.9587 195.68 96.797 194.655C97.6858 193.569 98.568 192.321 98.568 190.866" stroke="#8D7151" stroke-opacity="0.62" stroke-linecap="round" stroke-linejoin="round"/>
</g>
<g filter="url(#filter15_d_302_8309)">
<path d="M55.9426 199.392C56.6997 202.84 59.425 201.975 62.2438 202.377C63.5488 202.564 64.4693 203.098 65.9297 203.098C67.4261 203.098 68.9224 203.098 70.4188 203.098C75.1442 203.098 79.8823 202.998 84.6066 203.098C88.0841 203.172 92.245 204.276 95.438 205.487C96.9092 206.045 99.0793 206.475 99.7623 207.917C100.271 208.991 101.063 210.411 101.904 211.253" stroke="#8D7151" stroke-opacity="0.62" stroke-linecap="round" stroke-linejoin="round"/>
</g>
<g filter="url(#filter16_d_302_8309)">
<path d="M101.163 195.685C100.356 196.296 95.0143 202.357 97.6207 202.357C99.1838 202.357 100.159 201.926 101.533 201.163C102.426 200.667 101.904 197.343 101.904 196.426" stroke="#8D7151" stroke-opacity="0.62" stroke-linecap="round" stroke-linejoin="round"/>
</g>
<g filter="url(#filter17_d_302_8309)">
<path d="M147.865 108.581C148.101 109.998 146.988 114.692 148.236 115.706C149.085 116.396 149.465 118.096 150.46 118.98C151.21 119.647 152.481 121.041 152.972 121.925C154.605 124.864 157.918 129.2 155.072 132.859C153.597 134.755 151.153 136.96 148.977 138.048C143.742 140.666 137.009 139.345 131.186 139.345C128.033 139.345 125.953 139.967 123.628 141.775C122.627 142.554 122.197 144.999 121.178 146.017" stroke="#684011" stroke-opacity="0.62" stroke-linecap="round" stroke-linejoin="round"/>
</g>
<g filter="url(#filter18_d_302_8309)">
<path d="M156.761 130.45C156.865 134.707 159.851 137.121 163.968 137.121C164.998 137.121 166.027 137.121 167.057 137.121C168.266 137.121 168.602 136.48 169.651 136.092C170.965 135.605 170.573 135.391 170.928 134.239C171.024 133.927 171.571 132.097 171.875 132.097C172.182 132.097 170.805 135.986 170.66 136.195C169.422 137.983 166.366 138.619 164.359 139.14C161.786 139.807 159.263 139.716 156.596 139.716C154.854 139.716 154.138 139.651 152.848 138.398C152.277 137.843 151.64 137.121 150.83 137.121" stroke="#EBD2B0" stroke-linecap="round" stroke-linejoin="round"/>
</g>
<g filter="url(#filter19_d_302_8309)">
<path d="M198.274 115.994C198.274 119.895 197.533 123.222 197.533 127.134C197.533 129.078 196.396 130.606 195.474 132.221C194.692 133.589 194.666 135.398 193.456 136.751C190.038 140.571 184.851 140.087 180.153 140.087C178.566 140.087 175.652 140.666 174.182 140.004C172.842 139.401 172.356 139.025 171.422 137.863C170.221 136.367 168.801 135.933 167.139 135.268" stroke="#8D7151" stroke-opacity="0.62" stroke-linecap="round" stroke-linejoin="round"/>
</g>
<g filter="url(#filter20_f_302_8309)">
<path d="M141.564 230.156C139.947 225.468 137.741 220.563 137.466 215.618C137.176 210.404 136.009 204.566 134.727 199.515C133.713 195.516 133.042 191.245 131.742 187.345C130.652 184.076 130.312 180.637 129.147 177.399C128.645 176.006 128.308 173.742 127.561 172.622C127.342 172.293 127.488 171.679 127.397 171.304C127.19 170.461 126.552 169.758 126.161 168.998C125.388 167.496 125.108 166.005 124.514 164.468C123.894 162.864 122.915 161.077 122.105 159.546C121.108 157.663 120.729 154.811 119.325 153.266C118.79 152.678 118.902 151.834 118.501 151.124C117.343 149.076 115.769 147.312 114.671 145.235C112.864 141.816 110.627 138.498 109.235 134.877C107.956 131.552 106.954 128.158 105.569 124.808C104.682 122.661 103.815 119.6 103.757 117.271C103.715 115.573 103.162 114.014 102.851 112.37C102.445 110.224 102.645 107.914 102.645 105.739C102.645 102.673 102.509 99.5764 102.666 96.5142C102.994 90.1077 104.57 83.5274 106.187 77.3637C107.401 72.7355 108.685 67.9868 108.946 63.1553C109.019 61.8072 109.069 59.2437 109.688 58.1308C110.443 56.7718 110.058 55.9179 110.058 58.3779C110.058 60.5768 108.99 61.9813 108.596 64.0819C107.249 71.2668 103.93 77.7597 102.645 84.9415C102.213 87.3584 102.069 89.5285 101.883 91.9428C101.618 95.3904 100.421 98.5655 100.421 102.053C100.421 109.02 100.421 115.987 100.421 122.954C100.421 127.561 100.376 131.783 101.513 136.257C102.275 139.258 103.34 141.969 104.334 144.885C105.009 146.866 106.594 148.227 107.587 150.033C109.661 153.804 112.023 157.34 114.794 160.679C116.787 163.079 119.063 165.135 120.89 167.68C122.94 170.537 125.417 173.231 126.552 176.638C128.998 183.973 127.85 192.257 127.85 199.906C127.85 205.398 128.371 211.323 127.685 216.771C127.401 219.029 127.453 222.78 126.552 224.761C124.793 228.631 123.659 233.726 120.519 236.745C119.334 237.885 118.109 237.569 116.483 237.569C113.556 237.569 111.541 237.012 111.541 233.801C111.541 232.128 111.17 229.864 111.912 228.303C113.436 225.093 115.713 222.833 117.554 219.901C121.354 213.849 124.884 207.601 124.884 200.339C124.884 198.773 123.071 202.391 122.743 202.851C122.052 203.818 121.398 204.592 120.807 205.61C118.408 209.743 116.954 214.459 114.424 218.583C112.733 221.339 111.511 224.362 109.873 227.211C108.705 229.242 107.464 231.087 106.002 232.915C105.528 233.507 104.683 235.565 104.746 234.81C104.834 233.748 105.836 232.205 106.269 231.391C107.882 228.362 109.572 225.366 111.253 222.372C113.279 218.761 114.905 215.081 116.648 211.335C118.904 206.486 121.163 202.015 122.496 196.756C123.298 193.593 123.639 190.299 123.937 187.057C124.666 179.145 124.993 171.017 124.884 163.067C124.796 156.619 123.281 149.687 120.107 144.02C119.856 143.572 119.365 141.81 119.407 141.878C120.572 143.772 122.276 145.413 123.649 147.17C126.933 151.374 130.822 155.259 133.039 160.185C136.375 167.597 139.41 175.779 140.823 183.783C142.926 195.702 144.352 207.512 144.879 219.633C145.112 224.997 148.603 231.244 152.272 235.222C153.185 236.212 156.711 239.522 154.66 236.148C152.712 232.943 151.006 229.546 149.183 226.264C145.652 219.908 143.847 212.518 142.12 205.507C139.677 195.593 135.473 185.971 131.35 176.658C127.408 167.754 123.861 158.74 120.437 149.641C115.074 135.394 105.61 121.809 105.61 106.151C105.61 96.2122 105.61 86.2732 105.61 76.3341C105.61 70.301 110.194 63.8097 114.918 60.1488C119.114 56.8966 123.995 53.1682 129.229 51.9121C129.854 51.7622 133.347 50.2963 131.309 51.3561C129.746 52.1688 128.488 53.4149 127.088 54.4655C124.163 56.6591 120.328 58.2806 117.76 60.849C115.362 63.2462 112.996 65.2594 110.141 67.0677C109.067 67.748 107.781 68.5507 106.558 68.9004C105.225 69.2811 105.446 69.2529 105.013 67.9532C104.115 65.2571 102.534 63.0372 101.986 60.19C101.64 58.3918 99.9653 56.8028 98.7121 55.5774C97.0273 53.9301 92.8845 50.4852 95.6027 55.145C97.1316 57.766 98.9013 59.6091 100.792 61.9197C102.141 63.5686 102.282 65.047 104.128 66.2441C106.05 67.491 110.627 66.7233 111.706 64.6791C112.942 62.3371 112.431 59.26 113.6 56.71C114.238 55.319 114.585 54.0148 115.083 52.5916C115.18 52.3146 115.717 50.9468 115.495 52.2827C115.058 54.9039 114.211 57.4893 113.435 60.0253C110.76 68.7702 108.032 77.457 104.869 86.0535C103.641 89.3907 102.77 92.6324 102.11 96.123C101.817 97.6695 101.203 99.132 101.163 100.715C101.12 102.384 101.488 104.357 101.08 105.987C100.959 106.473 100.273 107.433 99.9682 107.84C99.6308 108.29 98.6229 107.577 98.3208 107.469C96.373 106.775 94.2688 106.76 92.2256 106.728C90.3555 106.698 90.8196 106.559 89.6104 105.41C86.6901 102.636 82.998 100.551 79.6027 98.4293C77.5212 97.1283 83.0981 101.959 85.2243 103.186C87.8147 104.68 90.3491 105.914 93.3788 105.987C96.1574 106.053 95.3463 106.987 96.4675 109.281C97.5995 111.597 99.0333 113.744 100.051 116.118C103.097 123.226 106.957 129.945 109.152 137.41C110.614 142.38 111.203 147.445 113.374 152.112C114.134 153.747 114.858 155.317 115.742 156.89C116.956 159.052 118.652 158.112 120.601 156.89C121.82 156.126 124.143 155.026 124.143 153.348C124.143 151.132 124.399 149.731 125.626 147.788C127.855 144.259 130.641 142.436 134.769 141.796C136.433 141.538 137.763 141.55 139.319 140.972C143.514 139.414 147.94 138.73 152.375 138.275C153.931 138.115 154.537 138.203 155.402 137.266C156.474 136.104 159.416 135.458 159.726 133.703C160.11 131.525 159.133 129.181 158.408 127.196C157.047 123.472 155.47 120.321 153.137 117.024C151.102 114.148 148.784 111.517 146.712 108.705C146.345 108.207 145.069 105.213 145.353 107.263C145.598 109.031 146.489 110.854 147.33 112.411C148.422 114.435 148.984 116.644 149.76 118.795C150.533 120.939 151.757 122.892 152.478 125.055C153.487 128.083 155.102 130.619 156.349 133.559C156.775 134.563 156.787 135.459 158.079 135.557C160.108 135.709 169.375 136.116 170.022 133.621C170.592 131.423 172.047 124.766 171.587 126.99C170.805 130.769 170.183 135.721 168.086 139.016C167.249 140.332 165.759 141.549 164.627 142.578C163.938 143.205 164.1 143.107 165.286 142.949C168.534 142.516 171.77 141.914 174.985 141.281C177.401 140.806 179.605 139.514 181.986 138.872C186.509 137.651 190.697 135.136 195.227 134.156C196.556 133.869 198.249 131.27 198.933 130.161C199.84 128.692 199.757 127.089 199.757 125.425C199.757 122.74 200.579 118.66 199.201 116.18C198.911 115.658 198.939 118.26 198.81 118.795C198.391 120.53 198.061 122.276 197.698 124.025C197.027 127.255 196.064 132.124 193.62 134.568C190.032 138.156 183.485 136.805 179 137.204C174.662 137.59 170.324 137.492 165.965 137.492C163.995 137.492 161.975 137.516 160.035 137.904C157.879 138.335 155.515 138.247 153.425 138.81C148.751 140.068 143.876 140.796 139.134 141.734C135.656 142.422 133.375 144.294 131 146.82C127.794 150.231 126.117 152.575 125.708 157.302C125.246 162.645 125.264 168.701 126.367 173.94C128.474 183.948 128.22 194.209 128.22 204.375C128.22 206.84 127.45 206.908 125.79 208.411C123.761 210.249 122.194 213.106 119.242 213.106C116.586 213.106 113.93 213.106 111.273 213.106C109.526 213.106 108.38 212.347 106.764 211.644C106.139 211.372 104.019 210.84 103.695 210.161C102.764 208.206 101.229 206.342 100.442 204.375C99.1716 201.199 98.1778 197.914 97.2912 194.614C96.993 193.504 95.9733 192.338 95.9733 191.196C95.9733 189.982 96.4441 193.579 96.6323 194.779C96.9851 197.028 97.3169 200.598 94.9026 201.719C93.0039 202.6 89.9961 201.986 88.0043 201.986C85.142 201.986 82.2797 201.986 79.4174 201.986C76.4309 201.986 73.7858 202.186 71.0983 200.709C67.2855 198.615 63.8791 196.117 59.8139 194.45C58.658 193.975 57.7302 193.348 56.6839 192.72" stroke="#BF6E12" stroke-opacity="0.62" stroke-linecap="round" stroke-linejoin="round"/>
</g>
<g filter="url(#filter21_f_302_8309)">
<path d="M107.299 86.6309C104.14 94.7242 105.128 103.539 105.128 112.129" stroke="#BF6E12" stroke-opacity="0.62" stroke-linecap="round" stroke-linejoin="round"/>
</g>
<g filter="url(#filter22_f_302_8309)">
<path d="M106.766 86.7379C105.714 93.9072 104.781 100.849 104.781 108.084C104.781 110.391 104.781 105.886 104.781 105.464C104.781 102.908 104.781 100.353 104.781 97.797C104.781 95.6918 104.781 93.5866 104.781 91.4814C104.781 89.7936 104.526 88.0547 105.222 86.4897C105.921 84.9173 106.716 83.3594 107.484 81.8013C107.915 80.9254 108.103 80.3427 108.27 79.4295C108.348 78.9975 108.752 78.8646 108.752 78.3678C108.752 77.3119 108.747 80.4981 108.504 81.5255C108.087 83.2876 107.401 84.9795 106.877 86.7103C106.226 88.8615 106.096 91.18 105.512 93.3706C104.147 98.4882 103.951 103.381 104.036 108.635C104.109 113.137 106.366 117.77 108.008 121.873C108.725 123.667 109.582 126.055 109.731 127.996C109.843 129.454 109.871 130.816 110.131 132.27C110.308 133.26 110.738 134.386 110.738 135.387C110.738 136.701 109.947 132.868 109.759 131.567C109.244 128.014 108.305 124.643 107.428 121.17C106.304 116.717 105.774 111.635 105.774 107.036C105.774 100.741 106.04 94.3509 105.539 88.0893C105.405 86.4129 105.525 84.6828 105.525 83.001C105.525 80.9447 105.277 87.1086 105.277 89.1648C105.277 94.3496 105.277 99.5344 105.277 104.719C105.277 108.083 105.467 110.996 106.077 114.289C106.34 115.711 106.27 113.168 106.27 112.855C106.27 110.632 105.841 108.433 105.787 106.208C105.672 101.438 105.352 96.6417 105.539 91.8675C105.655 88.9138 106.051 85.3046 107.318 82.6287C107.822 81.5644 108.666 80.6913 109.442 79.8294C109.791 79.4417 110.223 78.7738 109.745 79.7605C108.479 82.3711 107.528 85.1992 106.766 87.9927C106.166 90.1951 105.33 92.3193 105.277 94.6254C105.23 96.6866 104.911 98.4674 104.56 100.5C104.108 103.117 104.305 105.802 104.036 108.442C104.006 108.734 103.803 110.649 103.788 109.104C103.773 107.56 103.788 106.015 103.788 104.471C103.788 100.757 103.788 97.0432 103.788 93.3292C103.788 90.9207 103.788 88.5121 103.788 86.1036C103.788 84.9249 103.68 83.6871 104.036 82.5459C104.736 80.3079 106.045 78.524 107.759 76.8096" stroke="#BF6E12" stroke-opacity="0.62" stroke-linecap="round" stroke-linejoin="round"/>
</g>
<g filter="url(#filter23_f_302_8309)">
<path d="M149.955 106.595C149.659 108.404 148.989 109.994 148.521 111.752C148.339 112.434 148.217 113.32 148.217 114.027C148.217 114.905 148.217 112.414 148.217 112.042C148.217 109.797 150.093 103.33 150.093 105.575C150.093 107.047 149.184 108.581 148.989 110.042C148.771 111.679 148.962 113.454 148.962 115.103C148.962 115.513 149.01 115.719 148.796 115.213C148.41 114.299 147.873 113.434 147.417 112.552C146.677 111.119 145.861 109.699 144.715 108.553C143.879 107.717 142.984 107.002 142.122 106.236C141.298 105.503 143.398 108.04 144.108 108.884C145.206 110.189 146.77 111.099 147.569 112.635C148.041 113.543 147.549 113.122 147.031 112.524C146.142 111.497 145.398 110.107 144.246 109.339C143.09 108.568 141.212 108.41 139.888 108.084C138.461 107.732 138.968 107.839 138.427 106.843C137.913 105.897 137.149 105.947 136.8 104.83C136.611 104.227 135.437 101.055 136.331 103.092C137.011 104.643 138.111 105.859 139.199 107.119C140.894 109.082 143.22 109.317 145.335 110.456C145.968 110.797 147.027 111.979 147.417 112.552C148.183 113.674 148.098 114.267 149.183 113.076C150.918 111.17 152.837 109.393 155.195 108.305C156.502 107.702 159.163 106.441 159.635 104.968C159.726 104.682 160.147 103.979 160.049 103.685C159.927 103.321 157.657 104.723 157.484 104.802C154.327 106.239 150.831 107.269 147.555 108.429C147.428 108.474 145.379 109.227 145.487 109.573C145.815 110.622 151.604 109.581 152.492 109.325C154.061 108.873 154.989 108.431 156.284 107.45C156.649 107.173 157.272 106.301 157.732 106.209C158.266 106.102 156.76 106.717 156.339 107.064C155.206 107.997 153.894 108.704 152.657 109.491C152.072 109.863 148.649 112.589 149.458 110.566" stroke="#BF6E12" stroke-opacity="0.62" stroke-linecap="round" stroke-linejoin="round"/>
</g>
<g filter="url(#filter24_f_302_8309)">
<path d="M78.9671 104.361C77.6424 105.931 75.0939 105.431 73.2032 105.354C72.2545 105.315 70.2928 105.252 69.48 104.747C66.5584 102.934 63.0323 102.166 59.7585 100.997C58.4373 100.525 57.0848 100.148 55.7596 99.6867C54.9893 99.4188 54.8385 99.4849 55.4425 100.169C56.4463 101.307 57.4199 101.565 58.7519 102.127C60.5686 102.895 62.5994 102.804 64.5159 103.12C66.6991 103.48 68.8993 103.741 71.1072 103.879C73.9451 104.056 76.7406 104.361 79.5876 104.361C81.3578 104.361 76.017 104.572 74.2787 104.237C71.3494 103.674 68.4897 103.028 65.5639 102.431C64.156 102.144 62.7195 102.089 61.3167 101.824C59.9769 101.571 58.6513 100.66 57.4557 100.059C57.0044 99.8322 55.1647 98.504 54.56 98.625C54.1233 98.7123 57.4303 101.91 57.5936 102.031C59.7725 103.639 62.207 104.203 64.7089 105.078C65.5733 105.381 66.2055 105.445 67.0531 105.106" stroke="#BF6E12" stroke-opacity="0.62" stroke-linecap="round" stroke-linejoin="round"/>
</g>
<g filter="url(#filter25_f_302_8309)">
<path d="M97.5828 191.482C98.0808 193.709 98.5756 195.304 98.5756 197.55C98.5756 197.807 98.4224 200.883 98.6032 200.928C98.9207 201.008 99.2824 198.276 99.3202 197.936" stroke="#BF6E12" stroke-opacity="0.62" stroke-linecap="round" stroke-linejoin="round"/>
</g>
<g filter="url(#filter26_f_302_8309)">
<path d="M212.822 114.479C211.153 116.551 209.204 118.651 207.277 120.487C206.457 121.267 205.016 120.98 204.016 121.668C203.113 122.288 202.125 122.648 201.269 123.26C201.239 123.281 200.176 123.928 200.755 123.619C202.893 122.479 204.976 121.169 207.02 119.871C208.457 118.957 210.613 117.887 211.436 116.328C211.59 116.035 212.505 113.433 211.872 114.171C210.734 115.498 210.702 116.637 209.228 117.714C208.264 118.418 207.604 119.498 206.583 120.204C205.75 120.782 204.349 121.468 203.4 121.847C202.35 122.267 205.566 121.114 206.506 120.487C208.748 118.993 212.716 111.845 211.795 114.377C211.127 116.215 208.388 117.867 206.814 118.741C204.627 119.956 203.997 120.342 201.269 119.563" stroke="#BF6E12" stroke-opacity="0.62" stroke-linecap="round" stroke-linejoin="round"/>
</g>
<g filter="url(#filter27_f_302_8309)">
<path d="M201.409 260.863C194.287 260.863 187.166 260.863 180.044 260.863C174.695 260.863 190.741 260.863 196.09 260.863C197.619 260.863 199.148 260.863 200.677 260.863C202.705 260.863 198.241 260.362 198.062 260.355C190.234 260.054 182.354 260.325 174.516 260.325C169.56 260.325 164.469 259.998 159.515 260.34C158.259 260.426 157.068 260.863 155.81 260.863C153.843 260.863 151.875 260.863 149.908 260.863C146.128 260.863 142.362 261.088 138.598 261.132C129.843 261.233 121.075 261.277 112.332 261.401C101.25 261.557 90.0598 261.661 78.9989 261.147C75.137 260.967 71.3596 260.594 67.4796 260.594C64.0232 260.594 60.5669 260.594 57.1106 260.594C45.1607 260.594 33.2548 260.056 21.3423 260.056C20.8044 260.056 20.2665 260.056 19.7287 260.056C18.9931 260.056 17.6526 259.708 18.9069 260.19C20.7803 260.911 21.1196 261.965 21.2228 263.821C21.2549 264.4 29.384 264.09 30.2769 264.09C33.7456 264.09 37.1652 263.274 40.6159 262.969C42.4422 262.808 44.2021 262.22 46.0245 261.998C46.8695 261.896 47.5871 261.452 48.4151 261.401C50.069 261.297 51.6816 260.957 53.3455 260.893C54.7814 260.837 56.3809 261.072 57.7979 260.743C59.1433 260.431 60.0407 260.325 61.4733 260.325C64.581 260.325 67.6887 260.325 70.7964 260.325C72.9257 260.325 74.9773 260.732 77.1014 260.833C79.9596 260.969 82.8471 260.863 85.7074 260.863C87.5401 260.863 89.3728 260.863 91.2056 260.863C93.1707 260.863 96.0523 260.292 97.8991 261.132C98.9586 261.613 100.332 261.401 101.455 261.401C103.367 261.401 105.28 261.401 107.192 261.401C108.398 261.401 109.603 261.401 110.808 261.401C116.326 261.401 121.844 261.401 127.362 261.401C139.873 261.401 152.383 261.401 164.894 261.401C180.902 261.401 197.03 261.132 212.973 261.132" stroke="#BF6E12" stroke-opacity="0.62" stroke-linecap="round" stroke-linejoin="round"/>
<path d="M201.409 260.863C194.287 260.863 187.166 260.863 180.044 260.863C174.695 260.863 190.741 260.863 196.09 260.863C197.619 260.863 199.148 260.863 200.677 260.863C202.705 260.863 198.241 260.362 198.062 260.355C190.234 260.054 182.354 260.325 174.516 260.325C169.56 260.325 164.469 259.998 159.515 260.34C158.259 260.426 157.068 260.863 155.81 260.863C153.843 260.863 151.875 260.863 149.908 260.863C146.128 260.863 142.362 261.088 138.598 261.132C129.843 261.233 121.075 261.277 112.332 261.401C101.25 261.557 90.0598 261.661 78.9989 261.147C75.137 260.967 71.3596 260.594 67.4796 260.594C64.0232 260.594 60.5669 260.594 57.1106 260.594C45.1607 260.594 33.2548 260.056 21.3423 260.056C20.8044 260.056 20.2665 260.056 19.7287 260.056C18.9931 260.056 17.6526 259.708 18.9069 260.19C20.7803 260.911 21.1196 261.965 21.2228 263.821C21.2549 264.4 29.384 264.09 30.2769 264.09C33.7456 264.09 37.1652 263.274 40.6159 262.969C42.4422 262.808 44.2021 262.22 46.0245 261.998C46.8695 261.896 47.5871 261.452 48.4151 261.401C50.069 261.297 51.6816 260.957 53.3455 260.893C54.7814 260.837 56.3809 261.072 57.7979 260.743C59.1433 260.431 60.0407 260.325 61.4733 260.325C64.581 260.325 67.6887 260.325 70.7964 260.325C72.9257 260.325 74.9773 260.732 77.1014 260.833C79.9596 260.969 82.8471 260.863 85.7074 260.863C87.5401 260.863 89.3728 260.863 91.2056 260.863C93.1707 260.863 96.0523 260.292 97.8991 261.132C98.9586 261.613 100.332 261.401 101.455 261.401C103.367 261.401 105.28 261.401 107.192 261.401C108.398 261.401 109.603 261.401 110.808 261.401C116.326 261.401 121.844 261.401 127.362 261.401C139.873 261.401 152.383 261.401 164.894 261.401C180.902 261.401 197.03 261.132 212.973 261.132" stroke="url(#paint0_linear_302_8309)" stroke-linecap="round" stroke-linejoin="round"/>
<path d="M201.409 260.863C194.287 260.863 187.166 260.863 180.044 260.863C174.695 260.863 190.741 260.863 196.09 260.863C197.619 260.863 199.148 260.863 200.677 260.863C202.705 260.863 198.241 260.362 198.062 260.355C190.234 260.054 182.354 260.325 174.516 260.325C169.56 260.325 164.469 259.998 159.515 260.34C158.259 260.426 157.068 260.863 155.81 260.863C153.843 260.863 151.875 260.863 149.908 260.863C146.128 260.863 142.362 261.088 138.598 261.132C129.843 261.233 121.075 261.277 112.332 261.401C101.25 261.557 90.0598 261.661 78.9989 261.147C75.137 260.967 71.3596 260.594 67.4796 260.594C64.0232 260.594 60.5669 260.594 57.1106 260.594C45.1607 260.594 33.2548 260.056 21.3423 260.056C20.8044 260.056 20.2665 260.056 19.7287 260.056C18.9931 260.056 17.6526 259.708 18.9069 260.19C20.7803 260.911 21.1196 261.965 21.2228 263.821C21.2549 264.4 29.384 264.09 30.2769 264.09C33.7456 264.09 37.1652 263.274 40.6159 262.969C42.4422 262.808 44.2021 262.22 46.0245 261.998C46.8695 261.896 47.5871 261.452 48.4151 261.401C50.069 261.297 51.6816 260.957 53.3455 260.893C54.7814 260.837 56.3809 261.072 57.7979 260.743C59.1433 260.431 60.0407 260.325 61.4733 260.325C64.581 260.325 67.6887 260.325 70.7964 260.325C72.9257 260.325 74.9773 260.732 77.1014 260.833C79.9596 260.969 82.8471 260.863 85.7074 260.863C87.5401 260.863 89.3728 260.863 91.2056 260.863C93.1707 260.863 96.0523 260.292 97.8991 261.132C98.9586 261.613 100.332 261.401 101.455 261.401C103.367 261.401 105.28 261.401 107.192 261.401C108.398 261.401 109.603 261.401 110.808 261.401C116.326 261.401 121.844 261.401 127.362 261.401C139.873 261.401 152.383 261.401 164.894 261.401C180.902 261.401 197.03 261.132 212.973 261.132" stroke="url(#paint1_linear_302_8309)" stroke-linecap="round" stroke-linejoin="round"/>
<path d="M201.409 260.863C194.287 260.863 187.166 260.863 180.044 260.863C174.695 260.863 190.741 260.863 196.09 260.863C197.619 260.863 199.148 260.863 200.677 260.863C202.705 260.863 198.241 260.362 198.062 260.355C190.234 260.054 182.354 260.325 174.516 260.325C169.56 260.325 164.469 259.998 159.515 260.34C158.259 260.426 157.068 260.863 155.81 260.863C153.843 260.863 151.875 260.863 149.908 260.863C146.128 260.863 142.362 261.088 138.598 261.132C129.843 261.233 121.075 261.277 112.332 261.401C101.25 261.557 90.0598 261.661 78.9989 261.147C75.137 260.967 71.3596 260.594 67.4796 260.594C64.0232 260.594 60.5669 260.594 57.1106 260.594C45.1607 260.594 33.2548 260.056 21.3423 260.056C20.8044 260.056 20.2665 260.056 19.7287 260.056C18.9931 260.056 17.6526 259.708 18.9069 260.19C20.7803 260.911 21.1196 261.965 21.2228 263.821C21.2549 264.4 29.384 264.09 30.2769 264.09C33.7456 264.09 37.1652 263.274 40.6159 262.969C42.4422 262.808 44.2021 262.22 46.0245 261.998C46.8695 261.896 47.5871 261.452 48.4151 261.401C50.069 261.297 51.6816 260.957 53.3455 260.893C54.7814 260.837 56.3809 261.072 57.7979 260.743C59.1433 260.431 60.0407 260.325 61.4733 260.325C64.581 260.325 67.6887 260.325 70.7964 260.325C72.9257 260.325 74.9773 260.732 77.1014 260.833C79.9596 260.969 82.8471 260.863 85.7074 260.863C87.5401 260.863 89.3728 260.863 91.2056 260.863C93.1707 260.863 96.0523 260.292 97.8991 261.132C98.9586 261.613 100.332 261.401 101.455 261.401C103.367 261.401 105.28 261.401 107.192 261.401C108.398 261.401 109.603 261.401 110.808 261.401C116.326 261.401 121.844 261.401 127.362 261.401C139.873 261.401 152.383 261.401 164.894 261.401C180.902 261.401 197.03 261.132 212.973 261.132" stroke="url(#paint2_linear_302_8309)" stroke-linecap="round" stroke-linejoin="round"/>
<path d="M201.409 260.863C194.287 260.863 187.166 260.863 180.044 260.863C174.695 260.863 190.741 260.863 196.09 260.863C197.619 260.863 199.148 260.863 200.677 260.863C202.705 260.863 198.241 260.362 198.062 260.355C190.234 260.054 182.354 260.325 174.516 260.325C169.56 260.325 164.469 259.998 159.515 260.34C158.259 260.426 157.068 260.863 155.81 260.863C153.843 260.863 151.875 260.863 149.908 260.863C146.128 260.863 142.362 261.088 138.598 261.132C129.843 261.233 121.075 261.277 112.332 261.401C101.25 261.557 90.0598 261.661 78.9989 261.147C75.137 260.967 71.3596 260.594 67.4796 260.594C64.0232 260.594 60.5669 260.594 57.1106 260.594C45.1607 260.594 33.2548 260.056 21.3423 260.056C20.8044 260.056 20.2665 260.056 19.7287 260.056C18.9931 260.056 17.6526 259.708 18.9069 260.19C20.7803 260.911 21.1196 261.965 21.2228 263.821C21.2549 264.4 29.384 264.09 30.2769 264.09C33.7456 264.09 37.1652 263.274 40.6159 262.969C42.4422 262.808 44.2021 262.22 46.0245 261.998C46.8695 261.896 47.5871 261.452 48.4151 261.401C50.069 261.297 51.6816 260.957 53.3455 260.893C54.7814 260.837 56.3809 261.072 57.7979 260.743C59.1433 260.431 60.0407 260.325 61.4733 260.325C64.581 260.325 67.6887 260.325 70.7964 260.325C72.9257 260.325 74.9773 260.732 77.1014 260.833C79.9596 260.969 82.8471 260.863 85.7074 260.863C87.5401 260.863 89.3728 260.863 91.2056 260.863C93.1707 260.863 96.0523 260.292 97.8991 261.132C98.9586 261.613 100.332 261.401 101.455 261.401C103.367 261.401 105.28 261.401 107.192 261.401C108.398 261.401 109.603 261.401 110.808 261.401C116.326 261.401 121.844 261.401 127.362 261.401C139.873 261.401 152.383 261.401 164.894 261.401C180.902 261.401 197.03 261.132 212.973 261.132" stroke="url(#paint3_linear_302_8309)" stroke-linecap="round" stroke-linejoin="round"/>
</g>
<g filter="url(#filter28_f_302_8309)">
<path d="M238.791 259.787C233.614 259.931 228.456 261.028 223.253 261.132C219.874 261.199 216.509 261.043 213.153 261.341C210.417 261.584 207.606 261.401 204.86 261.401C202.633 261.401 209.332 261.282 211.539 261.58C214.706 262.007 217.604 262.476 220.802 262.476C223.087 262.476 225.302 261.939 227.6 261.939C229.383 261.939 231.117 261.746 232.845 261.266C234.004 260.944 233.987 260.801 232.546 260.923C229.984 261.138 227.521 261.401 224.941 261.401C221.4 261.401 217.859 261.401 214.318 261.401C209.886 261.401 205.453 261.401 201.021 261.401C199.905 261.401 198.79 261.401 197.674 261.401C197.387 261.401 195.646 261.401 197.196 261.401C203.073 261.401 208.949 261.401 214.826 261.401C221.237 261.401 227.627 261.132 234.025 261.132C244.183 261.132 213.719 261.939 203.561 261.939C198.261 261.939 193.018 262.224 187.723 262.476C184.508 262.63 181.407 263.491 178.191 263.552C175.17 263.61 172.163 263.821 169.137 263.821" stroke="#BF6E12" stroke-opacity="0.62" stroke-linecap="round" stroke-linejoin="round"/>
<path d="M238.791 259.787C233.614 259.931 228.456 261.028 223.253 261.132C219.874 261.199 216.509 261.043 213.153 261.341C210.417 261.584 207.606 261.401 204.86 261.401C202.633 261.401 209.332 261.282 211.539 261.58C214.706 262.007 217.604 262.476 220.802 262.476C223.087 262.476 225.302 261.939 227.6 261.939C229.383 261.939 231.117 261.746 232.845 261.266C234.004 260.944 233.987 260.801 232.546 260.923C229.984 261.138 227.521 261.401 224.941 261.401C221.4 261.401 217.859 261.401 214.318 261.401C209.886 261.401 205.453 261.401 201.021 261.401C199.905 261.401 198.79 261.401 197.674 261.401C197.387 261.401 195.646 261.401 197.196 261.401C203.073 261.401 208.949 261.401 214.826 261.401C221.237 261.401 227.627 261.132 234.025 261.132C244.183 261.132 213.719 261.939 203.561 261.939C198.261 261.939 193.018 262.224 187.723 262.476C184.508 262.63 181.407 263.491 178.191 263.552C175.17 263.61 172.163 263.821 169.137 263.821" stroke="url(#paint4_linear_302_8309)" stroke-linecap="round" stroke-linejoin="round"/>
<path d="M238.791 259.787C233.614 259.931 228.456 261.028 223.253 261.132C219.874 261.199 216.509 261.043 213.153 261.341C210.417 261.584 207.606 261.401 204.86 261.401C202.633 261.401 209.332 261.282 211.539 261.58C214.706 262.007 217.604 262.476 220.802 262.476C223.087 262.476 225.302 261.939 227.6 261.939C229.383 261.939 231.117 261.746 232.845 261.266C234.004 260.944 233.987 260.801 232.546 260.923C229.984 261.138 227.521 261.401 224.941 261.401C221.4 261.401 217.859 261.401 214.318 261.401C209.886 261.401 205.453 261.401 201.021 261.401C199.905 261.401 198.79 261.401 197.674 261.401C197.387 261.401 195.646 261.401 197.196 261.401C203.073 261.401 208.949 261.401 214.826 261.401C221.237 261.401 227.627 261.132 234.025 261.132C244.183 261.132 213.719 261.939 203.561 261.939C198.261 261.939 193.018 262.224 187.723 262.476C184.508 262.63 181.407 263.491 178.191 263.552C175.17 263.61 172.163 263.821 169.137 263.821" stroke="url(#paint5_linear_302_8309)" stroke-linecap="round" stroke-linejoin="round"/>
<path d="M238.791 259.787C233.614 259.931 228.456 261.028 223.253 261.132C219.874 261.199 216.509 261.043 213.153 261.341C210.417 261.584 207.606 261.401 204.86 261.401C202.633 261.401 209.332 261.282 211.539 261.58C214.706 262.007 217.604 262.476 220.802 262.476C223.087 262.476 225.302 261.939 227.6 261.939C229.383 261.939 231.117 261.746 232.845 261.266C234.004 260.944 233.987 260.801 232.546 260.923C229.984 261.138 227.521 261.401 224.941 261.401C221.4 261.401 217.859 261.401 214.318 261.401C209.886 261.401 205.453 261.401 201.021 261.401C199.905 261.401 198.79 261.401 197.674 261.401C197.387 261.401 195.646 261.401 197.196 261.401C203.073 261.401 208.949 261.401 214.826 261.401C221.237 261.401 227.627 261.132 234.025 261.132C244.183 261.132 213.719 261.939 203.561 261.939C198.261 261.939 193.018 262.224 187.723 262.476C184.508 262.63 181.407 263.491 178.191 263.552C175.17 263.61 172.163 263.821 169.137 263.821" stroke="url(#paint6_linear_302_8309)" stroke-linecap="round" stroke-linejoin="round"/>
<path d="M238.791 259.787C233.614 259.931 228.456 261.028 223.253 261.132C219.874 261.199 216.509 261.043 213.153 261.341C210.417 261.584 207.606 261.401 204.86 261.401C202.633 261.401 209.332 261.282 211.539 261.58C214.706 262.007 217.604 262.476 220.802 262.476C223.087 262.476 225.302 261.939 227.6 261.939C229.383 261.939 231.117 261.746 232.845 261.266C234.004 260.944 233.987 260.801 232.546 260.923C229.984 261.138 227.521 261.401 224.941 261.401C221.4 261.401 217.859 261.401 214.318 261.401C209.886 261.401 205.453 261.401 201.021 261.401C199.905 261.401 198.79 261.401 197.674 261.401C197.387 261.401 195.646 261.401 197.196 261.401C203.073 261.401 208.949 261.401 214.826 261.401C221.237 261.401 227.627 261.132 234.025 261.132C244.183 261.132 213.719 261.939 203.561 261.939C198.261 261.939 193.018 262.224 187.723 262.476C184.508 262.63 181.407 263.491 178.191 263.552C175.17 263.61 172.163 263.821 169.137 263.821" stroke="url(#paint7_linear_302_8309)" stroke-linecap="round" stroke-linejoin="round"/>
</g>
<g filter="url(#filter29_f_302_8309)">
<path d="M133.68 236.018C138.517 236.018 143.355 236.018 148.192 236.018C150.556 236.018 152.935 235.867 155.246 236.461C157.395 237.014 162.75 240.04 161.413 236.179C160.45 233.398 156.711 232.319 154.722 230.213C152.378 227.732 150.385 224.122 149.643 220.781C148.095 213.817 143.838 206.577 143.838 199.417C143.838 193.011 139.485 187.32 139.485 180.875" stroke="#C15E16" stroke-linecap="round" stroke-linejoin="round"/>
</g>
<g filter="url(#filter30_f_302_8309)">
<path d="M127.876 143.871C134.429 141.153 140.387 136.615 147.829 136.615C152.843 136.615 159.218 135.853 163.751 133.713C166.262 132.527 168.788 131.864 169.918 129.037C170.39 127.858 170.359 126.257 171.41 125.731" stroke="#C15E16" stroke-linecap="round" stroke-linejoin="round"/>
</g>
<g filter="url(#filter31_f_302_8309)">
<path d="M95.9509 206.995C87.8815 206.995 75.6249 210.693 69.4274 204.496C65.2203 200.288 60.4068 195.881 56.7703 191.032" stroke="#C15E16" stroke-linecap="round" stroke-linejoin="round"/>
</g>
<defs>
<filter id="filter0_d_302_8309" x="43" y="0" width="135" height="57" filterUnits="userSpaceOnUse" color-interpolation-filters="sRGB">
<feFlood flood-opacity="0" result="BackgroundImageFix"/>
<feColorMatrix in="SourceAlpha" type="matrix" values="0 0 0 0 0 0 0 0 0 0 0 0 0 0 0 0 0 0 127 0" result="hardAlpha"/>
<feOffset dy="4"/>
<feGaussianBlur stdDeviation="2"/>
<feColorMatrix type="matrix" values="0 0 0 0 0 0 0 0 0 0 0 0 0 0 0 0 0 0 0.25 0"/>
<feBlend mode="normal" in2="BackgroundImageFix" result="effect1_dropShadow_302_8309"/>
<feBlend mode="normal" in="SourceGraphic" in2="effect1_dropShadow_302_8309" result="shape"/>
</filter>
<filter id="filter1_d_302_8309" x="106.972" y="131.553" width="29.6641" height="85.0439" filterUnits="userSpaceOnUse" color-interpolation-filters="sRGB">
<feFlood flood-opacity="0" result="BackgroundImageFix"/>
<feColorMatrix in="SourceAlpha" type="matrix" values="0 0 0 0 0 0 0 0 0 0 0 0 0 0 0 0 0 0 127 0" result="hardAlpha"/>
<feOffset dy="4"/>
<feGaussianBlur stdDeviation="2"/>
<feColorMatrix type="matrix" values="0 0 0 0 0.968627 0 0 0 0 0.603922 0 0 0 0 0.243137 0 0 0 1 0"/>
<feBlend mode="normal" in2="BackgroundImageFix" result="effect1_dropShadow_302_8309"/>
<feBlend mode="normal" in="SourceGraphic" in2="effect1_dropShadow_302_8309" result="shape"/>
</filter>
<filter id="filter2_d_302_8309" x="131.801" y="165.705" width="33.8879" height="82.0845" filterUnits="userSpaceOnUse" color-interpolation-filters="sRGB">
<feFlood flood-opacity="0" result="BackgroundImageFix"/>
<feColorMatrix in="SourceAlpha" type="matrix" values="0 0 0 0 0 0 0 0 0 0 0 0 0 0 0 0 0 0 127 0" result="hardAlpha"/>
<feOffset dx="6" dy="6"/>
<feGaussianBlur stdDeviation="2"/>
<feColorMatrix type="matrix" values="0 0 0 0 0.683333 0 0 0 0 0.583111 0 0 0 0 0.3075 0 0 0 1 0"/>
<feBlend mode="normal" in2="BackgroundImageFix" result="effect1_dropShadow_302_8309"/>
<feBlend mode="normal" in="SourceGraphic" in2="effect1_dropShadow_302_8309" result="shape"/>
</filter>
<filter id="filter3_d_302_8309" x="106.052" y="149.639" width="28.4373" height="99.0303" filterUnits="userSpaceOnUse" color-interpolation-filters="sRGB">
<feFlood flood-opacity="0" result="BackgroundImageFix"/>
<feColorMatrix in="SourceAlpha" type="matrix" values="0 0 0 0 0 0 0 0 0 0 0 0 0 0 0 0 0 0 127 0" result="hardAlpha"/>
<feOffset dx="6" dy="6"/>
<feGaussianBlur stdDeviation="2"/>
<feColorMatrix type="matrix" values="0 0 0 0 0.683333 0 0 0 0 0.583111 0 0 0 0 0.3075 0 0 0 1 0"/>
<feBlend mode="normal" in2="BackgroundImageFix" result="effect1_dropShadow_302_8309"/>
<feBlend mode="normal" in="SourceGraphic" in2="effect1_dropShadow_302_8309" result="shape"/>
</filter>
<filter id="filter4_d_302_8309" x="115.516" y="137.315" width="40.4901" height="111.354" filterUnits="userSpaceOnUse" color-interpolation-filters="sRGB">
<feFlood flood-opacity="0" result="BackgroundImageFix"/>
<feColorMatrix in="SourceAlpha" type="matrix" values="0 0 0 0 0 0 0 0 0 0 0 0 0 0 0 0 0 0 127 0" result="hardAlpha"/>
<feOffset dx="6" dy="6"/>
<feGaussianBlur stdDeviation="2"/>
<feColorMatrix type="matrix" values="0 0 0 0 0.683333 0 0 0 0 0.583111 0 0 0 0 0.3075 0 0 0 1 0"/>
<feBlend mode="normal" in2="BackgroundImageFix" result="effect1_dropShadow_302_8309"/>
<feBlend mode="normal" in="SourceGraphic" in2="effect1_dropShadow_302_8309" result="shape"/>
</filter>
<filter id="filter5_d_302_8309" x="100.081" y="67.9033" width="20.1122" height="85.0781" filterUnits="userSpaceOnUse" color-interpolation-filters="sRGB">
<feFlood flood-opacity="0" result="BackgroundImageFix"/>
<feColorMatrix in="SourceAlpha" type="matrix" values="0 0 0 0 0 0 0 0 0 0 0 0 0 0 0 0 0 0 127 0" result="hardAlpha"/>
<feOffset dx="6" dy="6"/>
<feGaussianBlur stdDeviation="2"/>
<feColorMatrix type="matrix" values="0 0 0 0 0.683333 0 0 0 0 0.583111 0 0 0 0 0.3075 0 0 0 1 0"/>
<feBlend mode="normal" in2="BackgroundImageFix" result="effect1_dropShadow_302_8309"/>
<feBlend mode="normal" in="SourceGraphic" in2="effect1_dropShadow_302_8309" result="shape"/>
</filter>
<filter id="filter6_d_302_8309" x="128.744" y="222.084" width="14.1653" height="26.3267" filterUnits="userSpaceOnUse" color-interpolation-filters="sRGB">
<feFlood flood-opacity="0" result="BackgroundImageFix"/>
<feColorMatrix in="SourceAlpha" type="matrix" values="0 0 0 0 0 0 0 0 0 0 0 0 0 0 0 0 0 0 127 0" result="hardAlpha"/>
<feOffset dx="6" dy="6"/>
<feGaussianBlur stdDeviation="2"/>
<feColorMatrix type="matrix" values="0 0 0 0 0.683333 0 0 0 0 0.583111 0 0 0 0 0.3075 0 0 0 1 0"/>
<feBlend mode="normal" in2="BackgroundImageFix" result="effect1_dropShadow_302_8309"/>
<feBlend mode="normal" in="SourceGraphic" in2="effect1_dropShadow_302_8309" result="shape"/>
</filter>
<filter id="filter7_d_302_8309" x="93.9641" y="47.4561" width="26.4395" height="30.9185" filterUnits="userSpaceOnUse" color-interpolation-filters="sRGB">
<feFlood flood-opacity="0" result="BackgroundImageFix"/>
<feColorMatrix in="SourceAlpha" type="matrix" values="0 0 0 0 0 0 0 0 0 0 0 0 0 0 0 0 0 0 127 0" result="hardAlpha"/>
<feOffset dx="6" dy="6"/>
<feGaussianBlur stdDeviation="2"/>
<feColorMatrix type="matrix" values="0 0 0 0 0.683333 0 0 0 0 0.583111 0 0 0 0 0.3075 0 0 0 1 0"/>
<feBlend mode="normal" in2="BackgroundImageFix" result="effect1_dropShadow_302_8309"/>
<feBlend mode="normal" in="SourceGraphic" in2="effect1_dropShadow_302_8309" result="shape"/>
</filter>
<filter id="filter8_d_302_8309" x="141.773" y="220.428" width="15.5977" height="23.2603" filterUnits="userSpaceOnUse" color-interpolation-filters="sRGB">
<feFlood flood-opacity="0" result="BackgroundImageFix"/>
<feColorMatrix in="SourceAlpha" type="matrix" values="0 0 0 0 0 0 0 0 0 0 0 0 0 0 0 0 0 0 127 0" result="hardAlpha"/>
<feOffset dx="6" dy="6"/>
<feGaussianBlur stdDeviation="2"/>
<feColorMatrix type="matrix" values="0 0 0 0 0.683333 0 0 0 0 0.583111 0 0 0 0 0.3075 0 0 0 1 0"/>
<feBlend mode="normal" in2="BackgroundImageFix" result="effect1_dropShadow_302_8309"/>
<feBlend mode="normal" in="SourceGraphic" in2="effect1_dropShadow_302_8309" result="shape"/>
</filter>
<filter id="filter9_d_302_8309" x="120.5" y="207.5" width="17" height="32" filterUnits="userSpaceOnUse" color-interpolation-filters="sRGB">
<feFlood flood-opacity="0" result="BackgroundImageFix"/>
<feColorMatrix in="SourceAlpha" type="matrix" values="0 0 0 0 0 0 0 0 0 0 0 0 0 0 0 0 0 0 127 0" result="hardAlpha"/>
<feOffset dx="6" dy="6"/>
<feGaussianBlur stdDeviation="2"/>
<feColorMatrix type="matrix" values="0 0 0 0 0.764706 0 0 0 0 0.560784 0 0 0 0 0 0 0 0 1 0"/>
<feBlend mode="normal" in2="BackgroundImageFix" result="effect1_dropShadow_302_8309"/>
<feBlend mode="normal" in="SourceGraphic" in2="effect1_dropShadow_302_8309" result="shape"/>
</filter>
<filter id="filter10_d_302_8309" x="100.9" y="219.153" width="21.7512" height="28.9966" filterUnits="userSpaceOnUse" color-interpolation-filters="sRGB">
<feFlood flood-opacity="0" result="BackgroundImageFix"/>
<feColorMatrix in="SourceAlpha" type="matrix" values="0 0 0 0 0 0 0 0 0 0 0 0 0 0 0 0 0 0 127 0" result="hardAlpha"/>
<feOffset dx="6" dy="6"/>
<feGaussianBlur stdDeviation="2"/>
<feColorMatrix type="matrix" values="0 0 0 0 0.921569 0 0 0 0 0.823529 0 0 0 0 0.690196 0 0 0 1 0"/>
<feBlend mode="normal" in2="BackgroundImageFix" result="effect1_dropShadow_302_8309"/>
<feBlend mode="normal" in="SourceGraphic" in2="effect1_dropShadow_302_8309" result="shape"/>
</filter>
<filter id="filter11_d_302_8309" x="109.558" y="49.8882" width="31.3861" height="29.1621" filterUnits="userSpaceOnUse" color-interpolation-filters="sRGB">
<feFlood flood-opacity="0" result="BackgroundImageFix"/>
<feColorMatrix in="SourceAlpha" type="matrix" values="0 0 0 0 0 0 0 0 0 0 0 0 0 0 0 0 0 0 127 0" result="hardAlpha"/>
<feOffset dx="6" dy="6"/>
<feGaussianBlur stdDeviation="2"/>
<feColorMatrix type="matrix" values="0 0 0 0 0.921569 0 0 0 0 0.823529 0 0 0 0 0.690196 0 0 0 1 0"/>
<feBlend mode="normal" in2="BackgroundImageFix" result="effect1_dropShadow_302_8309"/>
<feBlend mode="normal" in="SourceGraphic" in2="effect1_dropShadow_302_8309" result="shape"/>
</filter>
<filter id="filter12_d_302_8309" x="78.4231" y="99.5557" width="27.6796" height="19.1543" filterUnits="userSpaceOnUse" color-interpolation-filters="sRGB">
<feFlood flood-opacity="0" result="BackgroundImageFix"/>
<feColorMatrix in="SourceAlpha" type="matrix" values="0 0 0 0 0 0 0 0 0 0 0 0 0 0 0 0 0 0 127 0" result="hardAlpha"/>
<feOffset dx="6" dy="6"/>
<feGaussianBlur stdDeviation="2"/>
<feColorMatrix type="matrix" values="0 0 0 0 0.921569 0 0 0 0 0.823529 0 0 0 0 0.690196 0 0 0 1 0"/>
<feBlend mode="normal" in2="BackgroundImageFix" result="effect1_dropShadow_302_8309"/>
<feBlend mode="normal" in="SourceGraphic" in2="effect1_dropShadow_302_8309" result="shape"/>
</filter>
<filter id="filter13_d_302_8309" x="75.8286" y="99.5557" width="30.6448" height="20.6372" filterUnits="userSpaceOnUse" color-interpolation-filters="sRGB">
<feFlood flood-opacity="0" result="BackgroundImageFix"/>
<feColorMatrix in="SourceAlpha" type="matrix" values="0 0 0 0 0 0 0 0 0 0 0 0 0 0 0 0 0 0 127 0" result="hardAlpha"/>
<feOffset dx="6" dy="6"/>
<feGaussianBlur stdDeviation="2"/>
<feColorMatrix type="matrix" values="0 0 0 0 0.921569 0 0 0 0 0.823529 0 0 0 0 0.690196 0 0 0 1 0"/>
<feBlend mode="normal" in2="BackgroundImageFix" result="effect1_dropShadow_302_8309"/>
<feBlend mode="normal" in="SourceGraphic" in2="effect1_dropShadow_302_8309" result="shape"/>
</filter>
<filter id="filter14_d_302_8309" x="55.0719" y="190.366" width="53.996" height="23.106" filterUnits="userSpaceOnUse" color-interpolation-filters="sRGB">
<feFlood flood-opacity="0" result="BackgroundImageFix"/>
<feColorMatrix in="SourceAlpha" type="matrix" values="0 0 0 0 0 0 0 0 0 0 0 0 0 0 0 0 0 0 127 0" result="hardAlpha"/>
<feOffset dx="6" dy="6"/>
<feGaussianBlur stdDeviation="2"/>
<feColorMatrix type="matrix" values="0 0 0 0 0.683333 0 0 0 0 0.583111 0 0 0 0 0.3075 0 0 0 1 0"/>
<feBlend mode="normal" in2="BackgroundImageFix" result="effect1_dropShadow_302_8309"/>
<feBlend mode="normal" in="SourceGraphic" in2="effect1_dropShadow_302_8309" result="shape"/>
</filter>
<filter id="filter15_d_302_8309" x="55.4425" y="198.892" width="56.9614" height="22.8608" filterUnits="userSpaceOnUse" color-interpolation-filters="sRGB">
<feFlood flood-opacity="0" result="BackgroundImageFix"/>
<feColorMatrix in="SourceAlpha" type="matrix" values="0 0 0 0 0 0 0 0 0 0 0 0 0 0 0 0 0 0 127 0" result="hardAlpha"/>
<feOffset dx="6" dy="6"/>
<feGaussianBlur stdDeviation="2"/>
<feColorMatrix type="matrix" values="0 0 0 0 0.921569 0 0 0 0 0.823529 0 0 0 0 0.690196 0 0 0 1 0"/>
<feBlend mode="normal" in2="BackgroundImageFix" result="effect1_dropShadow_302_8309"/>
<feBlend mode="normal" in="SourceGraphic" in2="effect1_dropShadow_302_8309" result="shape"/>
</filter>
<filter id="filter16_d_302_8309" x="96.41" y="195.185" width="16.1454" height="17.6719" filterUnits="userSpaceOnUse" color-interpolation-filters="sRGB">
<feFlood flood-opacity="0" result="BackgroundImageFix"/>
<feColorMatrix in="SourceAlpha" type="matrix" values="0 0 0 0 0 0 0 0 0 0 0 0 0 0 0 0 0 0 127 0" result="hardAlpha"/>
<feOffset dx="6" dy="6"/>
<feGaussianBlur stdDeviation="2"/>
<feColorMatrix type="matrix" values="0 0 0 0 0.921569 0 0 0 0 0.823529 0 0 0 0 0.690196 0 0 0 1 0"/>
<feBlend mode="normal" in2="BackgroundImageFix" result="effect1_dropShadow_302_8309"/>
<feBlend mode="normal" in="SourceGraphic" in2="effect1_dropShadow_302_8309" result="shape"/>
</filter>
<filter id="filter17_d_302_8309" x="120.678" y="108.081" width="46.008" height="48.436" filterUnits="userSpaceOnUse" color-interpolation-filters="sRGB">
<feFlood flood-opacity="0" result="BackgroundImageFix"/>
<feColorMatrix in="SourceAlpha" type="matrix" values="0 0 0 0 0 0 0 0 0 0 0 0 0 0 0 0 0 0 127 0" result="hardAlpha"/>
<feOffset dx="6" dy="6"/>
<feGaussianBlur stdDeviation="2"/>
<feColorMatrix type="matrix" values="0 0 0 0 0.552941 0 0 0 0 0.443137 0 0 0 0 0.317647 0 0 0 0.62 0"/>
<feBlend mode="normal" in2="BackgroundImageFix" result="effect1_dropShadow_302_8309"/>
<feBlend mode="normal" in="SourceGraphic" in2="effect1_dropShadow_302_8309" result="shape"/>
</filter>
<filter id="filter18_d_302_8309" x="150.33" y="129.95" width="32.0893" height="20.271" filterUnits="userSpaceOnUse" color-interpolation-filters="sRGB">
<feFlood flood-opacity="0" result="BackgroundImageFix"/>
<feColorMatrix in="SourceAlpha" type="matrix" values="0 0 0 0 0 0 0 0 0 0 0 0 0 0 0 0 0 0 127 0" result="hardAlpha"/>
<feOffset dx="6" dy="6"/>
<feGaussianBlur stdDeviation="2"/>
<feColorMatrix type="matrix" values="0 0 0 0 0.921569 0 0 0 0 0.823529 0 0 0 0 0.690196 0 0 0 1 0"/>
<feBlend mode="normal" in2="BackgroundImageFix" result="effect1_dropShadow_302_8309"/>
<feBlend mode="normal" in="SourceGraphic" in2="effect1_dropShadow_302_8309" result="shape"/>
</filter>
<filter id="filter19_d_302_8309" x="166.639" y="115.494" width="40.1352" height="33.3276" filterUnits="userSpaceOnUse" color-interpolation-filters="sRGB">
<feFlood flood-opacity="0" result="BackgroundImageFix"/>
<feColorMatrix in="SourceAlpha" type="matrix" values="0 0 0 0 0 0 0 0 0 0 0 0 0 0 0 0 0 0 127 0" result="hardAlpha"/>
<feOffset dx="4" dy="4"/>
<feGaussianBlur stdDeviation="2"/>
<feColorMatrix type="matrix" values="0 0 0 0 0.552941 0 0 0 0 0.443137 0 0 0 0 0.317647 0 0 0 0.79 0"/>
<feBlend mode="normal" in2="BackgroundImageFix" result="effect1_dropShadow_302_8309"/>
<feBlend mode="normal" in="SourceGraphic" in2="effect1_dropShadow_302_8309" result="shape"/>
</filter>
<filter id="filter20_f_302_8309" x="52.1838" y="46.4741" width="152.316" height="195.655" filterUnits="userSpaceOnUse" color-interpolation-filters="sRGB">
<feFlood flood-opacity="0" result="BackgroundImageFix"/>
<feBlend mode="normal" in="SourceGraphic" in2="BackgroundImageFix" result="shape"/>
<feGaussianBlur stdDeviation="2" result="effect1_foregroundBlur_302_8309"/>
</filter>
<filter id="filter21_f_302_8309" x="100.482" y="82.1309" width="11.3165" height="34.4985" filterUnits="userSpaceOnUse" color-interpolation-filters="sRGB">
<feFlood flood-opacity="0" result="BackgroundImageFix"/>
<feBlend mode="normal" in="SourceGraphic" in2="BackgroundImageFix" result="shape"/>
<feGaussianBlur stdDeviation="2" result="effect1_foregroundBlur_302_8309"/>
</filter>
<filter id="filter22_f_302_8309" x="99.2718" y="72.3096" width="15.966" height="67.8477" filterUnits="userSpaceOnUse" color-interpolation-filters="sRGB">
<feFlood flood-opacity="0" result="BackgroundImageFix"/>
<feBlend mode="normal" in="SourceGraphic" in2="BackgroundImageFix" result="shape"/>
<feGaussianBlur stdDeviation="2" result="effect1_foregroundBlur_302_8309"/>
</filter>
<filter id="filter23_f_302_8309" x="131.499" y="97.918" width="33.0643" height="22.0942" filterUnits="userSpaceOnUse" color-interpolation-filters="sRGB">
<feFlood flood-opacity="0" result="BackgroundImageFix"/>
<feBlend mode="normal" in="SourceGraphic" in2="BackgroundImageFix" result="shape"/>
<feGaussianBlur stdDeviation="2" result="effect1_foregroundBlur_302_8309"/>
</filter>
<filter id="filter24_f_302_8309" x="50.0203" y="94.1172" width="34.4222" height="15.873" filterUnits="userSpaceOnUse" color-interpolation-filters="sRGB">
<feFlood flood-opacity="0" result="BackgroundImageFix"/>
<feBlend mode="normal" in="SourceGraphic" in2="BackgroundImageFix" result="shape"/>
<feGaussianBlur stdDeviation="2" result="effect1_foregroundBlur_302_8309"/>
</filter>
<filter id="filter25_f_302_8309" x="93.0826" y="186.982" width="10.7376" height="18.4478" filterUnits="userSpaceOnUse" color-interpolation-filters="sRGB">
<feFlood flood-opacity="0" result="BackgroundImageFix"/>
<feBlend mode="normal" in="SourceGraphic" in2="BackgroundImageFix" result="shape"/>
<feGaussianBlur stdDeviation="2" result="effect1_foregroundBlur_302_8309"/>
</filter>
<filter id="filter26_f_302_8309" x="196.083" y="109.339" width="21.2392" height="18.8638" filterUnits="userSpaceOnUse" color-interpolation-filters="sRGB">
<feFlood flood-opacity="0" result="BackgroundImageFix"/>
<feBlend mode="normal" in="SourceGraphic" in2="BackgroundImageFix" result="shape"/>
<feGaussianBlur stdDeviation="2" result="effect1_foregroundBlur_302_8309"/>
</filter>
<filter id="filter27_f_302_8309" x="13.8923" y="255.435" width="203.581" height="13.2383" filterUnits="userSpaceOnUse" color-interpolation-filters="sRGB">
<feFlood flood-opacity="0" result="BackgroundImageFix"/>
<feBlend mode="normal" in="SourceGraphic" in2="BackgroundImageFix" result="shape"/>
<feGaussianBlur stdDeviation="2" result="effect1_foregroundBlur_302_8309"/>
</filter>
<filter id="filter28_f_302_8309" x="164.637" y="255.287" width="78.6541" height="13.0342" filterUnits="userSpaceOnUse" color-interpolation-filters="sRGB">
<feFlood flood-opacity="0" result="BackgroundImageFix"/>
<feBlend mode="normal" in="SourceGraphic" in2="BackgroundImageFix" result="shape"/>
<feGaussianBlur stdDeviation="2" result="effect1_foregroundBlur_302_8309"/>
</filter>
<filter id="filter29_f_302_8309" x="129.18" y="176.375" width="36.9442" height="66.2363" filterUnits="userSpaceOnUse" color-interpolation-filters="sRGB">
<feFlood flood-opacity="0" result="BackgroundImageFix"/>
<feBlend mode="normal" in="SourceGraphic" in2="BackgroundImageFix" result="shape"/>
<feGaussianBlur stdDeviation="2" result="effect1_foregroundBlur_302_8309"/>
</filter>
<filter id="filter30_f_302_8309" x="123.376" y="121.231" width="52.5342" height="27.1392" filterUnits="userSpaceOnUse" color-interpolation-filters="sRGB">
<feFlood flood-opacity="0" result="BackgroundImageFix"/>
<feBlend mode="normal" in="SourceGraphic" in2="BackgroundImageFix" result="shape"/>
<feGaussianBlur stdDeviation="2" result="effect1_foregroundBlur_302_8309"/>
</filter>
<filter id="filter31_f_302_8309" x="52.2703" y="186.532" width="48.1806" height="26.0571" filterUnits="userSpaceOnUse" color-interpolation-filters="sRGB">
<feFlood flood-opacity="0" result="BackgroundImageFix"/>
<feBlend mode="normal" in="SourceGraphic" in2="BackgroundImageFix" result="shape"/>
<feGaussianBlur stdDeviation="2" result="effect1_foregroundBlur_302_8309"/>
</filter>
<linearGradient id="paint0_linear_302_8309" x1="115.683" y1="259.935" x2="115.683" y2="264.173" gradientUnits="userSpaceOnUse">
<stop stop-color="white"/>
<stop offset="1" stop-color="white" stop-opacity="0"/>
</linearGradient>
<linearGradient id="paint1_linear_302_8309" x1="115.683" y1="259.935" x2="115.683" y2="264.173" gradientUnits="userSpaceOnUse">
<stop stop-color="white"/>
<stop offset="1" stop-color="white" stop-opacity="0"/>
</linearGradient>
<linearGradient id="paint2_linear_302_8309" x1="115.683" y1="259.935" x2="115.683" y2="264.173" gradientUnits="userSpaceOnUse">
<stop stop-color="white"/>
<stop offset="1" stop-color="white" stop-opacity="0"/>
</linearGradient>
<linearGradient id="paint3_linear_302_8309" x1="115.683" y1="259.935" x2="115.683" y2="264.173" gradientUnits="userSpaceOnUse">
<stop stop-color="white"/>
<stop offset="1" stop-color="white" stop-opacity="0"/>
</linearGradient>
<linearGradient id="paint4_linear_302_8309" x1="203.964" y1="259.787" x2="203.964" y2="263.821" gradientUnits="userSpaceOnUse">
<stop stop-color="white"/>
<stop offset="1" stop-color="white" stop-opacity="0"/>
</linearGradient>
<linearGradient id="paint5_linear_302_8309" x1="203.964" y1="259.787" x2="203.964" y2="263.821" gradientUnits="userSpaceOnUse">
<stop stop-color="white"/>
<stop offset="1" stop-color="white" stop-opacity="0"/>
</linearGradient>
<linearGradient id="paint6_linear_302_8309" x1="203.964" y1="259.787" x2="203.964" y2="263.821" gradientUnits="userSpaceOnUse">
<stop stop-color="white"/>
<stop offset="1" stop-color="white" stop-opacity="0"/>
</linearGradient>
<linearGradient id="paint7_linear_302_8309" x1="203.964" y1="259.787" x2="203.964" y2="263.821" gradientUnits="userSpaceOnUse">
<stop stop-color="white"/>
<stop offset="1" stop-color="white" stop-opacity="0"/>
</linearGradient>
</defs>
</svg>
