<svg width="16" height="16" viewBox="0 0 16 16" fill="none" xmlns="http://www.w3.org/2000/svg">
<g id="workflow-status-problem" clip-path="url(#clip0_899_559)">
<path id="Vector" d="M15.7334 12.3331L9.75337 1.6864C9.57991 1.37541 9.32656 1.11637 9.0195 0.936044C8.71244 0.755718 8.3628 0.660645 8.00671 0.660645C7.65061 0.660645 7.30097 0.755718 6.99391 0.936044C6.68685 1.11637 6.4335 1.37541 6.26004 1.6864L0.266706 12.3331C0.0953378 12.6378 0.00629193 12.982 0.00833517 13.3316C0.0103784 13.6813 0.10344 14.0243 0.278359 14.3271C0.453278 14.6298 0.704023 14.8818 1.00591 15.0582C1.3078 15.2346 1.65042 15.3293 2.00004 15.3331H14C15.5267 15.3331 16.4934 13.6731 15.7334 12.3331ZM10.7067 11.6264C10.894 11.8139 10.9992 12.0681 10.9992 12.3331C10.9992 12.5981 10.894 12.8522 10.7067 13.0397C10.5192 13.227 10.265 13.3322 10 13.3322C9.73504 13.3322 9.48087 13.227 9.29337 13.0397L7.99337 11.7464L6.70004 13.0397C6.51254 13.227 6.25837 13.3322 5.99337 13.3322C5.72837 13.3322 5.47421 13.227 5.28671 13.0397C5.09944 12.8522 4.99425 12.5981 4.99425 12.3331C4.99425 12.0681 5.09944 11.8139 5.28671 11.6264L6.58004 10.3331L5.28671 9.03973C5.09944 8.85223 4.99425 8.59807 4.99425 8.33307C4.99425 8.06806 5.09944 7.8139 5.28671 7.6264C5.47421 7.43913 5.72837 7.33395 5.99337 7.33395C6.25837 7.33395 6.51254 7.43913 6.70004 7.6264L8.00004 8.91973L9.30004 7.6264C9.48754 7.43913 9.74171 7.33395 10.0067 7.33395C10.2717 7.33395 10.5259 7.43913 10.7134 7.6264C10.9006 7.8139 11.0058 8.06806 11.0058 8.33307C11.0058 8.59807 10.9006 8.85223 10.7134 9.03973L9.42004 10.3331L10.7134 11.6264H10.7067Z" fill="#CC0000"/>
</g>
<defs>
<clipPath id="clip0_899_559">
<rect width="16" height="16" fill="white"/>
</clipPath>
</defs>
</svg>
