<svg width="8" height="8" viewBox="0 0 8 8" fill="none" xmlns="http://www.w3.org/2000/svg">
<path d="M5.06004 3.99992L7.44671 1.61325C7.74004 1.31992 7.74004 0.846585 7.44671 0.553252C7.15337 0.259919 6.68004 0.259919 6.38671 0.553252L4.00004 2.93992L1.61337 0.553252C1.32004 0.259919 0.846707 0.259919 0.553374 0.553252C0.260041 0.846585 0.260041 1.31992 0.553374 1.61325L2.94004 3.99992L0.553374 6.38658C0.260041 6.67992 0.260041 7.15325 0.553374 7.44658C0.700041 7.59325 0.890041 7.66658 1.08337 7.66658C1.27671 7.66658 1.46671 7.59325 1.61337 7.44658L4.00004 5.05992L6.38671 7.44658C6.53337 7.59325 6.72337 7.66658 6.91671 7.66658C7.11004 7.66658 7.30004 7.59325 7.44671 7.44658C7.74004 7.15325 7.74004 6.67992 7.44671 6.38658L5.06004 3.99992Z" fill="#C19008"/>
</svg>
